solid Untitled-58c1b44a
facet normal 0.9659255478540951 0.2588200842337521 0.0
  outer loop
    vertex 575.2352491093906 -602.965307531268 0.0
    vertex 577.4647266093906 -611.285795031268 8.477797500000005
    vertex 577.4647266093906 -611.285795031268 0.0
  endloop
endfacet
facet normal 0.9659255478540951 0.2588200842337521 0.0
  outer loop
    vertex 577.4647266093906 -611.285795031268 8.477797500000005
    vertex 575.2352491093906 -602.965307531268 0.0
    vertex 575.2352491093906 -602.965307531268 8.477797500000005
  endloop
endfacet
facet normal 0.7071069262991179 0.7071066360739475 0.0
  outer loop
    vertex 577.4647266093906 -611.285795031268 0.0
    vertex 583.5557441093905 -617.376815031268 8.477797500000005
    vertex 583.5557441093905 -617.376815031268 0.0
  endloop
endfacet
facet normal 0.7071069262991179 0.7071066360739475 0.0
  outer loop
    vertex 583.5557441093905 -617.376815031268 8.477797500000005
    vertex 577.4647266093906 -611.285795031268 0.0
    vertex 577.4647266093906 -611.285795031268 8.477797500000005
  endloop
endfacet
facet normal 0.25881522071534074 0.9659268510224103 0.0
  outer loop
    vertex 583.5557441093905 -617.376815031268 8.477797500000005
    vertex 591.8763618681905 -619.606282531268 0.0
    vertex 583.5557441093905 -617.376815031268 0.0
  endloop
endfacet
facet normal 0.25881522071534074 0.9659268510224103 0.0
  outer loop
    vertex 591.8763618681905 -619.606282531268 0.0
    vertex 583.5557441093905 -617.376815031268 8.477797500000005
    vertex 591.8763618681905 -619.606282531268 8.477797500000005
  endloop
endfacet
facet normal -0.9659247566432875 -0.2588230370419257 0.0
  outer loop
    vertex 552.5746716093905 -602.965307531268 8.477797500000005
    vertex 553.8331466093905 -607.661922531268 0.0
    vertex 553.8331466093905 -607.661922531268 8.477797500000005
  endloop
endfacet
facet normal -0.9659247566432875 -0.2588230370419257 0.0
  outer loop
    vertex 553.8331466093905 -607.661922531268 0.0
    vertex 552.5746716093905 -602.965307531268 8.477797500000005
    vertex 552.5746716093905 -602.965307531268 0.0
  endloop
endfacet
facet normal 0.9659230267725446 0.2588294928144134 0.0
  outer loop
    vertex 557.7083216093905 -602.965307531268 0.0
    vertex 558.2790216093905 -605.095096781268 8.477797500000005
    vertex 558.2790216093905 -605.095096781268 0.0
  endloop
endfacet
facet normal 0.9659230267725446 0.2588294928144134 0.0
  outer loop
    vertex 558.2790216093905 -605.095096781268 8.477797500000005
    vertex 557.7083216093905 -602.965307531268 0.0
    vertex 557.7083216093905 -602.965307531268 8.477797500000005
  endloop
endfacet
facet normal -0.707107809508812 -0.7071057528627877 0.0
  outer loop
    vertex 553.8331466093905 -607.661922531268 8.477797500000005
    vertex 557.2712966093904 -611.100082531268 0.0
    vertex 557.2712966093904 -611.100082531268 8.477797500000005
  endloop
endfacet
facet normal -0.707107809508812 -0.7071057528627877 0.0
  outer loop
    vertex 557.2712966093904 -611.100082531268 0.0
    vertex 553.8331466093905 -607.661922531268 8.477797500000005
    vertex 553.8331466093905 -607.661922531268 0.0
  endloop
endfacet
facet normal 0.7071097858383119 0.7071037765220158 0.0
  outer loop
    vertex 558.2790216093905 -605.095096781268 0.0
    vertex 559.8381216093906 -606.654210031268 8.477797500000005
    vertex 559.8381216093906 -606.654210031268 0.0
  endloop
endfacet
facet normal 0.7071097858383119 0.7071037765220158 0.0
  outer loop
    vertex 559.8381216093906 -606.654210031268 8.477797500000005
    vertex 558.2790216093905 -605.095096781268 0.0
    vertex 558.2790216093905 -605.095096781268 8.477797500000005
  endloop
endfacet
facet normal 0.25881769524211834 0.9659261879820621 0.0
  outer loop
    vertex 559.8381216093906 -606.654210031268 8.477797500000005
    vertex 561.9679216093905 -607.224885031268 0.0
    vertex 559.8381216093906 -606.654210031268 0.0
  endloop
endfacet
facet normal 0.25881769524211834 0.9659261879820621 0.0
  outer loop
    vertex 561.9679216093905 -607.224885031268 0.0
    vertex 559.8381216093906 -606.654210031268 8.477797500000005
    vertex 561.9679216093905 -607.224885031268 8.477797500000005
  endloop
endfacet
facet normal -0.25882052981493864 0.9659254284603521 0.0
  outer loop
    vertex 561.9679216093905 -607.224885031268 8.477797500000005
    vertex 564.0976966093905 -606.654210031268 0.0
    vertex 561.9679216093905 -607.224885031268 0.0
  endloop
endfacet
facet normal -0.25882052981493864 0.9659254284603521 0.0
  outer loop
    vertex 564.0976966093905 -606.654210031268 0.0
    vertex 561.9679216093905 -607.224885031268 8.477797500000005
    vertex 564.0976966093905 -606.654210031268 8.477797500000005
  endloop
endfacet
facet normal -0.7071040600030777 0.7071095023595454 0.0
  outer loop
    vertex 564.0976966093905 -606.654210031268 8.477797500000005
    vertex 565.6568216093906 -605.095097031268 0.0
    vertex 564.0976966093905 -606.654210031268 0.0
  endloop
endfacet
facet normal -0.7071040600030777 0.7071095023595454 0.0
  outer loop
    vertex 565.6568216093906 -605.095097031268 0.0
    vertex 564.0976966093905 -606.654210031268 8.477797500000005
    vertex 565.6568216093906 -605.095097031268 8.477797500000005
  endloop
endfacet
facet normal -0.9659287035044041 0.2588083069499535 0.0
  outer loop
    vertex 566.2274716093905 -602.965307531268 8.477797500000005
    vertex 565.6568216093906 -605.095097031268 0.0
    vertex 565.6568216093906 -605.095097031268 8.477797500000005
  endloop
endfacet
facet normal -0.9659287035044041 0.2588083069499535 0.0
  outer loop
    vertex 565.6568216093906 -605.095097031268 0.0
    vertex 566.2274716093905 -602.965307531268 8.477797500000005
    vertex 566.2274716093905 -602.965307531268 0.0
  endloop
endfacet
facet normal -0.3581025998876037 -0.9336822414257105 0.0
  outer loop
    vertex 581.6845891093905 -620.617765031268 8.477797500000005
    vertex 561.3752966093905 -612.828380031268 0.0
    vertex 581.6845891093905 -620.617765031268 0.0
  endloop
endfacet
facet normal -0.3581025998876037 -0.9336822414257105 0.0
  outer loop
    vertex 561.3752966093905 -612.828380031268 0.0
    vertex 581.6845891093905 -620.617765031268 8.477797500000005
    vertex 561.3752966093905 -612.828380031268 8.477797500000005
  endloop
endfacet
facet normal -0.18819812680551523 -0.9821310834440051 0.0
  outer loop
    vertex 591.8763618681905 -622.570735031268 8.477797500000005
    vertex 581.6845891093905 -620.617765031268 0.0
    vertex 591.8763618681905 -622.570735031268 0.0
  endloop
endfacet
facet normal -0.18819812680551523 -0.9821310834440051 0.0
  outer loop
    vertex 581.6845891093905 -620.617765031268 0.0
    vertex 591.8763618681905 -622.570735031268 8.477797500000005
    vertex 581.6845891093905 -620.617765031268 8.477797500000005
  endloop
endfacet
facet normal -0.3881137466960599 -0.9216114797600705 0.0
  outer loop
    vertex 561.3752966093905 -612.828380031268 8.477797500000005
    vertex 557.2712966093904 -611.100082531268 0.0
    vertex 561.3752966093905 -612.828380031268 0.0
  endloop
endfacet
facet normal -0.3881137466960599 -0.9216114797600705 0.0
  outer loop
    vertex 557.2712966093904 -611.100082531268 0.0
    vertex 561.3752966093905 -612.828380031268 8.477797500000005
    vertex 557.2712966093904 -611.100082531268 8.477797500000005
  endloop
endfacet
facet normal -0.9659256204105945 0.2588198134502227 0.0
  outer loop
    vertex 608.5174741093905 -602.965307531268 8.477797500000005
    vertex 606.2879991093905 -611.285795031268 0.0
    vertex 606.2879991093905 -611.285795031268 8.477797500000005
  endloop
endfacet
facet normal -0.9659256204105945 0.2588198134502227 0.0
  outer loop
    vertex 606.2879991093905 -611.285795031268 0.0
    vertex 608.5174741093905 -602.965307531268 8.477797500000005
    vertex 608.5174741093905 -602.965307531268 0.0
  endloop
endfacet
facet normal -0.7071067811865476 0.7071067811865475 0.0
  outer loop
    vertex 606.2879991093905 -611.285795031268 8.477797500000005
    vertex 600.1969791093904 -617.376815031268 0.0
    vertex 600.1969791093904 -617.376815031268 8.477797500000005
  endloop
endfacet
facet normal -0.7071067811865476 0.7071067811865475 0.0
  outer loop
    vertex 600.1969791093904 -617.376815031268 0.0
    vertex 606.2879991093905 -611.285795031268 8.477797500000005
    vertex 606.2879991093905 -611.285795031268 0.0
  endloop
endfacet
facet normal -0.25881523573696896 0.9659268469974407 0.0
  outer loop
    vertex 591.8763618681905 -619.606282531268 8.477797500000005
    vertex 600.1969791093904 -617.376815031268 0.0
    vertex 591.8763618681905 -619.606282531268 0.0
  endloop
endfacet
facet normal -0.25881523573696896 0.9659268469974407 0.0
  outer loop
    vertex 600.1969791093904 -617.376815031268 0.0
    vertex 591.8763618681905 -619.606282531268 8.477797500000005
    vertex 600.1969791093904 -617.376815031268 8.477797500000005
  endloop
endfacet
facet normal 0.9659260420516599 -0.25881823986422386 0.0
  outer loop
    vertex 631.1780216093905 -602.965307531268 0.0
    vertex 629.9195716093906 -607.661922531268 8.477797500000005
    vertex 629.9195716093906 -607.661922531268 0.0
  endloop
endfacet
facet normal 0.9659260420516599 -0.25881823986422386 0.0
  outer loop
    vertex 629.9195716093906 -607.661922531268 8.477797500000005
    vertex 631.1780216093905 -602.965307531268 0.0
    vertex 631.1780216093905 -602.965307531268 8.477797500000005
  endloop
endfacet
facet normal -0.9659258613907848 0.25881891410109625 0.0
  outer loop
    vertex 626.0443966093906 -602.965307531268 8.477797500000005
    vertex 625.4737216093905 -605.095096781268 0.0
    vertex 625.4737216093905 -605.095096781268 8.477797500000005
  endloop
endfacet
facet normal -0.9659258613907848 0.25881891410109625 0.0
  outer loop
    vertex 625.4737216093905 -605.095096781268 0.0
    vertex 626.0443966093906 -602.965307531268 8.477797500000005
    vertex 626.0443966093906 -602.965307531268 0.0
  endloop
endfacet
facet normal 0.7071078095088114 -0.7071057528627882 0.0
  outer loop
    vertex 629.9195716093906 -607.661922531268 0.0
    vertex 626.4814216093905 -611.100082531268 8.477797500000005
    vertex 626.4814216093905 -611.100082531268 0.0
  endloop
endfacet
facet normal 0.7071078095088114 -0.7071057528627882 0.0
  outer loop
    vertex 626.4814216093905 -611.100082531268 8.477797500000005
    vertex 629.9195716093906 -607.661922531268 0.0
    vertex 629.9195716093906 -607.661922531268 8.477797500000005
  endloop
endfacet
facet normal -0.7071041166947205 0.7071094456683344 0.0
  outer loop
    vertex 623.9145966093905 -606.654210031268 8.477797500000005
    vertex 625.4737216093905 -605.095096781268 0.0
    vertex 623.9145966093905 -606.654210031268 0.0
  endloop
endfacet
facet normal -0.7071041166947205 0.7071094456683344 0.0
  outer loop
    vertex 625.4737216093905 -605.095096781268 0.0
    vertex 623.9145966093905 -606.654210031268 8.477797500000005
    vertex 625.4737216093905 -605.095096781268 8.477797500000005
  endloop
endfacet
facet normal -0.2588205298149386 0.9659254284603521 0.0
  outer loop
    vertex 621.7848216093905 -607.224885031268 8.477797500000005
    vertex 623.9145966093905 -606.654210031268 0.0
    vertex 621.7848216093905 -607.224885031268 0.0
  endloop
endfacet
facet normal -0.2588205298149386 0.9659254284603521 0.0
  outer loop
    vertex 623.9145966093905 -606.654210031268 0.0
    vertex 621.7848216093905 -607.224885031268 8.477797500000005
    vertex 623.9145966093905 -606.654210031268 8.477797500000005
  endloop
endfacet
facet normal 0.2588176952421177 0.9659261879820623 0.0
  outer loop
    vertex 619.6550216093905 -606.654210031268 8.477797500000005
    vertex 621.7848216093905 -607.224885031268 0.0
    vertex 619.6550216093905 -606.654210031268 0.0
  endloop
endfacet
facet normal 0.2588176952421177 0.9659261879820623 0.0
  outer loop
    vertex 621.7848216093905 -607.224885031268 0.0
    vertex 619.6550216093905 -606.654210031268 8.477797500000005
    vertex 621.7848216093905 -607.224885031268 8.477797500000005
  endloop
endfacet
facet normal 0.707104060003079 0.7071095023595441 0.0
  outer loop
    vertex 618.0958966093905 -605.095097031268 8.477797500000005
    vertex 619.6550216093905 -606.654210031268 0.0
    vertex 618.0958966093905 -605.095097031268 0.0
  endloop
endfacet
facet normal 0.707104060003079 0.7071095023595441 0.0
  outer loop
    vertex 619.6550216093905 -606.654210031268 0.0
    vertex 618.0958966093905 -605.095097031268 8.477797500000005
    vertex 619.6550216093905 -606.654210031268 8.477797500000005
  endloop
endfacet
facet normal 0.9659287035044041 0.2588083069499535 0.0
  outer loop
    vertex 617.5252466093906 -602.965307531268 0.0
    vertex 618.0958966093905 -605.095097031268 8.477797500000005
    vertex 618.0958966093905 -605.095097031268 0.0
  endloop
endfacet
facet normal 0.9659287035044041 0.2588083069499535 0.0
  outer loop
    vertex 618.0958966093905 -605.095097031268 8.477797500000005
    vertex 617.5252466093906 -602.965307531268 0.0
    vertex 617.5252466093906 -602.965307531268 8.477797500000005
  endloop
endfacet
facet normal 0.35810267674416824 -0.9336822119482957 0.0
  outer loop
    vertex 622.3774216093905 -612.828380031268 8.477797500000005
    vertex 602.0681341093906 -620.617765031268 0.0
    vertex 622.3774216093905 -612.828380031268 0.0
  endloop
endfacet
facet normal 0.35810267674416824 -0.9336822119482957 0.0
  outer loop
    vertex 602.0681341093906 -620.617765031268 0.0
    vertex 622.3774216093905 -612.828380031268 8.477797500000005
    vertex 602.0681341093906 -620.617765031268 8.477797500000005
  endloop
endfacet
facet normal 0.18819813602483254 -0.9821310816773791 0.0
  outer loop
    vertex 602.0681341093906 -620.617765031268 8.477797500000005
    vertex 591.8763618681905 -622.570735031268 0.0
    vertex 602.0681341093906 -620.617765031268 0.0
  endloop
endfacet
facet normal 0.18819813602483254 -0.9821310816773791 0.0
  outer loop
    vertex 591.8763618681905 -622.570735031268 0.0
    vertex 602.0681341093906 -620.617765031268 8.477797500000005
    vertex 591.8763618681905 -622.570735031268 8.477797500000005
  endloop
endfacet
facet normal 0.3881137466960604 -0.9216114797600704 0.0
  outer loop
    vertex 626.4814216093905 -611.100082531268 8.477797500000005
    vertex 622.3774216093905 -612.828380031268 0.0
    vertex 626.4814216093905 -611.100082531268 0.0
  endloop
endfacet
facet normal 0.3881137466960604 -0.9216114797600704 0.0
  outer loop
    vertex 622.3774216093905 -612.828380031268 0.0
    vertex 626.4814216093905 -611.100082531268 8.477797500000005
    vertex 622.3774216093905 -612.828380031268 8.477797500000005
  endloop
endfacet
facet normal 0.9659255478540951 -0.2588200842337521 0.0
  outer loop
    vertex 577.4647266093906 -594.644820031268 0.0
    vertex 575.2352491093906 -602.965307531268 8.477797500000005
    vertex 575.2352491093906 -602.965307531268 0.0
  endloop
endfacet
facet normal 0.9659255478540951 -0.2588200842337521 0.0
  outer loop
    vertex 575.2352491093906 -602.965307531268 8.477797500000005
    vertex 577.4647266093906 -594.644820031268 0.0
    vertex 577.4647266093906 -594.644820031268 8.477797500000005
  endloop
endfacet
facet normal 0.7071069262991179 -0.7071066360739475 0.0
  outer loop
    vertex 583.5557441093905 -588.553800031268 0.0
    vertex 577.4647266093906 -594.644820031268 8.477797500000005
    vertex 577.4647266093906 -594.644820031268 0.0
  endloop
endfacet
facet normal 0.7071069262991179 -0.7071066360739475 0.0
  outer loop
    vertex 577.4647266093906 -594.644820031268 8.477797500000005
    vertex 583.5557441093905 -588.553800031268 0.0
    vertex 583.5557441093905 -588.553800031268 8.477797500000005
  endloop
endfacet
facet normal 0.25881522071534074 -0.9659268510224103 0.0
  outer loop
    vertex 591.8763618681905 -586.3243325312679 8.477797500000005
    vertex 583.5557441093905 -588.553800031268 0.0
    vertex 591.8763618681905 -586.3243325312679 0.0
  endloop
endfacet
facet normal 0.25881522071534074 -0.9659268510224103 0.0
  outer loop
    vertex 583.5557441093905 -588.553800031268 0.0
    vertex 591.8763618681905 -586.3243325312679 8.477797500000005
    vertex 583.5557441093905 -588.553800031268 8.477797500000005
  endloop
endfacet
facet normal -0.9659247566432875 0.2588230370419257 0.0
  outer loop
    vertex 553.8331466093905 -598.268692531268 8.477797500000005
    vertex 552.5746716093905 -602.965307531268 0.0
    vertex 552.5746716093905 -602.965307531268 8.477797500000005
  endloop
endfacet
facet normal -0.9659247566432875 0.2588230370419257 0.0
  outer loop
    vertex 552.5746716093905 -602.965307531268 0.0
    vertex 553.8331466093905 -598.268692531268 8.477797500000005
    vertex 553.8331466093905 -598.268692531268 0.0
  endloop
endfacet
facet normal 0.9659230267725446 -0.2588294928144134 0.0
  outer loop
    vertex 558.2790216093905 -600.8355182812679 0.0
    vertex 557.7083216093905 -602.965307531268 8.477797500000005
    vertex 557.7083216093905 -602.965307531268 0.0
  endloop
endfacet
facet normal 0.9659230267725446 -0.2588294928144134 0.0
  outer loop
    vertex 557.7083216093905 -602.965307531268 8.477797500000005
    vertex 558.2790216093905 -600.8355182812679 0.0
    vertex 558.2790216093905 -600.8355182812679 8.477797500000005
  endloop
endfacet
facet normal -0.707107809508812 0.7071057528627877 0.0
  outer loop
    vertex 557.2712966093904 -594.830532531268 8.477797500000005
    vertex 553.8331466093905 -598.268692531268 0.0
    vertex 553.8331466093905 -598.268692531268 8.477797500000005
  endloop
endfacet
facet normal -0.707107809508812 0.7071057528627877 0.0
  outer loop
    vertex 553.8331466093905 -598.268692531268 0.0
    vertex 557.2712966093904 -594.830532531268 8.477797500000005
    vertex 557.2712966093904 -594.830532531268 0.0
  endloop
endfacet
facet normal 0.7071097858383119 -0.7071037765220158 0.0
  outer loop
    vertex 559.8381216093906 -599.276405031268 0.0
    vertex 558.2790216093905 -600.8355182812679 8.477797500000005
    vertex 558.2790216093905 -600.8355182812679 0.0
  endloop
endfacet
facet normal 0.7071097858383119 -0.7071037765220158 0.0
  outer loop
    vertex 558.2790216093905 -600.8355182812679 8.477797500000005
    vertex 559.8381216093906 -599.276405031268 0.0
    vertex 559.8381216093906 -599.276405031268 8.477797500000005
  endloop
endfacet
facet normal 0.25881769524211834 -0.9659261879820621 0.0
  outer loop
    vertex 561.9679216093905 -598.705730031268 8.477797500000005
    vertex 559.8381216093906 -599.276405031268 0.0
    vertex 561.9679216093905 -598.705730031268 0.0
  endloop
endfacet
facet normal 0.25881769524211834 -0.9659261879820621 0.0
  outer loop
    vertex 559.8381216093906 -599.276405031268 0.0
    vertex 561.9679216093905 -598.705730031268 8.477797500000005
    vertex 559.8381216093906 -599.276405031268 8.477797500000005
  endloop
endfacet
facet normal -0.25882052981493864 -0.9659254284603521 0.0
  outer loop
    vertex 564.0976966093905 -599.276405031268 8.477797500000005
    vertex 561.9679216093905 -598.705730031268 0.0
    vertex 564.0976966093905 -599.276405031268 0.0
  endloop
endfacet
facet normal -0.25882052981493864 -0.9659254284603521 0.0
  outer loop
    vertex 561.9679216093905 -598.705730031268 0.0
    vertex 564.0976966093905 -599.276405031268 8.477797500000005
    vertex 561.9679216093905 -598.705730031268 8.477797500000005
  endloop
endfacet
facet normal -0.7071040600030777 -0.7071095023595454 0.0
  outer loop
    vertex 565.6568216093906 -600.835518031268 8.477797500000005
    vertex 564.0976966093905 -599.276405031268 0.0
    vertex 565.6568216093906 -600.835518031268 0.0
  endloop
endfacet
facet normal -0.7071040600030777 -0.7071095023595454 0.0
  outer loop
    vertex 564.0976966093905 -599.276405031268 0.0
    vertex 565.6568216093906 -600.835518031268 8.477797500000005
    vertex 564.0976966093905 -599.276405031268 8.477797500000005
  endloop
endfacet
facet normal -0.9659287035044041 -0.2588083069499535 0.0
  outer loop
    vertex 565.6568216093906 -600.835518031268 8.477797500000005
    vertex 566.2274716093905 -602.965307531268 0.0
    vertex 566.2274716093905 -602.965307531268 8.477797500000005
  endloop
endfacet
facet normal -0.9659287035044041 -0.2588083069499535 0.0
  outer loop
    vertex 566.2274716093905 -602.965307531268 0.0
    vertex 565.6568216093906 -600.835518031268 8.477797500000005
    vertex 565.6568216093906 -600.835518031268 0.0
  endloop
endfacet
facet normal -0.3581025998876037 0.9336822414257105 0.0
  outer loop
    vertex 561.3752966093905 -593.1022350312679 8.477797500000005
    vertex 581.6845891093905 -585.312850031268 0.0
    vertex 561.3752966093905 -593.1022350312679 0.0
  endloop
endfacet
facet normal -0.3581025998876037 0.9336822414257105 0.0
  outer loop
    vertex 581.6845891093905 -585.312850031268 0.0
    vertex 561.3752966093905 -593.1022350312679 8.477797500000005
    vertex 581.6845891093905 -585.312850031268 8.477797500000005
  endloop
endfacet
facet normal -0.18819812680551518 0.9821310834440051 0.0
  outer loop
    vertex 581.6845891093905 -585.312850031268 8.477797500000005
    vertex 591.8763618681905 -583.3598800312681 0.0
    vertex 581.6845891093905 -585.312850031268 0.0
  endloop
endfacet
facet normal -0.18819812680551518 0.9821310834440051 0.0
  outer loop
    vertex 591.8763618681905 -583.3598800312681 0.0
    vertex 581.6845891093905 -585.312850031268 8.477797500000005
    vertex 591.8763618681905 -583.3598800312681 8.477797500000005
  endloop
endfacet
facet normal -0.3881137466960599 0.9216114797600705 0.0
  outer loop
    vertex 557.2712966093904 -594.830532531268 8.477797500000005
    vertex 561.3752966093905 -593.1022350312679 0.0
    vertex 557.2712966093904 -594.830532531268 0.0
  endloop
endfacet
facet normal -0.3881137466960599 0.9216114797600705 0.0
  outer loop
    vertex 561.3752966093905 -593.1022350312679 0.0
    vertex 557.2712966093904 -594.830532531268 8.477797500000005
    vertex 561.3752966093905 -593.1022350312679 8.477797500000005
  endloop
endfacet
facet normal -0.9659256204105945 -0.2588198134502227 0.0
  outer loop
    vertex 606.2879991093905 -594.644820031268 8.477797500000005
    vertex 608.5174741093905 -602.965307531268 0.0
    vertex 608.5174741093905 -602.965307531268 8.477797500000005
  endloop
endfacet
facet normal -0.9659256204105945 -0.2588198134502227 0.0
  outer loop
    vertex 608.5174741093905 -602.965307531268 0.0
    vertex 606.2879991093905 -594.644820031268 8.477797500000005
    vertex 606.2879991093905 -594.644820031268 0.0
  endloop
endfacet
facet normal -6.617531172118547e-33 1.1760118047606793e-32 1.0
  outer loop
    vertex 553.8331466093905 -607.661922531268 8.477797500000005
    vertex 553.8331466093905 -598.268692531268 8.477797500000005
    vertex 552.5746716093905 -602.965307531268 8.477797500000005
  endloop
endfacet
facet normal -6.617531172118547e-33 1.1760118047606793e-32 1.0
  outer loop
    vertex 553.8331466093905 -598.268692531268 8.477797500000005
    vertex 553.8331466093905 -607.661922531268 8.477797500000005
    vertex 557.2712966093904 -611.100082531268 8.477797500000005
  endloop
endfacet
facet normal -6.617531172118547e-33 1.1760118047606793e-32 1.0
  outer loop
    vertex 553.8331466093905 -598.268692531268 8.477797500000005
    vertex 557.2712966093904 -611.100082531268 8.477797500000005
    vertex 557.2712966093904 -594.830532531268 8.477797500000005
  endloop
endfacet
facet normal -6.617531172118547e-33 1.1760118047606793e-32 1.0
  outer loop
    vertex 557.2712966093904 -594.830532531268 8.477797500000005
    vertex 557.2712966093904 -611.100082531268 8.477797500000005
    vertex 557.7083216093905 -602.965307531268 8.477797500000005
  endloop
endfacet
facet normal -6.617531172118547e-33 1.1760118047606793e-32 1.0
  outer loop
    vertex 557.7083216093905 -602.965307531268 8.477797500000005
    vertex 557.2712966093904 -611.100082531268 8.477797500000005
    vertex 558.2790216093905 -605.095096781268 8.477797500000005
  endloop
endfacet
facet normal -6.617531172118547e-33 1.1760118047606793e-32 1.0
  outer loop
    vertex 558.2790216093905 -605.095096781268 8.477797500000005
    vertex 557.2712966093904 -611.100082531268 8.477797500000005
    vertex 561.3752966093905 -612.828380031268 8.477797500000005
  endloop
endfacet
facet normal -6.617531172118547e-33 1.1760118047606793e-32 1.0
  outer loop
    vertex 558.2790216093905 -605.095096781268 8.477797500000005
    vertex 561.3752966093905 -612.828380031268 8.477797500000005
    vertex 559.8381216093906 -606.654210031268 8.477797500000005
  endloop
endfacet
facet normal -6.617531172118547e-33 1.1760118047606793e-32 1.0
  outer loop
    vertex 559.8381216093906 -606.654210031268 8.477797500000005
    vertex 561.3752966093905 -612.828380031268 8.477797500000005
    vertex 561.9679216093905 -607.224885031268 8.477797500000005
  endloop
endfacet
facet normal -6.617531172118547e-33 1.1760118047606793e-32 1.0
  outer loop
    vertex 561.9679216093905 -607.224885031268 8.477797500000005
    vertex 561.3752966093905 -612.828380031268 8.477797500000005
    vertex 581.6845891093905 -620.617765031268 8.477797500000005
  endloop
endfacet
facet normal -6.617531172118547e-33 1.1760118047606793e-32 1.0
  outer loop
    vertex 561.9679216093905 -607.224885031268 8.477797500000005
    vertex 581.6845891093905 -620.617765031268 8.477797500000005
    vertex 564.0976966093905 -606.654210031268 8.477797500000005
  endloop
endfacet
facet normal -6.617531172118547e-33 1.1760118047606793e-32 1.0
  outer loop
    vertex 564.0976966093905 -606.654210031268 8.477797500000005
    vertex 581.6845891093905 -620.617765031268 8.477797500000005
    vertex 565.6568216093906 -605.095097031268 8.477797500000005
  endloop
endfacet
facet normal -6.617531172118547e-33 1.1760118047606793e-32 1.0
  outer loop
    vertex 565.6568216093906 -605.095097031268 8.477797500000005
    vertex 581.6845891093905 -620.617765031268 8.477797500000005
    vertex 566.2274716093905 -602.965307531268 8.477797500000005
  endloop
endfacet
facet normal -6.617531172118547e-33 1.1760118047606793e-32 1.0
  outer loop
    vertex 566.2274716093905 -602.965307531268 8.477797500000005
    vertex 581.6845891093905 -620.617765031268 8.477797500000005
    vertex 577.4647266093906 -611.285795031268 8.477797500000005
  endloop
endfacet
facet normal -6.617531172118547e-33 1.1760118047606793e-32 1.0
  outer loop
    vertex 566.2274716093905 -602.965307531268 8.477797500000005
    vertex 577.4647266093906 -611.285795031268 8.477797500000005
    vertex 575.2352491093906 -602.965307531268 8.477797500000005
  endloop
endfacet
facet normal -6.617531172118547e-33 1.1760118047606793e-32 1.0
  outer loop
    vertex 577.4647266093906 -611.285795031268 8.477797500000005
    vertex 581.6845891093905 -620.617765031268 8.477797500000005
    vertex 583.5557441093905 -617.376815031268 8.477797500000005
  endloop
endfacet
facet normal -6.617531172118547e-33 1.1760118047606793e-32 1.0
  outer loop
    vertex 583.5557441093905 -617.376815031268 8.477797500000005
    vertex 581.6845891093905 -620.617765031268 8.477797500000005
    vertex 591.8763618681905 -622.570735031268 8.477797500000005
  endloop
endfacet
facet normal -6.617531172118547e-33 1.1760118047606793e-32 1.0
  outer loop
    vertex 583.5557441093905 -617.376815031268 8.477797500000005
    vertex 591.8763618681905 -622.570735031268 8.477797500000005
    vertex 591.8763618681905 -619.606282531268 8.477797500000005
  endloop
endfacet
facet normal -6.617531172118547e-33 1.1760118047606793e-32 1.0
  outer loop
    vertex 591.8763618681905 -619.606282531268 8.477797500000005
    vertex 591.8763618681905 -622.570735031268 8.477797500000005
    vertex 602.0681341093906 -620.617765031268 8.477797500000005
  endloop
endfacet
facet normal -6.617531172118547e-33 1.1760118047606793e-32 1.0
  outer loop
    vertex 591.8763618681905 -619.606282531268 8.477797500000005
    vertex 602.0681341093906 -620.617765031268 8.477797500000005
    vertex 600.1969791093904 -617.376815031268 8.477797500000005
  endloop
endfacet
facet normal -6.617531172118547e-33 1.1760118047606793e-32 1.0
  outer loop
    vertex 600.1969791093904 -617.376815031268 8.477797500000005
    vertex 602.0681341093906 -620.617765031268 8.477797500000005
    vertex 606.2879991093905 -611.285795031268 8.477797500000005
  endloop
endfacet
facet normal -6.617531172118547e-33 1.1760118047606793e-32 1.0
  outer loop
    vertex 606.2879991093905 -611.285795031268 8.477797500000005
    vertex 602.0681341093906 -620.617765031268 8.477797500000005
    vertex 622.3774216093905 -612.828380031268 8.477797500000005
  endloop
endfacet
facet normal -6.617531172118547e-33 1.1760118047606793e-32 1.0
  outer loop
    vertex 606.2879991093905 -611.285795031268 8.477797500000005
    vertex 622.3774216093905 -612.828380031268 8.477797500000005
    vertex 608.5174741093905 -602.965307531268 8.477797500000005
  endloop
endfacet
facet normal -6.617531172118547e-33 1.1760118047606793e-32 1.0
  outer loop
    vertex 608.5174741093905 -602.965307531268 8.477797500000005
    vertex 622.3774216093905 -612.828380031268 8.477797500000005
    vertex 618.0958966093905 -605.095097031268 8.477797500000005
  endloop
endfacet
facet normal -6.617531172118547e-33 1.1760118047606793e-32 1.0
  outer loop
    vertex 608.5174741093905 -602.965307531268 8.477797500000005
    vertex 618.0958966093905 -605.095097031268 8.477797500000005
    vertex 617.5252466093906 -602.965307531268 8.477797500000005
  endloop
endfacet
facet normal -6.617531172118547e-33 1.1760118047606793e-32 1.0
  outer loop
    vertex 618.0958966093905 -605.095097031268 8.477797500000005
    vertex 622.3774216093905 -612.828380031268 8.477797500000005
    vertex 619.6550216093905 -606.654210031268 8.477797500000005
  endloop
endfacet
facet normal -6.617531172118547e-33 1.1760118047606793e-32 1.0
  outer loop
    vertex 619.6550216093905 -606.654210031268 8.477797500000005
    vertex 622.3774216093905 -612.828380031268 8.477797500000005
    vertex 621.7848216093905 -607.224885031268 8.477797500000005
  endloop
endfacet
facet normal -6.617531172118547e-33 1.1760118047606793e-32 1.0
  outer loop
    vertex 621.7848216093905 -607.224885031268 8.477797500000005
    vertex 622.3774216093905 -612.828380031268 8.477797500000005
    vertex 623.9145966093905 -606.654210031268 8.477797500000005
  endloop
endfacet
facet normal -6.617531172118547e-33 1.1760118047606793e-32 1.0
  outer loop
    vertex 623.9145966093905 -606.654210031268 8.477797500000005
    vertex 622.3774216093905 -612.828380031268 8.477797500000005
    vertex 626.4814216093905 -611.100082531268 8.477797500000005
  endloop
endfacet
facet normal -6.617531172118547e-33 1.1760118047606793e-32 1.0
  outer loop
    vertex 623.9145966093905 -606.654210031268 8.477797500000005
    vertex 626.4814216093905 -611.100082531268 8.477797500000005
    vertex 625.4737216093905 -605.095096781268 8.477797500000005
  endloop
endfacet
facet normal -6.617531172118547e-33 1.1760118047606793e-32 1.0
  outer loop
    vertex 625.4737216093905 -605.095096781268 8.477797500000005
    vertex 626.4814216093905 -611.100082531268 8.477797500000005
    vertex 626.0443966093906 -602.965307531268 8.477797500000005
  endloop
endfacet
facet normal -6.617531172118547e-33 1.1760118047606793e-32 1.0
  outer loop
    vertex 557.2712966093904 -594.830532531268 8.477797500000005
    vertex 558.2790216093905 -600.8355182812679 8.477797500000005
    vertex 561.3752966093905 -593.1022350312679 8.477797500000005
  endloop
endfacet
facet normal -6.617531172118547e-33 1.1760118047606793e-32 1.0
  outer loop
    vertex 558.2790216093905 -600.8355182812679 8.477797500000005
    vertex 557.2712966093904 -594.830532531268 8.477797500000005
    vertex 557.7083216093905 -602.965307531268 8.477797500000005
  endloop
endfacet
facet normal -6.617531172118547e-33 1.1760118047606793e-32 1.0
  outer loop
    vertex 561.3752966093905 -593.1022350312679 8.477797500000005
    vertex 558.2790216093905 -600.8355182812679 8.477797500000005
    vertex 559.8381216093906 -599.276405031268 8.477797500000005
  endloop
endfacet
facet normal -6.617531172118547e-33 1.1760118047606793e-32 1.0
  outer loop
    vertex 561.3752966093905 -593.1022350312679 8.477797500000005
    vertex 559.8381216093906 -599.276405031268 8.477797500000005
    vertex 561.9679216093905 -598.705730031268 8.477797500000005
  endloop
endfacet
facet normal -6.617531172118547e-33 1.1760118047606793e-32 1.0
  outer loop
    vertex 561.3752966093905 -593.1022350312679 8.477797500000005
    vertex 561.9679216093905 -598.705730031268 8.477797500000005
    vertex 581.6845891093905 -585.312850031268 8.477797500000005
  endloop
endfacet
facet normal -6.617531172118547e-33 1.1760118047606793e-32 1.0
  outer loop
    vertex 581.6845891093905 -585.312850031268 8.477797500000005
    vertex 561.9679216093905 -598.705730031268 8.477797500000005
    vertex 564.0976966093905 -599.276405031268 8.477797500000005
  endloop
endfacet
facet normal -6.617531172118547e-33 1.1760118047606793e-32 1.0
  outer loop
    vertex 581.6845891093905 -585.312850031268 8.477797500000005
    vertex 564.0976966093905 -599.276405031268 8.477797500000005
    vertex 565.6568216093906 -600.835518031268 8.477797500000005
  endloop
endfacet
facet normal -6.617531172118547e-33 1.1760118047606793e-32 1.0
  outer loop
    vertex 581.6845891093905 -585.312850031268 8.477797500000005
    vertex 565.6568216093906 -600.835518031268 8.477797500000005
    vertex 566.2274716093905 -602.965307531268 8.477797500000005
  endloop
endfacet
facet normal -6.617531172118547e-33 1.1760118047606793e-32 1.0
  outer loop
    vertex 581.6845891093905 -585.312850031268 8.477797500000005
    vertex 566.2274716093905 -602.965307531268 8.477797500000005
    vertex 577.4647266093906 -594.644820031268 8.477797500000005
  endloop
endfacet
facet normal -6.617531172118547e-33 1.1760118047606793e-32 1.0
  outer loop
    vertex 577.4647266093906 -594.644820031268 8.477797500000005
    vertex 566.2274716093905 -602.965307531268 8.477797500000005
    vertex 575.2352491093906 -602.965307531268 8.477797500000005
  endloop
endfacet
facet normal -6.617531172118547e-33 1.1760118047606793e-32 1.0
  outer loop
    vertex 581.6845891093905 -585.312850031268 8.477797500000005
    vertex 577.4647266093906 -594.644820031268 8.477797500000005
    vertex 583.5557441093905 -588.553800031268 8.477797500000005
  endloop
endfacet
facet normal -6.617531172118547e-33 1.1760118047606793e-32 1.0
  outer loop
    vertex 581.6845891093905 -585.312850031268 8.477797500000005
    vertex 583.5557441093905 -588.553800031268 8.477797500000005
    vertex 591.8763618681905 -583.3598800312681 8.477797500000005
  endloop
endfacet
facet normal -6.617531172118547e-33 1.1760118047606793e-32 1.0
  outer loop
    vertex 591.8763618681905 -583.3598800312681 8.477797500000005
    vertex 583.5557441093905 -588.553800031268 8.477797500000005
    vertex 591.8763618681905 -586.3243325312679 8.477797500000005
  endloop
endfacet
facet normal -6.617531172118547e-33 1.1760118047606793e-32 1.0
  outer loop
    vertex 591.8763618681905 -583.3598800312681 8.477797500000005
    vertex 591.8763618681905 -586.3243325312679 8.477797500000005
    vertex 600.1969791093904 -588.553800031268 8.477797500000005
  endloop
endfacet
facet normal -6.617531172118547e-33 1.1760118047606793e-32 1.0
  outer loop
    vertex 591.8763618681905 -583.3598800312681 8.477797500000005
    vertex 600.1969791093904 -588.553800031268 8.477797500000005
    vertex 602.0681341093906 -585.312850031268 8.477797500000005
  endloop
endfacet
facet normal -6.617531172118547e-33 1.1760118047606793e-32 1.0
  outer loop
    vertex 602.0681341093906 -585.312850031268 8.477797500000005
    vertex 600.1969791093904 -588.553800031268 8.477797500000005
    vertex 606.2879991093905 -594.644820031268 8.477797500000005
  endloop
endfacet
facet normal -6.617531172118547e-33 1.1760118047606793e-32 1.0
  outer loop
    vertex 602.0681341093906 -585.312850031268 8.477797500000005
    vertex 606.2879991093905 -594.644820031268 8.477797500000005
    vertex 622.3774216093905 -593.1022350312679 8.477797500000005
  endloop
endfacet
facet normal -6.617531172118547e-33 1.1760118047606793e-32 1.0
  outer loop
    vertex 622.3774216093905 -593.1022350312679 8.477797500000005
    vertex 606.2879991093905 -594.644820031268 8.477797500000005
    vertex 608.5174741093905 -602.965307531268 8.477797500000005
  endloop
endfacet
facet normal -6.617531172118547e-33 1.1760118047606793e-32 1.0
  outer loop
    vertex 622.3774216093905 -593.1022350312679 8.477797500000005
    vertex 608.5174741093905 -602.965307531268 8.477797500000005
    vertex 618.0958966093905 -600.835518031268 8.477797500000005
  endloop
endfacet
facet normal -6.617531172118547e-33 1.1760118047606793e-32 1.0
  outer loop
    vertex 618.0958966093905 -600.835518031268 8.477797500000005
    vertex 608.5174741093905 -602.965307531268 8.477797500000005
    vertex 617.5252466093906 -602.965307531268 8.477797500000005
  endloop
endfacet
facet normal -6.617531172118547e-33 1.1760118047606793e-32 1.0
  outer loop
    vertex 622.3774216093905 -593.1022350312679 8.477797500000005
    vertex 618.0958966093905 -600.835518031268 8.477797500000005
    vertex 619.6550216093905 -599.276405031268 8.477797500000005
  endloop
endfacet
facet normal -6.617531172118547e-33 1.1760118047606793e-32 1.0
  outer loop
    vertex 622.3774216093905 -593.1022350312679 8.477797500000005
    vertex 619.6550216093905 -599.276405031268 8.477797500000005
    vertex 621.7848216093905 -598.705730031268 8.477797500000005
  endloop
endfacet
facet normal -6.617531172118547e-33 1.1760118047606793e-32 1.0
  outer loop
    vertex 622.3774216093905 -593.1022350312679 8.477797500000005
    vertex 621.7848216093905 -598.705730031268 8.477797500000005
    vertex 623.9145966093905 -599.276405031268 8.477797500000005
  endloop
endfacet
facet normal -6.617531172118547e-33 1.1760118047606793e-32 1.0
  outer loop
    vertex 622.3774216093905 -593.1022350312679 8.477797500000005
    vertex 623.9145966093905 -599.276405031268 8.477797500000005
    vertex 626.4814216093905 -594.830532531268 8.477797500000005
  endloop
endfacet
facet normal -6.617531172118547e-33 1.1760118047606793e-32 1.0
  outer loop
    vertex 626.4814216093905 -594.830532531268 8.477797500000005
    vertex 623.9145966093905 -599.276405031268 8.477797500000005
    vertex 625.4737216093905 -600.8355182812679 8.477797500000005
  endloop
endfacet
facet normal -6.617531172118547e-33 1.1760118047606793e-32 1.0
  outer loop
    vertex 626.4814216093905 -594.830532531268 8.477797500000005
    vertex 625.4737216093905 -600.8355182812679 8.477797500000005
    vertex 626.0443966093906 -602.965307531268 8.477797500000005
  endloop
endfacet
facet normal -6.617531172118547e-33 1.1760118047606793e-32 1.0
  outer loop
    vertex 626.4814216093905 -594.830532531268 8.477797500000005
    vertex 626.0443966093906 -602.965307531268 8.477797500000005
    vertex 626.4814216093905 -611.100082531268 8.477797500000005
  endloop
endfacet
facet normal -6.617531172118547e-33 1.1760118047606793e-32 1.0
  outer loop
    vertex 626.4814216093905 -594.830532531268 8.477797500000005
    vertex 626.4814216093905 -611.100082531268 8.477797500000005
    vertex 629.9195716093906 -607.661922531268 8.477797500000005
  endloop
endfacet
facet normal -6.617531172118547e-33 1.1760118047606793e-32 1.0
  outer loop
    vertex 626.4814216093905 -594.830532531268 8.477797500000005
    vertex 629.9195716093906 -607.661922531268 8.477797500000005
    vertex 629.9195716093906 -598.268692531268 8.477797500000005
  endloop
endfacet
facet normal -6.617531172118547e-33 1.1760118047606793e-32 1.0
  outer loop
    vertex 629.9195716093906 -598.268692531268 8.477797500000005
    vertex 629.9195716093906 -607.661922531268 8.477797500000005
    vertex 631.1780216093905 -602.965307531268 8.477797500000005
  endloop
endfacet
facet normal -0.7071067811865476 -0.7071067811865475 0.0
  outer loop
    vertex 600.1969791093904 -588.553800031268 8.477797500000005
    vertex 606.2879991093905 -594.644820031268 0.0
    vertex 606.2879991093905 -594.644820031268 8.477797500000005
  endloop
endfacet
facet normal -0.7071067811865476 -0.7071067811865475 0.0
  outer loop
    vertex 606.2879991093905 -594.644820031268 0.0
    vertex 600.1969791093904 -588.553800031268 8.477797500000005
    vertex 600.1969791093904 -588.553800031268 0.0
  endloop
endfacet
facet normal 0.0 0.0 -1.0
  outer loop
    vertex 553.8331466093905 -598.268692531268 0.0
    vertex 553.8331466093905 -607.661922531268 0.0
    vertex 552.5746716093905 -602.965307531268 0.0
  endloop
endfacet
facet normal 0.0 0.0 -1.0
  outer loop
    vertex 553.8331466093905 -607.661922531268 0.0
    vertex 553.8331466093905 -598.268692531268 0.0
    vertex 557.2712966093904 -594.830532531268 0.0
  endloop
endfacet
facet normal 0.0 0.0 -1.0
  outer loop
    vertex 553.8331466093905 -607.661922531268 0.0
    vertex 557.2712966093904 -594.830532531268 0.0
    vertex 557.2712966093904 -611.100082531268 0.0
  endloop
endfacet
facet normal 0.0 0.0 -1.0
  outer loop
    vertex 557.2712966093904 -611.100082531268 0.0
    vertex 557.2712966093904 -594.830532531268 0.0
    vertex 557.7083216093905 -602.965307531268 0.0
  endloop
endfacet
facet normal 0.0 0.0 -1.0
  outer loop
    vertex 557.7083216093905 -602.965307531268 0.0
    vertex 557.2712966093904 -594.830532531268 0.0
    vertex 558.2790216093905 -600.8355182812679 0.0
  endloop
endfacet
facet normal 0.0 0.0 -1.0
  outer loop
    vertex 558.2790216093905 -600.8355182812679 0.0
    vertex 557.2712966093904 -594.830532531268 0.0
    vertex 561.3752966093905 -593.1022350312679 0.0
  endloop
endfacet
facet normal 0.0 0.0 -1.0
  outer loop
    vertex 558.2790216093905 -600.8355182812679 0.0
    vertex 561.3752966093905 -593.1022350312679 0.0
    vertex 559.8381216093906 -599.276405031268 0.0
  endloop
endfacet
facet normal 0.0 0.0 -1.0
  outer loop
    vertex 559.8381216093906 -599.276405031268 0.0
    vertex 561.3752966093905 -593.1022350312679 0.0
    vertex 561.9679216093905 -598.705730031268 0.0
  endloop
endfacet
facet normal 0.0 0.0 -1.0
  outer loop
    vertex 561.9679216093905 -598.705730031268 0.0
    vertex 561.3752966093905 -593.1022350312679 0.0
    vertex 581.6845891093905 -585.312850031268 0.0
  endloop
endfacet
facet normal 0.0 0.0 -1.0
  outer loop
    vertex 561.9679216093905 -598.705730031268 0.0
    vertex 581.6845891093905 -585.312850031268 0.0
    vertex 564.0976966093905 -599.276405031268 0.0
  endloop
endfacet
facet normal 0.0 0.0 -1.0
  outer loop
    vertex 564.0976966093905 -599.276405031268 0.0
    vertex 581.6845891093905 -585.312850031268 0.0
    vertex 565.6568216093906 -600.835518031268 0.0
  endloop
endfacet
facet normal 0.0 0.0 -1.0
  outer loop
    vertex 565.6568216093906 -600.835518031268 0.0
    vertex 581.6845891093905 -585.312850031268 0.0
    vertex 566.2274716093905 -602.965307531268 0.0
  endloop
endfacet
facet normal 0.0 0.0 -1.0
  outer loop
    vertex 566.2274716093905 -602.965307531268 0.0
    vertex 581.6845891093905 -585.312850031268 0.0
    vertex 577.4647266093906 -594.644820031268 0.0
  endloop
endfacet
facet normal 0.0 0.0 -1.0
  outer loop
    vertex 566.2274716093905 -602.965307531268 0.0
    vertex 577.4647266093906 -594.644820031268 0.0
    vertex 575.2352491093906 -602.965307531268 0.0
  endloop
endfacet
facet normal 0.0 0.0 -1.0
  outer loop
    vertex 577.4647266093906 -594.644820031268 0.0
    vertex 581.6845891093905 -585.312850031268 0.0
    vertex 583.5557441093905 -588.553800031268 0.0
  endloop
endfacet
facet normal 0.0 0.0 -1.0
  outer loop
    vertex 583.5557441093905 -588.553800031268 0.0
    vertex 581.6845891093905 -585.312850031268 0.0
    vertex 591.8763618681905 -583.3598800312681 0.0
  endloop
endfacet
facet normal 0.0 0.0 -1.0
  outer loop
    vertex 583.5557441093905 -588.553800031268 0.0
    vertex 591.8763618681905 -583.3598800312681 0.0
    vertex 591.8763618681905 -586.3243325312679 0.0
  endloop
endfacet
facet normal 0.0 0.0 -1.0
  outer loop
    vertex 591.8763618681905 -586.3243325312679 0.0
    vertex 591.8763618681905 -583.3598800312681 0.0
    vertex 602.0681341093906 -585.312850031268 0.0
  endloop
endfacet
facet normal 0.0 0.0 -1.0
  outer loop
    vertex 591.8763618681905 -586.3243325312679 0.0
    vertex 602.0681341093906 -585.312850031268 0.0
    vertex 600.1969791093904 -588.553800031268 0.0
  endloop
endfacet
facet normal 0.0 0.0 -1.0
  outer loop
    vertex 600.1969791093904 -588.553800031268 0.0
    vertex 602.0681341093906 -585.312850031268 0.0
    vertex 606.2879991093905 -594.644820031268 0.0
  endloop
endfacet
facet normal 0.0 0.0 -1.0
  outer loop
    vertex 606.2879991093905 -594.644820031268 0.0
    vertex 602.0681341093906 -585.312850031268 0.0
    vertex 622.3774216093905 -593.1022350312679 0.0
  endloop
endfacet
facet normal 0.0 0.0 -1.0
  outer loop
    vertex 606.2879991093905 -594.644820031268 0.0
    vertex 622.3774216093905 -593.1022350312679 0.0
    vertex 608.5174741093905 -602.965307531268 0.0
  endloop
endfacet
facet normal 0.0 0.0 -1.0
  outer loop
    vertex 608.5174741093905 -602.965307531268 0.0
    vertex 622.3774216093905 -593.1022350312679 0.0
    vertex 618.0958966093905 -600.835518031268 0.0
  endloop
endfacet
facet normal 0.0 0.0 -1.0
  outer loop
    vertex 608.5174741093905 -602.965307531268 0.0
    vertex 618.0958966093905 -600.835518031268 0.0
    vertex 617.5252466093906 -602.965307531268 0.0
  endloop
endfacet
facet normal 0.0 0.0 -1.0
  outer loop
    vertex 618.0958966093905 -600.835518031268 0.0
    vertex 622.3774216093905 -593.1022350312679 0.0
    vertex 619.6550216093905 -599.276405031268 0.0
  endloop
endfacet
facet normal 0.0 0.0 -1.0
  outer loop
    vertex 619.6550216093905 -599.276405031268 0.0
    vertex 622.3774216093905 -593.1022350312679 0.0
    vertex 621.7848216093905 -598.705730031268 0.0
  endloop
endfacet
facet normal 0.0 0.0 -1.0
  outer loop
    vertex 621.7848216093905 -598.705730031268 0.0
    vertex 622.3774216093905 -593.1022350312679 0.0
    vertex 623.9145966093905 -599.276405031268 0.0
  endloop
endfacet
facet normal 0.0 0.0 -1.0
  outer loop
    vertex 623.9145966093905 -599.276405031268 0.0
    vertex 622.3774216093905 -593.1022350312679 0.0
    vertex 626.4814216093905 -594.830532531268 0.0
  endloop
endfacet
facet normal 0.0 0.0 -1.0
  outer loop
    vertex 623.9145966093905 -599.276405031268 0.0
    vertex 626.4814216093905 -594.830532531268 0.0
    vertex 625.4737216093905 -600.8355182812679 0.0
  endloop
endfacet
facet normal 0.0 0.0 -1.0
  outer loop
    vertex 625.4737216093905 -600.8355182812679 0.0
    vertex 626.4814216093905 -594.830532531268 0.0
    vertex 626.0443966093906 -602.965307531268 0.0
  endloop
endfacet
facet normal 0.0 0.0 -1.0
  outer loop
    vertex 557.2712966093904 -611.100082531268 0.0
    vertex 558.2790216093905 -605.095096781268 0.0
    vertex 561.3752966093905 -612.828380031268 0.0
  endloop
endfacet
facet normal 0.0 0.0 -1.0
  outer loop
    vertex 558.2790216093905 -605.095096781268 0.0
    vertex 557.2712966093904 -611.100082531268 0.0
    vertex 557.7083216093905 -602.965307531268 0.0
  endloop
endfacet
facet normal 0.0 0.0 -1.0
  outer loop
    vertex 561.3752966093905 -612.828380031268 0.0
    vertex 558.2790216093905 -605.095096781268 0.0
    vertex 559.8381216093906 -606.654210031268 0.0
  endloop
endfacet
facet normal 0.0 0.0 -1.0
  outer loop
    vertex 561.3752966093905 -612.828380031268 0.0
    vertex 559.8381216093906 -606.654210031268 0.0
    vertex 561.9679216093905 -607.224885031268 0.0
  endloop
endfacet
facet normal 0.0 0.0 -1.0
  outer loop
    vertex 561.3752966093905 -612.828380031268 0.0
    vertex 561.9679216093905 -607.224885031268 0.0
    vertex 581.6845891093905 -620.617765031268 0.0
  endloop
endfacet
facet normal 0.0 0.0 -1.0
  outer loop
    vertex 581.6845891093905 -620.617765031268 0.0
    vertex 561.9679216093905 -607.224885031268 0.0
    vertex 564.0976966093905 -606.654210031268 0.0
  endloop
endfacet
facet normal 0.0 0.0 -1.0
  outer loop
    vertex 581.6845891093905 -620.617765031268 0.0
    vertex 564.0976966093905 -606.654210031268 0.0
    vertex 565.6568216093906 -605.095097031268 0.0
  endloop
endfacet
facet normal 0.0 0.0 -1.0
  outer loop
    vertex 581.6845891093905 -620.617765031268 0.0
    vertex 565.6568216093906 -605.095097031268 0.0
    vertex 566.2274716093905 -602.965307531268 0.0
  endloop
endfacet
facet normal 0.0 0.0 -1.0
  outer loop
    vertex 581.6845891093905 -620.617765031268 0.0
    vertex 566.2274716093905 -602.965307531268 0.0
    vertex 577.4647266093906 -611.285795031268 0.0
  endloop
endfacet
facet normal 0.0 0.0 -1.0
  outer loop
    vertex 577.4647266093906 -611.285795031268 0.0
    vertex 566.2274716093905 -602.965307531268 0.0
    vertex 575.2352491093906 -602.965307531268 0.0
  endloop
endfacet
facet normal 0.0 0.0 -1.0
  outer loop
    vertex 581.6845891093905 -620.617765031268 0.0
    vertex 577.4647266093906 -611.285795031268 0.0
    vertex 583.5557441093905 -617.376815031268 0.0
  endloop
endfacet
facet normal 0.0 0.0 -1.0
  outer loop
    vertex 581.6845891093905 -620.617765031268 0.0
    vertex 583.5557441093905 -617.376815031268 0.0
    vertex 591.8763618681905 -622.570735031268 0.0
  endloop
endfacet
facet normal 0.0 0.0 -1.0
  outer loop
    vertex 591.8763618681905 -622.570735031268 0.0
    vertex 583.5557441093905 -617.376815031268 0.0
    vertex 591.8763618681905 -619.606282531268 0.0
  endloop
endfacet
facet normal 0.0 0.0 -1.0
  outer loop
    vertex 591.8763618681905 -622.570735031268 0.0
    vertex 591.8763618681905 -619.606282531268 0.0
    vertex 600.1969791093904 -617.376815031268 0.0
  endloop
endfacet
facet normal 0.0 0.0 -1.0
  outer loop
    vertex 591.8763618681905 -622.570735031268 0.0
    vertex 600.1969791093904 -617.376815031268 0.0
    vertex 602.0681341093906 -620.617765031268 0.0
  endloop
endfacet
facet normal 0.0 0.0 -1.0
  outer loop
    vertex 602.0681341093906 -620.617765031268 0.0
    vertex 600.1969791093904 -617.376815031268 0.0
    vertex 606.2879991093905 -611.285795031268 0.0
  endloop
endfacet
facet normal 0.0 0.0 -1.0
  outer loop
    vertex 602.0681341093906 -620.617765031268 0.0
    vertex 606.2879991093905 -611.285795031268 0.0
    vertex 622.3774216093905 -612.828380031268 0.0
  endloop
endfacet
facet normal 0.0 0.0 -1.0
  outer loop
    vertex 622.3774216093905 -612.828380031268 0.0
    vertex 606.2879991093905 -611.285795031268 0.0
    vertex 608.5174741093905 -602.965307531268 0.0
  endloop
endfacet
facet normal 0.0 0.0 -1.0
  outer loop
    vertex 622.3774216093905 -612.828380031268 0.0
    vertex 608.5174741093905 -602.965307531268 0.0
    vertex 618.0958966093905 -605.095097031268 0.0
  endloop
endfacet
facet normal 0.0 0.0 -1.0
  outer loop
    vertex 618.0958966093905 -605.095097031268 0.0
    vertex 608.5174741093905 -602.965307531268 0.0
    vertex 617.5252466093906 -602.965307531268 0.0
  endloop
endfacet
facet normal 0.0 0.0 -1.0
  outer loop
    vertex 622.3774216093905 -612.828380031268 0.0
    vertex 618.0958966093905 -605.095097031268 0.0
    vertex 619.6550216093905 -606.654210031268 0.0
  endloop
endfacet
facet normal 0.0 0.0 -1.0
  outer loop
    vertex 622.3774216093905 -612.828380031268 0.0
    vertex 619.6550216093905 -606.654210031268 0.0
    vertex 621.7848216093905 -607.224885031268 0.0
  endloop
endfacet
facet normal 0.0 0.0 -1.0
  outer loop
    vertex 622.3774216093905 -612.828380031268 0.0
    vertex 621.7848216093905 -607.224885031268 0.0
    vertex 623.9145966093905 -606.654210031268 0.0
  endloop
endfacet
facet normal 0.0 0.0 -1.0
  outer loop
    vertex 622.3774216093905 -612.828380031268 0.0
    vertex 623.9145966093905 -606.654210031268 0.0
    vertex 626.4814216093905 -611.100082531268 0.0
  endloop
endfacet
facet normal 0.0 0.0 -1.0
  outer loop
    vertex 626.4814216093905 -611.100082531268 0.0
    vertex 623.9145966093905 -606.654210031268 0.0
    vertex 625.4737216093905 -605.095096781268 0.0
  endloop
endfacet
facet normal 0.0 0.0 -1.0
  outer loop
    vertex 626.4814216093905 -611.100082531268 0.0
    vertex 625.4737216093905 -605.095096781268 0.0
    vertex 626.0443966093906 -602.965307531268 0.0
  endloop
endfacet
facet normal 0.0 0.0 -1.0
  outer loop
    vertex 626.4814216093905 -611.100082531268 0.0
    vertex 626.0443966093906 -602.965307531268 0.0
    vertex 626.4814216093905 -594.830532531268 0.0
  endloop
endfacet
facet normal 0.0 0.0 -1.0
  outer loop
    vertex 626.4814216093905 -611.100082531268 0.0
    vertex 626.4814216093905 -594.830532531268 0.0
    vertex 629.9195716093906 -598.268692531268 0.0
  endloop
endfacet
facet normal 0.0 0.0 -1.0
  outer loop
    vertex 626.4814216093905 -611.100082531268 0.0
    vertex 629.9195716093906 -598.268692531268 0.0
    vertex 629.9195716093906 -607.661922531268 0.0
  endloop
endfacet
facet normal 0.0 0.0 -1.0
  outer loop
    vertex 629.9195716093906 -607.661922531268 0.0
    vertex 629.9195716093906 -598.268692531268 0.0
    vertex 631.1780216093905 -602.965307531268 0.0
  endloop
endfacet
facet normal -0.25881523573696896 -0.9659268469974407 0.0
  outer loop
    vertex 600.1969791093904 -588.553800031268 8.477797500000005
    vertex 591.8763618681905 -586.3243325312679 0.0
    vertex 600.1969791093904 -588.553800031268 0.0
  endloop
endfacet
facet normal -0.25881523573696896 -0.9659268469974407 0.0
  outer loop
    vertex 591.8763618681905 -586.3243325312679 0.0
    vertex 600.1969791093904 -588.553800031268 8.477797500000005
    vertex 591.8763618681905 -586.3243325312679 8.477797500000005
  endloop
endfacet
facet normal 0.9659260420516599 0.25881823986422386 0.0
  outer loop
    vertex 629.9195716093906 -598.268692531268 0.0
    vertex 631.1780216093905 -602.965307531268 8.477797500000005
    vertex 631.1780216093905 -602.965307531268 0.0
  endloop
endfacet
facet normal 0.9659260420516599 0.25881823986422386 0.0
  outer loop
    vertex 631.1780216093905 -602.965307531268 8.477797500000005
    vertex 629.9195716093906 -598.268692531268 0.0
    vertex 629.9195716093906 -598.268692531268 8.477797500000005
  endloop
endfacet
facet normal -0.9659258613907848 -0.25881891410109625 0.0
  outer loop
    vertex 625.4737216093905 -600.8355182812679 8.477797500000005
    vertex 626.0443966093906 -602.965307531268 0.0
    vertex 626.0443966093906 -602.965307531268 8.477797500000005
  endloop
endfacet
facet normal -0.9659258613907848 -0.25881891410109625 0.0
  outer loop
    vertex 626.0443966093906 -602.965307531268 0.0
    vertex 625.4737216093905 -600.8355182812679 8.477797500000005
    vertex 625.4737216093905 -600.8355182812679 0.0
  endloop
endfacet
facet normal 0.7071078095088114 0.7071057528627882 0.0
  outer loop
    vertex 626.4814216093905 -594.830532531268 0.0
    vertex 629.9195716093906 -598.268692531268 8.477797500000005
    vertex 629.9195716093906 -598.268692531268 0.0
  endloop
endfacet
facet normal 0.7071078095088114 0.7071057528627882 0.0
  outer loop
    vertex 629.9195716093906 -598.268692531268 8.477797500000005
    vertex 626.4814216093905 -594.830532531268 0.0
    vertex 626.4814216093905 -594.830532531268 8.477797500000005
  endloop
endfacet
facet normal -0.7071041166947204 -0.7071094456683344 0.0
  outer loop
    vertex 625.4737216093905 -600.8355182812679 8.477797500000005
    vertex 623.9145966093905 -599.276405031268 0.0
    vertex 625.4737216093905 -600.8355182812679 0.0
  endloop
endfacet
facet normal -0.7071041166947204 -0.7071094456683344 0.0
  outer loop
    vertex 623.9145966093905 -599.276405031268 0.0
    vertex 625.4737216093905 -600.8355182812679 8.477797500000005
    vertex 623.9145966093905 -599.276405031268 8.477797500000005
  endloop
endfacet
facet normal -0.25882052981493864 -0.9659254284603521 0.0
  outer loop
    vertex 623.9145966093905 -599.276405031268 8.477797500000005
    vertex 621.7848216093905 -598.705730031268 0.0
    vertex 623.9145966093905 -599.276405031268 0.0
  endloop
endfacet
facet normal -0.25882052981493864 -0.9659254284603521 0.0
  outer loop
    vertex 621.7848216093905 -598.705730031268 0.0
    vertex 623.9145966093905 -599.276405031268 8.477797500000005
    vertex 621.7848216093905 -598.705730031268 8.477797500000005
  endloop
endfacet
facet normal 0.2588176952421177 -0.9659261879820623 0.0
  outer loop
    vertex 621.7848216093905 -598.705730031268 8.477797500000005
    vertex 619.6550216093905 -599.276405031268 0.0
    vertex 621.7848216093905 -598.705730031268 0.0
  endloop
endfacet
facet normal 0.2588176952421177 -0.9659261879820623 0.0
  outer loop
    vertex 619.6550216093905 -599.276405031268 0.0
    vertex 621.7848216093905 -598.705730031268 8.477797500000005
    vertex 619.6550216093905 -599.276405031268 8.477797500000005
  endloop
endfacet
facet normal 0.707104060003079 -0.7071095023595441 0.0
  outer loop
    vertex 619.6550216093905 -599.276405031268 8.477797500000005
    vertex 618.0958966093905 -600.835518031268 0.0
    vertex 619.6550216093905 -599.276405031268 0.0
  endloop
endfacet
facet normal 0.707104060003079 -0.7071095023595441 0.0
  outer loop
    vertex 618.0958966093905 -600.835518031268 0.0
    vertex 619.6550216093905 -599.276405031268 8.477797500000005
    vertex 618.0958966093905 -600.835518031268 8.477797500000005
  endloop
endfacet
facet normal 0.9659287035044041 -0.2588083069499535 0.0
  outer loop
    vertex 618.0958966093905 -600.835518031268 0.0
    vertex 617.5252466093906 -602.965307531268 8.477797500000005
    vertex 617.5252466093906 -602.965307531268 0.0
  endloop
endfacet
facet normal 0.9659287035044041 -0.2588083069499535 0.0
  outer loop
    vertex 617.5252466093906 -602.965307531268 8.477797500000005
    vertex 618.0958966093905 -600.835518031268 0.0
    vertex 618.0958966093905 -600.835518031268 8.477797500000005
  endloop
endfacet
facet normal 0.3581026767441682 0.9336822119482957 0.0
  outer loop
    vertex 602.0681341093906 -585.312850031268 8.477797500000005
    vertex 622.3774216093905 -593.1022350312679 0.0
    vertex 602.0681341093906 -585.312850031268 0.0
  endloop
endfacet
facet normal 0.3581026767441682 0.9336822119482957 0.0
  outer loop
    vertex 622.3774216093905 -593.1022350312679 0.0
    vertex 602.0681341093906 -585.312850031268 8.477797500000005
    vertex 622.3774216093905 -593.1022350312679 8.477797500000005
  endloop
endfacet
facet normal 0.18819813602483254 0.9821310816773791 0.0
  outer loop
    vertex 591.8763618681905 -583.3598800312681 8.477797500000005
    vertex 602.0681341093906 -585.312850031268 0.0
    vertex 591.8763618681905 -583.3598800312681 0.0
  endloop
endfacet
facet normal 0.18819813602483254 0.9821310816773791 0.0
  outer loop
    vertex 602.0681341093906 -585.312850031268 0.0
    vertex 591.8763618681905 -583.3598800312681 8.477797500000005
    vertex 602.0681341093906 -585.312850031268 8.477797500000005
  endloop
endfacet
facet normal 0.38811374669606036 0.9216114797600702 0.0
  outer loop
    vertex 622.3774216093905 -593.1022350312679 8.477797500000005
    vertex 626.4814216093905 -594.830532531268 0.0
    vertex 622.3774216093905 -593.1022350312679 0.0
  endloop
endfacet
facet normal 0.38811374669606036 0.9216114797600702 0.0
  outer loop
    vertex 626.4814216093905 -594.830532531268 0.0
    vertex 622.3774216093905 -593.1022350312679 8.477797500000005
    vertex 626.4814216093905 -594.830532531268 8.477797500000005
  endloop
endfacet
endsolid Untitled-58c1b44a
