solid Untitled-58c1cad8
facet normal 0.1305247571037707 -0.9914450503093966 0.0
  outer loop
    vertex 610.1983220508534 -272.85881553745 11.776412500000005
    vertex 605.9266120508535 -273.42119053745006 0.0
    vertex 610.1983220508534 -272.85881553745 0.0
  endloop
endfacet
facet normal 0.1305247571037707 -0.9914450503093966 0.0
  outer loop
    vertex 605.9266120508535 -273.42119053745006 0.0
    vertex 610.1983220508534 -272.85881553745 11.776412500000005
    vertex 605.9266120508535 -273.42119053745006 11.776412500000005
  endloop
endfacet
facet normal 0.3826822932447836 -0.9238800043495442 0.0
  outer loop
    vertex 619.1200170508536 -262.23786553745003 11.776412500000005
    vertex 611.3139320508535 -265.47124053745006 0.0
    vertex 619.1200170508536 -262.23786553745003 0.0
  endloop
endfacet
facet normal 0.3826822932447836 -0.9238800043495442 0.0
  outer loop
    vertex 611.3139320508535 -265.47124053745006 0.0
    vertex 619.1200170508536 -262.23786553745003 11.776412500000005
    vertex 611.3139320508535 -265.47124053745006 11.776412500000005
  endloop
endfacet
facet normal 0.6087614100005424 -0.793353354876723 0.0
  outer loop
    vertex 628.5509045508535 -264.0499155374501 11.776412500000005
    vertex 625.1326745508535 -266.67281553745005 0.0
    vertex 628.5509045508535 -264.0499155374501 0.0
  endloop
endfacet
facet normal 0.6087614100005424 -0.793353354876723 0.0
  outer loop
    vertex 625.1326745508535 -266.67281553745005 0.0
    vertex 628.5509045508535 -264.0499155374501 11.776412500000005
    vertex 625.1326745508535 -266.67281553745005 11.776412500000005
  endloop
endfacet
facet normal 0.7933532329589812 -0.6087615688868121 0.0
  outer loop
    vertex 630.9668295508535 -250.39104803745005 0.0
    vertex 625.8232545508534 -257.09428303745005 11.776412500000005
    vertex 625.8232545508534 -257.09428303745005 0.0
  endloop
endfacet
facet normal 0.7933532329589812 -0.6087615688868121 0.0
  outer loop
    vertex 625.8232545508534 -257.09428303745005 11.776412500000005
    vertex 630.9668295508535 -250.39104803745005 0.0
    vertex 630.9668295508535 -250.39104803745005 11.776412500000005
  endloop
endfacet
facet normal 0.9238810511063288 -0.38267976613176913 0.0
  outer loop
    vertex 640.0402295508535 -247.24490303745006 0.0
    vertex 638.3914295508536 -251.22550303745007 11.776412500000005
    vertex 638.3914295508536 -251.22550303745007 0.0
  endloop
endfacet
facet normal 0.9238810511063288 -0.38267976613176913 0.0
  outer loop
    vertex 638.3914295508536 -251.22550303745007 11.776412500000005
    vertex 640.0402295508535 -247.24490303745006 0.0
    vertex 640.0402295508535 -247.24490303745006 11.776412500000005
  endloop
endfacet
facet normal 0.991444836114231 -0.13052638408546374 -4.11739677444629e-18
  outer loop
    vertex 635.3030795508535 -234.20800314127504 0.0
    vertex 634.2002295508535 -242.58496803745004 11.776412500000005
    vertex 634.2002295508535 -242.58496803745004 0.0
  endloop
endfacet
facet normal 0.991444836114231 -0.13052638408546374 -4.11739677444629e-18
  outer loop
    vertex 634.2002295508535 -242.58496803745004 11.776412500000005
    vertex 635.3030795508535 -234.20800314127504 0.0
    vertex 635.3030795508535 -234.20800314127504 11.776410000000006
  endloop
endfacet
facet normal -0.9164500530695576 -0.40014909749842625 -1.7790264208713096e-19
  outer loop
    vertex 602.9369664326284 -266.57409053745005 11.776410000000006
    vertex 605.9266120508535 -273.42119053745006 0.0
    vertex 605.9266120508535 -273.42119053745006 11.776412500000005
  endloop
endfacet
facet normal -0.9164500530695576 -0.40014909749842625 -1.7790264208713096e-19
  outer loop
    vertex 605.9266120508535 -273.42119053745006 0.0
    vertex 602.9369664326284 -266.57409053745005 11.776410000000006
    vertex 602.9369664326284 -266.57409053745005 0.0
  endloop
endfacet
facet normal 0.9887891222876037 -0.1493186915483463 0.0
  outer loop
    vertex 611.3139320508535 -265.47124053745006 0.0
    vertex 610.1983220508534 -272.85881553745 11.776412500000005
    vertex 610.1983220508534 -272.85881553745 0.0
  endloop
endfacet
facet normal 0.9887891222876037 -0.1493186915483463 0.0
  outer loop
    vertex 610.1983220508534 -272.85881553745 11.776412500000005
    vertex 611.3139320508535 -265.47124053745006 0.0
    vertex 611.3139320508535 -265.47124053745006 11.776412500000005
  endloop
endfacet
facet normal -0.5935954678218345 -0.8047635805510693 0.0
  outer loop
    vertex 625.1326745508535 -266.67281553745005 11.776412500000005
    vertex 619.1200170508536 -262.23786553745003 0.0
    vertex 625.1326745508535 -266.67281553745005 0.0
  endloop
endfacet
facet normal -0.5935954678218345 -0.8047635805510693 0.0
  outer loop
    vertex 619.1200170508536 -262.23786553745003 0.0
    vertex 625.1326745508535 -266.67281553745005 11.776412500000005
    vertex 619.1200170508536 -262.23786553745003 11.776412500000005
  endloop
endfacet
facet normal 0.9309754284734783 0.36508184230200164 0.0
  outer loop
    vertex 625.8232545508534 -257.09428303745005 0.0
    vertex 628.5509045508535 -264.0499155374501 11.776412500000005
    vertex 628.5509045508535 -264.0499155374501 0.0
  endloop
endfacet
facet normal 0.9309754284734783 0.36508184230200164 0.0
  outer loop
    vertex 628.5509045508535 -264.0499155374501 11.776412500000005
    vertex 625.8232545508534 -257.09428303745005 0.0
    vertex 625.8232545508534 -257.09428303745005 11.776412500000005
  endloop
endfacet
facet normal -0.11168738274334016 -0.9937433916942254 0.0
  outer loop
    vertex 638.3914295508536 -251.22550303745007 11.776412500000005
    vertex 630.9668295508535 -250.39104803745005 0.0
    vertex 638.3914295508536 -251.22550303745007 0.0
  endloop
endfacet
facet normal -0.11168738274334016 -0.9937433916942254 0.0
  outer loop
    vertex 630.9668295508535 -250.39104803745005 0.0
    vertex 638.3914295508536 -251.22550303745007 11.776412500000005
    vertex 630.9668295508535 -250.39104803745005 11.776412500000005
  endloop
endfacet
facet normal 0.6237098910023052 0.781655916542498 0.0
  outer loop
    vertex 634.2002295508535 -242.58496803745004 11.776412500000005
    vertex 640.0402295508535 -247.24490303745006 0.0
    vertex 634.2002295508535 -242.58496803745004 0.0
  endloop
endfacet
facet normal 0.6237098910023052 0.781655916542498 0.0
  outer loop
    vertex 640.0402295508535 -247.24490303745006 0.0
    vertex 634.2002295508535 -242.58496803745004 11.776412500000005
    vertex 640.0402295508535 -247.24490303745006 11.776412500000005
  endloop
endfacet
facet normal 0.9914450503093966 0.1305247571037707 0.0
  outer loop
    vertex 641.5878045508535 -226.94664803745005 0.0
    vertex 642.1501795508535 -231.21835803745006 11.776410000000006
    vertex 642.1501795508535 -231.21835803745006 0.0
  endloop
endfacet
facet normal 0.9914450503093966 0.1305247571037707 0.0
  outer loop
    vertex 642.1501795508535 -231.21835803745006 11.776410000000006
    vertex 641.5878045508535 -226.94664803745005 0.0
    vertex 641.5878045508535 -226.94664803745005 11.776410000000006
  endloop
endfacet
facet normal 0.9238800476805588 0.38268218863407893 0.0
  outer loop
    vertex 630.9668545508536 -218.02495303745005 0.0
    vertex 634.2002295508535 -225.83104053745 11.776410000000006
    vertex 634.2002295508535 -225.83104053745 0.0
  endloop
endfacet
facet normal 0.9238800476805588 0.38268218863407893 0.0
  outer loop
    vertex 634.2002295508535 -225.83104053745 11.776410000000006
    vertex 630.9668545508536 -218.02495303745005 0.0
    vertex 630.9668545508536 -218.02495303745005 11.776410000000006
  endloop
endfacet
facet normal 0.793353354876723 0.6087614100005424 0.0
  outer loop
    vertex 632.7789045508536 -208.59406553745004 0.0
    vertex 635.4018045508535 -212.01229553745006 11.776410000000006
    vertex 635.4018045508535 -212.01229553745006 0.0
  endloop
endfacet
facet normal 0.793353354876723 0.6087614100005424 0.0
  outer loop
    vertex 635.4018045508535 -212.01229553745006 11.776410000000006
    vertex 632.7789045508536 -208.59406553745004 0.0
    vertex 632.7789045508536 -208.59406553745004 11.776410000000006
  endloop
endfacet
facet normal 0.6087619413515062 0.7933529471565262 0.0
  outer loop
    vertex 619.1200370508534 -206.17814053745005 11.776410000000006
    vertex 625.8232720508535 -211.32172053745003 0.0
    vertex 619.1200370508534 -206.17814053745005 0.0
  endloop
endfacet
facet normal 0.6087619413515062 0.7933529471565262 0.0
  outer loop
    vertex 625.8232720508535 -211.32172053745003 0.0
    vertex 619.1200370508534 -206.17814053745005 11.776410000000006
    vertex 625.8232720508535 -211.32172053745003 11.776410000000006
  endloop
endfacet
facet normal 0.38268471878821264 0.923878999656333 0.0
  outer loop
    vertex 615.9738895508535 -197.10474053745003 11.776410000000006
    vertex 619.9544895508535 -198.75356553745002 0.0
    vertex 615.9738895508535 -197.10474053745003 0.0
  endloop
endfacet
facet normal 0.38268471878821264 0.923878999656333 0.0
  outer loop
    vertex 619.9544895508535 -198.75356553745002 0.0
    vertex 615.9738895508535 -197.10474053745003 11.776410000000006
    vertex 619.9544895508535 -198.75356553745002 11.776410000000006
  endloop
endfacet
facet normal 0.1305264440446494 0.9914448282204408 0.0
  outer loop
    vertex 602.9369935694534 -201.84189053745004 11.776410000000006
    vertex 611.3139545508535 -202.94474053745003 0.0
    vertex 602.9369935694534 -201.84189053745004 0.0
  endloop
endfacet
facet normal 0.1305264440446494 0.9914448282204408 0.0
  outer loop
    vertex 611.3139545508535 -202.94474053745003 0.0
    vertex 602.9369935694534 -201.84189053745004 11.776410000000006
    vertex 611.3139545508535 -202.94474053745003 11.776410000000006
  endloop
endfacet
facet normal 0.4001490396727514 -0.916450078317949 0.0
  outer loop
    vertex 642.1501795508535 -231.21835803745006 11.776410000000006
    vertex 635.3030795508535 -234.20800314127504 0.0
    vertex 642.1501795508535 -231.21835803745006 0.0
  endloop
endfacet
facet normal 0.4001490396727514 -0.916450078317949 0.0
  outer loop
    vertex 635.3030795508535 -234.20800314127504 0.0
    vertex 642.1501795508535 -231.21835803745006 11.776410000000006
    vertex 635.3030795508535 -234.20800314127504 11.776410000000006
  endloop
endfacet
facet normal 0.14931836439664856 0.988789171691271 0.0
  outer loop
    vertex 634.2002295508535 -225.83104053745 11.776410000000006
    vertex 641.5878045508535 -226.94664803745005 0.0
    vertex 634.2002295508535 -225.83104053745 0.0
  endloop
endfacet
facet normal 0.14931836439664856 0.988789171691271 0.0
  outer loop
    vertex 641.5878045508535 -226.94664803745005 0.0
    vertex 634.2002295508535 -225.83104053745 11.776410000000006
    vertex 641.5878045508535 -226.94664803745005 11.776410000000006
  endloop
endfacet
facet normal 0.8047635805510694 -0.5935954678218345 0.0
  outer loop
    vertex 635.4018045508535 -212.01229553745006 0.0
    vertex 630.9668545508536 -218.02495303745005 11.776410000000006
    vertex 630.9668545508536 -218.02495303745005 0.0
  endloop
endfacet
facet normal 0.8047635805510694 -0.5935954678218345 0.0
  outer loop
    vertex 630.9668545508536 -218.02495303745005 11.776410000000006
    vertex 635.4018045508535 -212.01229553745006 0.0
    vertex 635.4018045508535 -212.01229553745006 11.776410000000006
  endloop
endfacet
facet normal -0.36508242232855154 0.9309752010159654 0.0
  outer loop
    vertex 625.8232720508535 -211.32172053745003 11.776410000000006
    vertex 632.7789045508536 -208.59406553745004 0.0
    vertex 625.8232720508535 -211.32172053745003 0.0
  endloop
endfacet
facet normal -0.36508242232855154 0.9309752010159654 0.0
  outer loop
    vertex 632.7789045508536 -208.59406553745004 0.0
    vertex 625.8232720508535 -211.32172053745003 11.776410000000006
    vertex 632.7789045508536 -208.59406553745004 11.776410000000006
  endloop
endfacet
facet normal 0.9937433870925892 -0.11168742368659208 0.0
  outer loop
    vertex 619.9544895508535 -198.75356553745002 0.0
    vertex 619.1200370508534 -206.17814053745005 11.776410000000006
    vertex 619.1200370508534 -206.17814053745005 0.0
  endloop
endfacet
facet normal 0.9937433870925892 -0.11168742368659208 0.0
  outer loop
    vertex 619.1200370508534 -206.17814053745005 11.776410000000006
    vertex 619.9544895508535 -198.75356553745002 0.0
    vertex 619.9544895508535 -198.75356553745002 11.776410000000006
  endloop
endfacet
facet normal -0.7816559165424982 0.6237098910023052 0.0
  outer loop
    vertex 615.9738895508535 -197.10474053745003 11.776410000000006
    vertex 611.3139545508535 -202.94474053745003 0.0
    vertex 611.3139545508535 -202.94474053745003 11.776410000000006
  endloop
endfacet
facet normal -0.7816559165424982 0.6237098910023052 0.0
  outer loop
    vertex 611.3139545508535 -202.94474053745003 0.0
    vertex 615.9738895508535 -197.10474053745003 11.776410000000006
    vertex 615.9738895508535 -197.10474053745003 0.0
  endloop
endfacet
facet normal -0.1305247571037707 0.9914450503093966 0.0
  outer loop
    vertex 595.6756420508535 -195.55716553745003 11.776410000000006
    vertex 599.9473520508535 -194.99479053745003 0.0
    vertex 595.6756420508535 -195.55716553745003 0.0
  endloop
endfacet
facet normal -0.1305247571037707 0.9914450503093966 0.0
  outer loop
    vertex 599.9473520508535 -194.99479053745003 0.0
    vertex 595.6756420508535 -195.55716553745003 11.776410000000006
    vertex 599.9473520508535 -194.99479053745003 11.776410000000006
  endloop
endfacet
facet normal -0.38268218863407893 0.9238800476805588 0.0
  outer loop
    vertex 586.7539445508535 -206.17811553745005 11.776410000000006
    vertex 594.5600320508535 -202.94474053745003 0.0
    vertex 586.7539445508535 -206.17811553745005 0.0
  endloop
endfacet
facet normal -0.38268218863407893 0.9238800476805588 0.0
  outer loop
    vertex 594.5600320508535 -202.94474053745003 0.0
    vertex 586.7539445508535 -206.17811553745005 11.776410000000006
    vertex 594.5600320508535 -202.94474053745003 11.776410000000006
  endloop
endfacet
facet normal -0.6087639321042795 0.7933514195921857 0.0
  outer loop
    vertex 577.3230795508534 -204.36606553745 11.776410000000006
    vertex 580.7412870508535 -201.74316553745004 0.0
    vertex 577.3230795508534 -204.36606553745 0.0
  endloop
endfacet
facet normal -0.6087639321042795 0.7933514195921857 0.0
  outer loop
    vertex 580.7412870508535 -201.74316553745004 0.0
    vertex 577.3230795508534 -204.36606553745 11.776410000000006
    vertex 580.7412870508535 -201.74316553745004 11.776410000000006
  endloop
endfacet
facet normal -0.793352694603115 0.6087622704849379 0.0
  outer loop
    vertex 580.0507120508535 -211.32169803745003 11.776410000000006
    vertex 574.9071295508535 -218.02493053745005 0.0
    vertex 574.9071295508535 -218.02493053745005 11.776410000000006
  endloop
endfacet
facet normal -0.793352694603115 0.6087622704849379 0.0
  outer loop
    vertex 574.9071295508535 -218.02493053745005 0.0
    vertex 580.0507120508535 -211.32169803745003 11.776410000000006
    vertex 580.0507120508535 -211.32169803745003 0.0
  endloop
endfacet
facet normal -0.9238789146817277 0.38268492393418513 0.0
  outer loop
    vertex 567.4825545508535 -217.19047803745002 11.776410000000006
    vertex 565.8337295508535 -221.17107553745004 0.0
    vertex 565.8337295508535 -221.17107553745004 11.776410000000006
  endloop
endfacet
facet normal -0.9238789146817277 0.38268492393418513 0.0
  outer loop
    vertex 565.8337295508535 -221.17107553745004 0.0
    vertex 567.4825545508535 -217.19047803745002 11.776410000000006
    vertex 567.4825545508535 -217.19047803745002 0.0
  endloop
endfacet
facet normal -0.991444837265247 0.13052637534264086 0.0
  outer loop
    vertex 571.6737295508535 -225.83101053745006 11.776410000000006
    vertex 570.5708795508534 -234.20797600445002 0.0
    vertex 570.5708795508534 -234.20797600445002 11.776410000000006
  endloop
endfacet
facet normal -0.991444837265247 0.13052637534264086 0.0
  outer loop
    vertex 570.5708795508534 -234.20797600445002 0.0
    vertex 571.6737295508535 -225.83101053745006 11.776410000000006
    vertex 571.6737295508535 -225.83101053745006 0.0
  endloop
endfacet
facet normal 0.916450254292155 0.40014863664374073 0.0
  outer loop
    vertex 599.9473520508535 -194.99479053745003 0.0
    vertex 602.9369935694534 -201.84189053745004 11.776410000000006
    vertex 602.9369935694534 -201.84189053745004 0.0
  endloop
endfacet
facet normal 0.916450254292155 0.40014863664374073 0.0
  outer loop
    vertex 602.9369935694534 -201.84189053745004 11.776410000000006
    vertex 599.9473520508535 -194.99479053745003 0.0
    vertex 599.9473520508535 -194.99479053745003 11.776410000000006
  endloop
endfacet
facet normal -0.9887891222876037 0.1493186915483463 0.0
  outer loop
    vertex 595.6756420508535 -195.55716553745003 11.776410000000006
    vertex 594.5600320508535 -202.94474053745003 0.0
    vertex 594.5600320508535 -202.94474053745003 11.776410000000006
  endloop
endfacet
facet normal -0.9887891222876037 0.1493186915483463 0.0
  outer loop
    vertex 594.5600320508535 -202.94474053745003 0.0
    vertex 595.6756420508535 -195.55716553745003 11.776410000000006
    vertex 595.6756420508535 -195.55716553745003 0.0
  endloop
endfacet
facet normal 0.5935954678218345 0.8047635805510694 0.0
  outer loop
    vertex 580.7412870508535 -201.74316553745004 11.776410000000006
    vertex 586.7539445508535 -206.17811553745005 0.0
    vertex 580.7412870508535 -201.74316553745004 0.0
  endloop
endfacet
facet normal 0.5935954678218345 0.8047635805510694 0.0
  outer loop
    vertex 586.7539445508535 -206.17811553745005 0.0
    vertex 580.7412870508535 -201.74316553745004 11.776410000000006
    vertex 586.7539445508535 -206.17811553745005 11.776410000000006
  endloop
endfacet
facet normal -0.9309762245728023 -0.36507981220573016 0.0
  outer loop
    vertex 577.3230795508534 -204.36606553745 11.776410000000006
    vertex 580.0507120508535 -211.32169803745003 0.0
    vertex 580.0507120508535 -211.32169803745003 11.776410000000006
  endloop
endfacet
facet normal -0.9309762245728023 -0.36507981220573016 0.0
  outer loop
    vertex 580.0507120508535 -211.32169803745003 0.0
    vertex 577.3230795508534 -204.36606553745 11.776410000000006
    vertex 577.3230795508534 -204.36606553745 0.0
  endloop
endfacet
facet normal 0.11168742368659174 0.9937433870925892 0.0
  outer loop
    vertex 567.4825545508535 -217.19047803745002 11.776410000000006
    vertex 574.9071295508535 -218.02493053745005 0.0
    vertex 567.4825545508535 -217.19047803745002 0.0
  endloop
endfacet
facet normal 0.11168742368659174 0.9937433870925892 0.0
  outer loop
    vertex 574.9071295508535 -218.02493053745005 0.0
    vertex 567.4825545508535 -217.19047803745002 11.776410000000006
    vertex 574.9071295508535 -218.02493053745005 11.776410000000006
  endloop
endfacet
facet normal -0.6237098910023053 -0.7816559165424981 0.0
  outer loop
    vertex 571.6737295508535 -225.83101053745006 11.776410000000006
    vertex 565.8337295508535 -221.17107553745004 0.0
    vertex 571.6737295508535 -225.83101053745006 0.0
  endloop
endfacet
facet normal -0.6237098910023053 -0.7816559165424981 0.0
  outer loop
    vertex 565.8337295508535 -221.17107553745004 0.0
    vertex 571.6737295508535 -225.83101053745006 11.776410000000006
    vertex 565.8337295508535 -221.17107553745004 11.776410000000006
  endloop
endfacet
facet normal -0.9914450503093966 -0.13052475710377068 0.0
  outer loop
    vertex 563.7237795508535 -237.19762053745004 11.776410000000006
    vertex 564.2861545508534 -241.46933053745005 0.0
    vertex 564.2861545508534 -241.46933053745005 11.776410000000006
  endloop
endfacet
facet normal -0.9914450503093966 -0.13052475710377068 0.0
  outer loop
    vertex 564.2861545508534 -241.46933053745005 0.0
    vertex 563.7237795508535 -237.19762053745004 11.776410000000006
    vertex 563.7237795508535 -237.19762053745004 0.0
  endloop
endfacet
facet normal -0.9238800476805588 -0.38268218863407893 0.0
  outer loop
    vertex 571.6737295508535 -242.58494053745008 11.776410000000006
    vertex 574.9071045508534 -250.39102803745004 0.0
    vertex 574.9071045508534 -250.39102803745004 11.776410000000006
  endloop
endfacet
facet normal -0.9238800476805588 -0.38268218863407893 0.0
  outer loop
    vertex 574.9071045508534 -250.39102803745004 0.0
    vertex 571.6737295508535 -242.58494053745008 11.776410000000006
    vertex 571.6737295508535 -242.58494053745008 0.0
  endloop
endfacet
facet normal -0.7933514195921857 -0.6087639321042795 0.0
  outer loop
    vertex 570.4721545508535 -256.40368303745004 11.776410000000006
    vertex 573.0950545508534 -259.8218905374501 0.0
    vertex 573.0950545508534 -259.8218905374501 11.776410000000006
  endloop
endfacet
facet normal -0.7933514195921857 -0.6087639321042795 0.0
  outer loop
    vertex 573.0950545508534 -259.8218905374501 0.0
    vertex 570.4721545508535 -256.40368303745004 11.776410000000006
    vertex 570.4721545508535 -256.40368303745004 0.0
  endloop
endfacet
facet normal -0.6087621275837023 -0.7933528042553102 0.0
  outer loop
    vertex 586.7539220508535 -262.23784053745004 11.776410000000006
    vertex 580.0506870508535 -257.09425803745006 0.0
    vertex 586.7539220508535 -262.23784053745004 0.0
  endloop
endfacet
facet normal -0.6087621275837023 -0.7933528042553102 0.0
  outer loop
    vertex 580.0506870508535 -257.09425803745006 0.0
    vertex 586.7539220508535 -262.23784053745004 11.776410000000006
    vertex 580.0506870508535 -257.09425803745006 11.776410000000006
  endloop
endfacet
facet normal -0.382684718788213 -0.923878999656333 0.0
  outer loop
    vertex 589.9000670508535 -271.3112405374501 11.776410000000006
    vertex 585.9194670508535 -269.66241553745004 0.0
    vertex 589.9000670508535 -271.3112405374501 0.0
  endloop
endfacet
facet normal -0.382684718788213 -0.923878999656333 0.0
  outer loop
    vertex 585.9194670508535 -269.66241553745004 0.0
    vertex 589.9000670508535 -271.3112405374501 11.776410000000006
    vertex 585.9194670508535 -269.66241553745004 11.776410000000006
  endloop
endfacet
facet normal -0.13052639196407564 -0.9914448350769904 0.0
  outer loop
    vertex 602.9369664326284 -266.57409053745005 11.776410000000006
    vertex 594.5600020508535 -265.47124053745006 0.0
    vertex 602.9369664326284 -266.57409053745005 0.0
  endloop
endfacet
facet normal -0.13052639196407564 -0.9914448350769904 0.0
  outer loop
    vertex 594.5600020508535 -265.47124053745006 0.0
    vertex 602.9369664326284 -266.57409053745005 11.776410000000006
    vertex 594.5600020508535 -265.47124053745006 11.776410000000006
  endloop
endfacet
facet normal -0.4001489755041206 0.9164501063358566 0.0
  outer loop
    vertex 563.7237795508535 -237.19762053745004 11.776410000000006
    vertex 570.5708795508534 -234.20797600445002 0.0
    vertex 563.7237795508535 -237.19762053745004 0.0
  endloop
endfacet
facet normal -0.4001489755041206 0.9164501063358566 0.0
  outer loop
    vertex 570.5708795508534 -234.20797600445002 0.0
    vertex 563.7237795508535 -237.19762053745004 11.776410000000006
    vertex 570.5708795508534 -234.20797600445002 11.776410000000006
  endloop
endfacet
facet normal 0.0 0.0 -1.0
  outer loop
    vertex 567.4825545508535 -217.19047803745002 0.0
    vertex 571.6737295508535 -225.83101053745006 0.0
    vertex 565.8337295508535 -221.17107553745004 0.0
  endloop
endfacet
facet normal 0.0 0.0 -1.0
  outer loop
    vertex 571.6737295508535 -225.83101053745006 0.0
    vertex 567.4825545508535 -217.19047803745002 0.0
    vertex 574.9071295508535 -218.02493053745005 0.0
  endloop
endfacet
facet normal 0.0 0.0 -1.0
  outer loop
    vertex 571.6737295508535 -225.83101053745006 0.0
    vertex 574.9071295508535 -218.02493053745005 0.0
    vertex 571.6737295508535 -242.58494053745008 0.0
  endloop
endfacet
facet normal 0.0 0.0 -1.0
  outer loop
    vertex 571.6737295508535 -242.58494053745008 0.0
    vertex 574.9071295508535 -218.02493053745005 0.0
    vertex 574.9071045508534 -250.39102803745004 0.0
  endloop
endfacet
facet normal 0.0 0.0 -1.0
  outer loop
    vertex 580.7412870508535 -201.74316553745004 0.0
    vertex 580.0507120508535 -211.32169803745003 0.0
    vertex 577.3230795508534 -204.36606553745 0.0
  endloop
endfacet
facet normal 0.0 0.0 -1.0
  outer loop
    vertex 574.9071045508534 -250.39102803745004 0.0
    vertex 573.0950545508534 -259.8218905374501 0.0
    vertex 570.4721545508535 -256.40368303745004 0.0
  endloop
endfacet
facet normal 0.0 0.0 -1.0
  outer loop
    vertex 573.0950545508534 -259.8218905374501 0.0
    vertex 574.9071045508534 -250.39102803745004 0.0
    vertex 580.0506870508535 -257.09425803745006 0.0
  endloop
endfacet
facet normal 0.0 0.0 -1.0
  outer loop
    vertex 580.0506870508535 -257.09425803745006 0.0
    vertex 574.9071045508534 -250.39102803745004 0.0
    vertex 574.9071295508535 -218.02493053745005 0.0
  endloop
endfacet
facet normal 0.0 0.0 -1.0
  outer loop
    vertex 580.0506870508535 -257.09425803745006 0.0
    vertex 574.9071295508535 -218.02493053745005 0.0
    vertex 580.0507120508535 -211.32169803745003 0.0
  endloop
endfacet
facet normal 0.0 0.0 -1.0
  outer loop
    vertex 580.0506870508535 -257.09425803745006 0.0
    vertex 580.0507120508535 -211.32169803745003 0.0
    vertex 586.7539220508535 -262.23784053745004 0.0
  endloop
endfacet
facet normal 0.0 0.0 -1.0
  outer loop
    vertex 586.7539220508535 -262.23784053745004 0.0
    vertex 580.0507120508535 -211.32169803745003 0.0
    vertex 580.7412870508535 -201.74316553745004 0.0
  endloop
endfacet
facet normal 0.0 0.0 -1.0
  outer loop
    vertex 586.7539220508535 -262.23784053745004 0.0
    vertex 580.7412870508535 -201.74316553745004 0.0
    vertex 586.7539445508535 -206.17811553745005 0.0
  endloop
endfacet
facet normal 0.0 0.0 -1.0
  outer loop
    vertex 570.5708795508534 -234.20797600445002 0.0
    vertex 564.2861545508534 -241.46933053745005 0.0
    vertex 563.7237795508535 -237.19762053745004 0.0
  endloop
endfacet
facet normal 0.0 0.0 -1.0
  outer loop
    vertex 564.2861545508534 -241.46933053745005 0.0
    vertex 570.5708795508534 -234.20797600445002 0.0
    vertex 571.6737295508535 -242.58494053745008 0.0
  endloop
endfacet
facet normal 0.0 0.0 -1.0
  outer loop
    vertex 571.6737295508535 -242.58494053745008 0.0
    vertex 570.5708795508534 -234.20797600445002 0.0
    vertex 571.6737295508535 -225.83101053745006 0.0
  endloop
endfacet
facet normal 0.0 0.0 -1.0
  outer loop
    vertex 586.7539220508535 -262.23784053745004 0.0
    vertex 589.9000670508535 -271.3112405374501 0.0
    vertex 585.9194670508535 -269.66241553745004 0.0
  endloop
endfacet
facet normal 0.0 0.0 -1.0
  outer loop
    vertex 589.9000670508535 -271.3112405374501 0.0
    vertex 586.7539220508535 -262.23784053745004 0.0
    vertex 586.7539445508535 -206.17811553745005 0.0
  endloop
endfacet
facet normal 0.0 0.0 -1.0
  outer loop
    vertex 589.9000670508535 -271.3112405374501 0.0
    vertex 586.7539445508535 -206.17811553745005 0.0
    vertex 594.5600320508535 -202.94474053745003 0.0
  endloop
endfacet
facet normal 0.0 0.0 -1.0
  outer loop
    vertex 589.9000670508535 -271.3112405374501 0.0
    vertex 594.5600320508535 -202.94474053745003 0.0
    vertex 594.5600020508535 -265.47124053745006 0.0
  endloop
endfacet
facet normal 0.0 0.0 -1.0
  outer loop
    vertex 594.5600020508535 -265.47124053745006 0.0
    vertex 594.5600320508535 -202.94474053745003 0.0
    vertex 602.9369664326284 -266.57409053745005 0.0
  endloop
endfacet
facet normal 0.0 0.0 -1.0
  outer loop
    vertex 602.9369664326284 -266.57409053745005 0.0
    vertex 594.5600320508535 -202.94474053745003 0.0
    vertex 595.6756420508535 -195.55716553745003 0.0
  endloop
endfacet
facet normal 0.0 0.0 -1.0
  outer loop
    vertex 602.9369664326284 -266.57409053745005 0.0
    vertex 595.6756420508535 -195.55716553745003 0.0
    vertex 599.9473520508535 -194.99479053745003 0.0
  endloop
endfacet
facet normal 0.0 0.0 -1.0
  outer loop
    vertex 602.9369664326284 -266.57409053745005 0.0
    vertex 599.9473520508535 -194.99479053745003 0.0
    vertex 602.9369935694534 -201.84189053745004 0.0
  endloop
endfacet
facet normal 0.0 0.0 -1.0
  outer loop
    vertex 602.9369664326284 -266.57409053745005 0.0
    vertex 602.9369935694534 -201.84189053745004 0.0
    vertex 605.9266120508535 -273.42119053745006 0.0
  endloop
endfacet
facet normal 0.0 0.0 -1.0
  outer loop
    vertex 605.9266120508535 -273.42119053745006 0.0
    vertex 602.9369935694534 -201.84189053745004 0.0
    vertex 611.3139545508535 -202.94474053745003 0.0
  endloop
endfacet
facet normal 0.0 0.0 -1.0
  outer loop
    vertex 605.9266120508535 -273.42119053745006 0.0
    vertex 611.3139545508535 -202.94474053745003 0.0
    vertex 610.1983220508534 -272.85881553745 0.0
  endloop
endfacet
facet normal 0.0 0.0 -1.0
  outer loop
    vertex 610.1983220508534 -272.85881553745 0.0
    vertex 611.3139545508535 -202.94474053745003 0.0
    vertex 611.3139320508535 -265.47124053745006 0.0
  endloop
endfacet
facet normal 0.0 0.0 -1.0
  outer loop
    vertex 611.3139320508535 -265.47124053745006 0.0
    vertex 611.3139545508535 -202.94474053745003 0.0
    vertex 619.1200170508536 -262.23786553745003 0.0
  endloop
endfacet
facet normal 0.0 0.0 -1.0
  outer loop
    vertex 619.1200170508536 -262.23786553745003 0.0
    vertex 611.3139545508535 -202.94474053745003 0.0
    vertex 615.9738895508535 -197.10474053745003 0.0
  endloop
endfacet
facet normal 0.0 0.0 -1.0
  outer loop
    vertex 619.1200170508536 -262.23786553745003 0.0
    vertex 615.9738895508535 -197.10474053745003 0.0
    vertex 619.1200370508534 -206.17814053745005 0.0
  endloop
endfacet
facet normal 0.0 0.0 -1.0
  outer loop
    vertex 619.1200370508534 -206.17814053745005 0.0
    vertex 615.9738895508535 -197.10474053745003 0.0
    vertex 619.9544895508535 -198.75356553745002 0.0
  endloop
endfacet
facet normal 0.0 0.0 -1.0
  outer loop
    vertex 619.1200370508534 -206.17814053745005 0.0
    vertex 625.1326745508535 -266.67281553745005 0.0
    vertex 619.1200170508536 -262.23786553745003 0.0
  endloop
endfacet
facet normal 0.0 0.0 -1.0
  outer loop
    vertex 625.1326745508535 -266.67281553745005 0.0
    vertex 619.1200370508534 -206.17814053745005 0.0
    vertex 625.8232720508535 -211.32172053745003 0.0
  endloop
endfacet
facet normal 0.0 0.0 -1.0
  outer loop
    vertex 625.1326745508535 -266.67281553745005 0.0
    vertex 625.8232720508535 -211.32172053745003 0.0
    vertex 625.8232545508534 -257.09428303745005 0.0
  endloop
endfacet
facet normal 0.0 0.0 -1.0
  outer loop
    vertex 625.8232545508534 -257.09428303745005 0.0
    vertex 625.8232720508535 -211.32172053745003 0.0
    vertex 630.9668295508535 -250.39104803745005 0.0
  endloop
endfacet
facet normal 0.0 0.0 -1.0
  outer loop
    vertex 630.9668295508535 -250.39104803745005 0.0
    vertex 625.8232720508535 -211.32172053745003 0.0
    vertex 630.9668545508536 -218.02495303745005 0.0
  endloop
endfacet
facet normal 0.0 0.0 -1.0
  outer loop
    vertex 630.9668545508536 -218.02495303745005 0.0
    vertex 625.8232720508535 -211.32172053745003 0.0
    vertex 632.7789045508536 -208.59406553745004 0.0
  endloop
endfacet
facet normal 0.0 0.0 -1.0
  outer loop
    vertex 630.9668545508536 -218.02495303745005 0.0
    vertex 632.7789045508536 -208.59406553745004 0.0
    vertex 635.4018045508535 -212.01229553745006 0.0
  endloop
endfacet
facet normal 0.0 0.0 -1.0
  outer loop
    vertex 634.2002295508535 -225.83104053745 0.0
    vertex 635.3030795508535 -234.20800314127504 0.0
    vertex 634.2002295508535 -242.58496803745004 0.0
  endloop
endfacet
facet normal 0.0 0.0 -1.0
  outer loop
    vertex 635.3030795508535 -234.20800314127504 0.0
    vertex 634.2002295508535 -225.83104053745 0.0
    vertex 641.5878045508535 -226.94664803745005 0.0
  endloop
endfacet
facet normal 0.0 0.0 -1.0
  outer loop
    vertex 635.3030795508535 -234.20800314127504 0.0
    vertex 641.5878045508535 -226.94664803745005 0.0
    vertex 642.1501795508535 -231.21835803745006 0.0
  endloop
endfacet
facet normal 0.0 0.0 -1.0
  outer loop
    vertex 630.9668295508535 -250.39104803745005 0.0
    vertex 634.2002295508535 -242.58496803745004 0.0
    vertex 638.3914295508536 -251.22550303745007 0.0
  endloop
endfacet
facet normal 0.0 0.0 -1.0
  outer loop
    vertex 634.2002295508535 -242.58496803745004 0.0
    vertex 630.9668295508535 -250.39104803745005 0.0
    vertex 630.9668545508536 -218.02495303745005 0.0
  endloop
endfacet
facet normal 0.0 0.0 -1.0
  outer loop
    vertex 634.2002295508535 -242.58496803745004 0.0
    vertex 630.9668545508536 -218.02495303745005 0.0
    vertex 634.2002295508535 -225.83104053745 0.0
  endloop
endfacet
facet normal 0.0 0.0 -1.0
  outer loop
    vertex 638.3914295508536 -251.22550303745007 0.0
    vertex 634.2002295508535 -242.58496803745004 0.0
    vertex 640.0402295508535 -247.24490303745006 0.0
  endloop
endfacet
facet normal 0.0 0.0 -1.0
  outer loop
    vertex 628.5509045508535 -264.0499155374501 0.0
    vertex 625.1326745508535 -266.67281553745005 0.0
    vertex 625.8232545508534 -257.09428303745005 0.0
  endloop
endfacet
facet normal -0.1493186915483463 -0.9887891222876037 0.0
  outer loop
    vertex 571.6737295508535 -242.58494053745008 11.776410000000006
    vertex 564.2861545508534 -241.46933053745005 0.0
    vertex 571.6737295508535 -242.58494053745008 0.0
  endloop
endfacet
facet normal -0.1493186915483463 -0.9887891222876037 0.0
  outer loop
    vertex 564.2861545508534 -241.46933053745005 0.0
    vertex 571.6737295508535 -242.58494053745008 11.776410000000006
    vertex 564.2861545508534 -241.46933053745005 11.776410000000006
  endloop
endfacet
facet normal -1.9061730832846726e-08 2.2242494743909763e-08 0.9999999999999996
  outer loop
    vertex 564.2861545508534 -241.46933053745005 11.776410000000006
    vertex 570.5708795508534 -234.20797600445002 11.776410000000006
    vertex 563.7237795508535 -237.19762053745004 11.776410000000006
  endloop
endfacet
facet normal -1.9061730832846726e-08 2.2242494743909763e-08 0.9999999999999996
  outer loop
    vertex 570.5708795508534 -234.20797600445002 11.776410000000006
    vertex 564.2861545508534 -241.46933053745005 11.776410000000006
    vertex 571.6737295508535 -242.58494053745008 11.776410000000006
  endloop
endfacet
facet normal -1.9061730832846726e-08 2.2242494743909763e-08 0.9999999999999996
  outer loop
    vertex 570.5708795508534 -234.20797600445002 11.776410000000006
    vertex 571.6737295508535 -242.58494053745008 11.776410000000006
    vertex 571.6737295508535 -225.83101053745006 11.776410000000006
  endloop
endfacet
facet normal -1.9061730832846726e-08 2.2242494743909763e-08 0.9999999999999996
  outer loop
    vertex 571.6737295508535 -225.83101053745006 11.776410000000006
    vertex 571.6737295508535 -242.58494053745008 11.776410000000006
    vertex 574.9071045508534 -250.39102803745004 11.776410000000006
  endloop
endfacet
facet normal -1.9061730832846726e-08 2.2242494743909763e-08 0.9999999999999996
  outer loop
    vertex 628.5509045508535 -264.0499155374501 11.776412500000005
    vertex 625.8232545508534 -257.09428303745005 11.776412500000005
    vertex 625.1326745508535 -266.67281553745005 11.776412500000005
  endloop
endfacet
facet normal -1.9061730832846726e-08 2.2242494743909763e-08 0.9999999999999996
  outer loop
    vertex 625.1326745508535 -266.67281553745005 11.776412500000005
    vertex 619.1200370508534 -206.17814053745005 11.776410000000006
    vertex 619.1200170508536 -262.23786553745003 11.776412500000005
  endloop
endfacet
facet normal -1.9061730832846726e-08 2.2242494743909763e-08 0.9999999999999996
  outer loop
    vertex 619.1200370508534 -206.17814053745005 11.776410000000006
    vertex 625.1326745508535 -266.67281553745005 11.776412500000005
    vertex 625.8232720508535 -211.32172053745003 11.776410000000006
  endloop
endfacet
facet normal -1.9061730832846726e-08 2.2242494743909763e-08 0.9999999999999996
  outer loop
    vertex 625.8232720508535 -211.32172053745003 11.776410000000006
    vertex 625.1326745508535 -266.67281553745005 11.776412500000005
    vertex 625.8232545508534 -257.09428303745005 11.776412500000005
  endloop
endfacet
facet normal -1.9061730832846726e-08 2.2242494743909763e-08 0.9999999999999996
  outer loop
    vertex 625.8232720508535 -211.32172053745003 11.776410000000006
    vertex 625.8232545508534 -257.09428303745005 11.776412500000005
    vertex 630.9668295508535 -250.39104803745005 11.776412500000005
  endloop
endfacet
facet normal -1.9061730832846726e-08 2.2242494743909763e-08 0.9999999999999996
  outer loop
    vertex 625.8232720508535 -211.32172053745003 11.776410000000006
    vertex 630.9668295508535 -250.39104803745005 11.776412500000005
    vertex 630.9668545508536 -218.02495303745005 11.776410000000006
  endloop
endfacet
facet normal -1.9061730832846726e-08 2.2242494743909763e-08 0.9999999999999996
  outer loop
    vertex 625.8232720508535 -211.32172053745003 11.776410000000006
    vertex 630.9668545508536 -218.02495303745005 11.776410000000006
    vertex 632.7789045508536 -208.59406553745004 11.776410000000006
  endloop
endfacet
facet normal -1.9061730832846726e-08 2.2242494743909763e-08 0.9999999999999996
  outer loop
    vertex 632.7789045508536 -208.59406553745004 11.776410000000006
    vertex 630.9668545508536 -218.02495303745005 11.776410000000006
    vertex 635.4018045508535 -212.01229553745006 11.776410000000006
  endloop
endfacet
facet normal -1.9061730832846726e-08 2.2242494743909763e-08 0.9999999999999996
  outer loop
    vertex 589.9000670508535 -271.3112405374501 11.776410000000006
    vertex 586.7539220508535 -262.23784053745004 11.776410000000006
    vertex 585.9194670508535 -269.66241553745004 11.776410000000006
  endloop
endfacet
facet normal -1.9061730832846726e-08 2.2242494743909763e-08 0.9999999999999996
  outer loop
    vertex 586.7539220508535 -262.23784053745004 11.776410000000006
    vertex 589.9000670508535 -271.3112405374501 11.776410000000006
    vertex 586.7539445508535 -206.17811553745005 11.776410000000006
  endloop
endfacet
facet normal -1.9061730832846726e-08 2.2242494743909763e-08 0.9999999999999996
  outer loop
    vertex 586.7539445508535 -206.17811553745005 11.776410000000006
    vertex 589.9000670508535 -271.3112405374501 11.776410000000006
    vertex 594.5600320508535 -202.94474053745003 11.776410000000006
  endloop
endfacet
facet normal -1.9061730832846726e-08 2.2242494743909763e-08 0.9999999999999996
  outer loop
    vertex 594.5600320508535 -202.94474053745003 11.776410000000006
    vertex 589.9000670508535 -271.3112405374501 11.776410000000006
    vertex 594.5600020508535 -265.47124053745006 11.776410000000006
  endloop
endfacet
facet normal -1.9061730832846726e-08 2.2242494743909763e-08 0.9999999999999996
  outer loop
    vertex 594.5600320508535 -202.94474053745003 11.776410000000006
    vertex 594.5600020508535 -265.47124053745006 11.776410000000006
    vertex 602.9369664326284 -266.57409053745005 11.776410000000006
  endloop
endfacet
facet normal -1.9061730832846726e-08 2.2242494743909763e-08 0.9999999999999996
  outer loop
    vertex 594.5600320508535 -202.94474053745003 11.776410000000006
    vertex 602.9369664326284 -266.57409053745005 11.776410000000006
    vertex 595.6756420508535 -195.55716553745003 11.776410000000006
  endloop
endfacet
facet normal -1.9061730832846726e-08 2.2242494743909763e-08 0.9999999999999996
  outer loop
    vertex 595.6756420508535 -195.55716553745003 11.776410000000006
    vertex 602.9369664326284 -266.57409053745005 11.776410000000006
    vertex 599.9473520508535 -194.99479053745003 11.776410000000006
  endloop
endfacet
facet normal -1.9061730832846726e-08 2.2242494743909763e-08 0.9999999999999996
  outer loop
    vertex 599.9473520508535 -194.99479053745003 11.776410000000006
    vertex 602.9369664326284 -266.57409053745005 11.776410000000006
    vertex 602.9369935694534 -201.84189053745004 11.776410000000006
  endloop
endfacet
facet normal -1.9061730832846726e-08 2.2242494743909763e-08 0.9999999999999996
  outer loop
    vertex 602.9369935694534 -201.84189053745004 11.776410000000006
    vertex 602.9369664326284 -266.57409053745005 11.776410000000006
    vertex 605.9266120508535 -273.42119053745006 11.776412500000005
  endloop
endfacet
facet normal -1.9061730832846726e-08 2.2242494743909763e-08 0.9999999999999996
  outer loop
    vertex 602.9369935694534 -201.84189053745004 11.776410000000006
    vertex 605.9266120508535 -273.42119053745006 11.776412500000005
    vertex 611.3139545508535 -202.94474053745003 11.776410000000006
  endloop
endfacet
facet normal -1.9061730832846726e-08 2.2242494743909763e-08 0.9999999999999996
  outer loop
    vertex 611.3139545508535 -202.94474053745003 11.776410000000006
    vertex 605.9266120508535 -273.42119053745006 11.776412500000005
    vertex 610.1983220508534 -272.85881553745 11.776412500000005
  endloop
endfacet
facet normal -1.9061730832846726e-08 2.2242494743909763e-08 0.9999999999999996
  outer loop
    vertex 611.3139545508535 -202.94474053745003 11.776410000000006
    vertex 610.1983220508534 -272.85881553745 11.776412500000005
    vertex 611.3139320508535 -265.47124053745006 11.776412500000005
  endloop
endfacet
facet normal -1.9061730832846726e-08 2.2242494743909763e-08 0.9999999999999996
  outer loop
    vertex 611.3139545508535 -202.94474053745003 11.776410000000006
    vertex 611.3139320508535 -265.47124053745006 11.776412500000005
    vertex 619.1200170508536 -262.23786553745003 11.776412500000005
  endloop
endfacet
facet normal -1.9061730832846726e-08 2.2242494743909763e-08 0.9999999999999996
  outer loop
    vertex 611.3139545508535 -202.94474053745003 11.776410000000006
    vertex 619.1200170508536 -262.23786553745003 11.776412500000005
    vertex 615.9738895508535 -197.10474053745003 11.776410000000006
  endloop
endfacet
facet normal -1.9061730832846726e-08 2.2242494743909763e-08 0.9999999999999996
  outer loop
    vertex 615.9738895508535 -197.10474053745003 11.776410000000006
    vertex 619.1200170508536 -262.23786553745003 11.776412500000005
    vertex 619.1200370508534 -206.17814053745005 11.776410000000006
  endloop
endfacet
facet normal -1.9061730832846726e-08 2.2242494743909763e-08 0.9999999999999996
  outer loop
    vertex 615.9738895508535 -197.10474053745003 11.776410000000006
    vertex 619.1200370508534 -206.17814053745005 11.776410000000006
    vertex 619.9544895508535 -198.75356553745002 11.776410000000006
  endloop
endfacet
facet normal -1.9061730832846726e-08 2.2242494743909763e-08 0.9999999999999996
  outer loop
    vertex 573.0950545508534 -259.8218905374501 11.776410000000006
    vertex 574.9071045508534 -250.39102803745004 11.776410000000006
    vertex 570.4721545508535 -256.40368303745004 11.776410000000006
  endloop
endfacet
facet normal -1.9061730832846726e-08 2.2242494743909763e-08 0.9999999999999996
  outer loop
    vertex 574.9071045508534 -250.39102803745004 11.776410000000006
    vertex 573.0950545508534 -259.8218905374501 11.776410000000006
    vertex 580.0506870508535 -257.09425803745006 11.776410000000006
  endloop
endfacet
facet normal -1.9061730832846726e-08 2.2242494743909763e-08 0.9999999999999996
  outer loop
    vertex 574.9071045508534 -250.39102803745004 11.776410000000006
    vertex 580.0506870508535 -257.09425803745006 11.776410000000006
    vertex 574.9071295508535 -218.02493053745005 11.776410000000006
  endloop
endfacet
facet normal -1.9061730832846726e-08 2.2242494743909763e-08 0.9999999999999996
  outer loop
    vertex 574.9071295508535 -218.02493053745005 11.776410000000006
    vertex 580.0506870508535 -257.09425803745006 11.776410000000006
    vertex 580.0507120508535 -211.32169803745003 11.776410000000006
  endloop
endfacet
facet normal -1.9061730832846726e-08 2.2242494743909763e-08 0.9999999999999996
  outer loop
    vertex 580.0507120508535 -211.32169803745003 11.776410000000006
    vertex 580.0506870508535 -257.09425803745006 11.776410000000006
    vertex 586.7539220508535 -262.23784053745004 11.776410000000006
  endloop
endfacet
facet normal -1.9061730832846726e-08 2.2242494743909763e-08 0.9999999999999996
  outer loop
    vertex 580.0507120508535 -211.32169803745003 11.776410000000006
    vertex 586.7539220508535 -262.23784053745004 11.776410000000006
    vertex 580.7412870508535 -201.74316553745004 11.776410000000006
  endloop
endfacet
facet normal -1.9061730832846726e-08 2.2242494743909763e-08 0.9999999999999996
  outer loop
    vertex 580.7412870508535 -201.74316553745004 11.776410000000006
    vertex 586.7539220508535 -262.23784053745004 11.776410000000006
    vertex 586.7539445508535 -206.17811553745005 11.776410000000006
  endloop
endfacet
facet normal -1.9061730832846726e-08 2.2242494743909763e-08 0.9999999999999996
  outer loop
    vertex 580.7412870508535 -201.74316553745004 11.776410000000006
    vertex 577.3230795508534 -204.36606553745 11.776410000000006
    vertex 580.0507120508535 -211.32169803745003 11.776410000000006
  endloop
endfacet
facet normal -1.9061730832846726e-08 2.2242494743909763e-08 0.9999999999999996
  outer loop
    vertex 571.6737295508535 -225.83101053745006 11.776410000000006
    vertex 567.4825545508535 -217.19047803745002 11.776410000000006
    vertex 565.8337295508535 -221.17107553745004 11.776410000000006
  endloop
endfacet
facet normal -1.9061730832846726e-08 2.2242494743909763e-08 0.9999999999999996
  outer loop
    vertex 567.4825545508535 -217.19047803745002 11.776410000000006
    vertex 571.6737295508535 -225.83101053745006 11.776410000000006
    vertex 574.9071295508535 -218.02493053745005 11.776410000000006
  endloop
endfacet
facet normal -1.9061730832846726e-08 2.2242494743909763e-08 0.9999999999999996
  outer loop
    vertex 574.9071295508535 -218.02493053745005 11.776410000000006
    vertex 571.6737295508535 -225.83101053745006 11.776410000000006
    vertex 574.9071045508534 -250.39102803745004 11.776410000000006
  endloop
endfacet
facet normal -1.9061730832846726e-08 2.2242494743909763e-08 0.9999999999999996
  outer loop
    vertex 630.9668295508535 -250.39104803745005 11.776412500000005
    vertex 634.2002295508535 -242.58496803745004 11.776412500000005
    vertex 630.9668545508536 -218.02495303745005 11.776410000000006
  endloop
endfacet
facet normal -1.9061730832846726e-08 2.2242494743909763e-08 0.9999999999999996
  outer loop
    vertex 634.2002295508535 -242.58496803745004 11.776412500000005
    vertex 630.9668295508535 -250.39104803745005 11.776412500000005
    vertex 638.3914295508536 -251.22550303745007 11.776412500000005
  endloop
endfacet
facet normal -1.9061730832846726e-08 2.2242494743909763e-08 0.9999999999999996
  outer loop
    vertex 634.2002295508535 -242.58496803745004 11.776412500000005
    vertex 638.3914295508536 -251.22550303745007 11.776412500000005
    vertex 640.0402295508535 -247.24490303745006 11.776412500000005
  endloop
endfacet
facet normal -1.9061730832846726e-08 2.2242494743909763e-08 0.9999999999999996
  outer loop
    vertex 634.2002295508535 -242.58496803745004 11.776412500000005
    vertex 634.2002295508535 -225.83104053745 11.776410000000006
    vertex 630.9668545508536 -218.02495303745005 11.776410000000006
  endloop
endfacet
facet normal -1.9061730832846726e-08 2.2242494743909763e-08 0.9999999999999996
  outer loop
    vertex 634.2002295508535 -225.83104053745 11.776410000000006
    vertex 634.2002295508535 -242.58496803745004 11.776412500000005
    vertex 635.3030795508535 -234.20800314127504 11.776410000000006
  endloop
endfacet
facet normal -1.9061730832846726e-08 2.2242494743909763e-08 0.9999999999999996
  outer loop
    vertex 634.2002295508535 -225.83104053745 11.776410000000006
    vertex 635.3030795508535 -234.20800314127504 11.776410000000006
    vertex 641.5878045508535 -226.94664803745005 11.776410000000006
  endloop
endfacet
facet normal -1.9061730832846726e-08 2.2242494743909763e-08 0.9999999999999996
  outer loop
    vertex 641.5878045508535 -226.94664803745005 11.776410000000006
    vertex 635.3030795508535 -234.20800314127504 11.776410000000006
    vertex 642.1501795508535 -231.21835803745006 11.776410000000006
  endloop
endfacet
facet normal -0.8047634626485228 0.5935956276674885 0.0
  outer loop
    vertex 574.9071045508534 -250.39102803745004 11.776410000000006
    vertex 570.4721545508535 -256.40368303745004 0.0
    vertex 570.4721545508535 -256.40368303745004 11.776410000000006
  endloop
endfacet
facet normal -0.8047634626485228 0.5935956276674885 0.0
  outer loop
    vertex 570.4721545508535 -256.40368303745004 0.0
    vertex 574.9071045508534 -250.39102803745004 11.776410000000006
    vertex 574.9071045508534 -250.39102803745004 0.0
  endloop
endfacet
facet normal 0.36507981220573016 -0.9309762245728023 0.0
  outer loop
    vertex 580.0506870508535 -257.09425803745006 11.776410000000006
    vertex 573.0950545508534 -259.8218905374501 0.0
    vertex 580.0506870508535 -257.09425803745006 0.0
  endloop
endfacet
facet normal 0.36507981220573016 -0.9309762245728023 0.0
  outer loop
    vertex 573.0950545508534 -259.8218905374501 0.0
    vertex 580.0506870508535 -257.09425803745006 11.776410000000006
    vertex 573.0950545508534 -259.8218905374501 11.776410000000006
  endloop
endfacet
facet normal -0.993743349954307 0.11168775412547115 0.0
  outer loop
    vertex 586.7539220508535 -262.23784053745004 11.776410000000006
    vertex 585.9194670508535 -269.66241553745004 0.0
    vertex 585.9194670508535 -269.66241553745004 11.776410000000006
  endloop
endfacet
facet normal -0.993743349954307 0.11168775412547115 0.0
  outer loop
    vertex 585.9194670508535 -269.66241553745004 0.0
    vertex 586.7539220508535 -262.23784053745004 11.776410000000006
    vertex 586.7539220508535 -262.23784053745004 0.0
  endloop
endfacet
facet normal 0.7816559165424982 -0.6237098910023052 0.0
  outer loop
    vertex 594.5600020508535 -265.47124053745006 0.0
    vertex 589.9000670508535 -271.3112405374501 11.776410000000006
    vertex 589.9000670508535 -271.3112405374501 0.0
  endloop
endfacet
facet normal 0.7816559165424982 -0.6237098910023052 0.0
  outer loop
    vertex 589.9000670508535 -271.3112405374501 11.776410000000006
    vertex 594.5600020508535 -265.47124053745006 0.0
    vertex 594.5600020508535 -265.47124053745006 11.776410000000006
  endloop
endfacet
endsolid Untitled-58c1cad8
