solid Untitled-58c1b0de
facet normal -0.5555705604940775 -0.8314693934910031 0.0
  outer loop
    vertex 1066.9728662060027 -761.5493465138047 7.099512500000037
    vertex 1058.5934787060025 -755.9504140138047 3.3839597790574766e-14
    vertex 1066.9728662060027 -761.5493465138047 3.3839597790574766e-14
  endloop
endfacet
facet normal -0.5555705604940775 -0.8314693934910031 0.0
  outer loop
    vertex 1058.5934787060025 -755.9504140138047 3.3839597790574766e-14
    vertex 1066.9728662060027 -761.5493465138047 7.099512500000037
    vertex 1058.5934787060025 -755.9504140138047 7.099512500000037
  endloop
endfacet
facet normal 0.5555701508614039 0.8314696671988925 0.0
  outer loop
    vertex 1063.3148162060024 -751.2290815138048 7.099512500000037
    vertex 1069.5280437060026 -755.3806265138047 3.3839597790574766e-14
    vertex 1063.3148162060024 -751.2290815138048 3.3839597790574766e-14
  endloop
endfacet
facet normal 0.5555701508614039 0.8314696671988925 0.0
  outer loop
    vertex 1069.5280437060026 -755.3806265138047 3.3839597790574766e-14
    vertex 1063.3148162060024 -751.2290815138048 7.099512500000037
    vertex 1069.5280437060026 -755.3806265138047 7.099512500000037
  endloop
endfacet
facet normal 0.8314701821148455 0.5555693802342834 0.0
  outer loop
    vertex 1059.1632812060027 -745.0158565138047 3.3839597790574766e-14
    vertex 1063.3148162060024 -751.2290815138048 7.099512500000037
    vertex 1063.3148162060024 -751.2290815138048 3.3839597790574766e-14
  endloop
endfacet
facet normal 0.8314701821148455 0.5555693802342834 0.0
  outer loop
    vertex 1063.3148162060024 -751.2290815138048 7.099512500000037
    vertex 1059.1632812060027 -745.0158565138047 3.3839597790574766e-14
    vertex 1059.1632812060027 -745.0158565138047 7.099512500000037
  endloop
endfacet
facet normal -0.9999999999979033 2.0478370642832845e-06 0.0
  outer loop
    vertex 1047.1687512060025 -719.2918415138047 7.099512500000037
    vertex 1047.1686762060026 -755.9158490138047 3.3839597790574766e-14
    vertex 1047.1686762060026 -755.9158490138047 7.099512500000037
  endloop
endfacet
facet normal -0.9999999999979033 2.0478370642832845e-06 0.0
  outer loop
    vertex 1047.1686762060026 -755.9158490138047 3.3839597790574766e-14
    vertex 1047.1687512060025 -719.2918415138047 7.099512500000037
    vertex 1047.1687512060025 -719.2918415138047 3.3839597790574766e-14
  endloop
endfacet
facet normal 0.9807851671996378 0.19509089112815767 0.0
  outer loop
    vertex 1057.7054487060027 -737.6868598395197 3.3839597790574766e-14
    vertex 1059.1632812060027 -745.0158565138047 7.099512500000037
    vertex 1059.1632812060027 -745.0158565138047 3.3839597790574766e-14
  endloop
endfacet
facet normal 0.9807851671996378 0.19509089112815767 0.0
  outer loop
    vertex 1059.1632812060027 -745.0158565138047 7.099512500000037
    vertex 1057.7054487060027 -737.6868598395197 3.3839597790574766e-14
    vertex 1057.7054487060027 -737.6868598395197 7.099512500000037
  endloop
endfacet
facet normal 0.9807851628775748 -0.19509091285656865 0.0
  outer loop
    vertex 1059.1632812060027 -730.3578640138047 3.3839597790574766e-14
    vertex 1057.7054487060027 -737.6868598395197 7.099512500000037
    vertex 1057.7054487060027 -737.6868598395197 3.3839597790574766e-14
  endloop
endfacet
facet normal 0.9807851628775748 -0.19509091285656865 0.0
  outer loop
    vertex 1057.7054487060027 -737.6868598395197 7.099512500000037
    vertex 1059.1632812060027 -730.3578640138047 3.3839597790574766e-14
    vertex 1059.1632812060027 -730.3578640138047 7.099512500000037
  endloop
endfacet
facet normal -0.2911737448876468 0.9566701888781232 0.0
  outer loop
    vertex 1047.1687512060025 -719.2918415138047 7.099512500000037
    vertex 1053.5714462060025 -717.3431065138047 3.3839597790574766e-14
    vertex 1047.1687512060025 -719.2918415138047 3.3839597790574766e-14
  endloop
endfacet
facet normal -0.2911737448876468 0.9566701888781232 0.0
  outer loop
    vertex 1053.5714462060025 -717.3431065138047 3.3839597790574766e-14
    vertex 1047.1687512060025 -719.2918415138047 7.099512500000037
    vertex 1053.5714462060025 -717.3431065138047 7.099512500000037
  endloop
endfacet
facet normal 0.8314700788514523 -0.5555695347791849 0.0
  outer loop
    vertex 1063.3148162060024 -724.1446415138047 3.3839597790574766e-14
    vertex 1059.1632812060027 -730.3578640138047 7.099512500000037
    vertex 1059.1632812060027 -730.3578640138047 3.3839597790574766e-14
  endloop
endfacet
facet normal 0.8314700788514523 -0.5555695347791849 0.0
  outer loop
    vertex 1059.1632812060027 -730.3578640138047 7.099512500000037
    vertex 1063.3148162060024 -724.1446415138047 3.3839597790574766e-14
    vertex 1063.3148162060024 -724.1446415138047 7.099512500000037
  endloop
endfacet
facet normal -0.6090667959094211 0.7931189306280815 0.0
  outer loop
    vertex 1053.5714462060025 -717.3431065138047 7.099512500000037
    vertex 1059.8179987060025 -712.5461365138048 3.3839597790574766e-14
    vertex 1053.5714462060025 -717.3431065138047 3.3839597790574766e-14
  endloop
endfacet
facet normal -0.6090667959094211 0.7931189306280815 0.0
  outer loop
    vertex 1059.8179987060025 -712.5461365138048 3.3839597790574766e-14
    vertex 1053.5714462060025 -717.3431065138047 7.099512500000037
    vertex 1059.8179987060025 -712.5461365138048 7.099512500000037
  endloop
endfacet
facet normal 0.5555701508614039 -0.8314696671988925 0.0
  outer loop
    vertex 1069.5280437060026 -719.9930965138046 7.099512500000037
    vertex 1063.3148162060024 -724.1446415138047 3.3839597790574766e-14
    vertex 1069.5280437060026 -719.9930965138046 3.3839597790574766e-14
  endloop
endfacet
facet normal 0.5555701508614039 -0.8314696671988925 0.0
  outer loop
    vertex 1063.3148162060024 -724.1446415138047 3.3839597790574766e-14
    vertex 1069.5280437060026 -719.9930965138046 7.099512500000037
    vertex 1063.3148162060024 -724.1446415138047 7.099512500000037
  endloop
endfacet
facet normal -0.8866181609623272 0.4625021477266683 0.0
  outer loop
    vertex 1064.8736237060025 -702.8544865138047 7.099512500000037
    vertex 1059.8179987060025 -712.5461365138048 3.3839597790574766e-14
    vertex 1059.8179987060025 -712.5461365138048 7.099512500000037
  endloop
endfacet
facet normal -0.8866181609623272 0.4625021477266683 0.0
  outer loop
    vertex 1059.8179987060025 -712.5461365138048 3.3839597790574766e-14
    vertex 1064.8736237060025 -702.8544865138047 7.099512500000037
    vertex 1064.8736237060025 -702.8544865138047 3.3839597790574766e-14
  endloop
endfacet
facet normal 0.19509028160241584 -0.9807852884420168 0.0
  outer loop
    vertex 1076.8569762060026 -718.5352815138046 7.099512500000037
    vertex 1069.5280437060026 -719.9930965138046 3.3839597790574766e-14
    vertex 1076.8569762060026 -718.5352815138046 3.3839597790574766e-14
  endloop
endfacet
facet normal 0.19509028160241584 -0.9807852884420168 0.0
  outer loop
    vertex 1069.5280437060026 -719.9930965138046 3.3839597790574766e-14
    vertex 1076.8569762060026 -718.5352815138046 7.099512500000037
    vertex 1069.5280437060026 -719.9930965138046 7.099512500000037
  endloop
endfacet
facet normal -0.0030254213856123605 -0.9999954234022472 0.0
  outer loop
    vertex 1058.5934787060025 -755.9504140138047 7.099512500000037
    vertex 1047.1686762060026 -755.9158490138047 3.3839597790574766e-14
    vertex 1058.5934787060025 -755.9504140138047 3.3839597790574766e-14
  endloop
endfacet
facet normal -0.0030254213856123605 -0.9999954234022472 0.0
  outer loop
    vertex 1047.1686762060026 -755.9158490138047 3.3839597790574766e-14
    vertex 1058.5934787060025 -755.9504140138047 7.099512500000037
    vertex 1047.1686762060026 -755.9158490138047 7.099512500000037
  endloop
endfacet
facet normal -0.9968442914696614 0.0793817268919541 0.0
  outer loop
    vertex 1068.6842312060026 -655.0023865138047 7.099512500000037
    vertex 1064.8736237060025 -702.8544865138047 3.3839597790574766e-14
    vertex 1064.8736237060025 -702.8544865138047 7.099512500000037
  endloop
endfacet
facet normal -0.9968442914696614 0.0793817268919541 0.0
  outer loop
    vertex 1064.8736237060025 -702.8544865138047 3.3839597790574766e-14
    vertex 1068.6842312060026 -655.0023865138047 7.099512500000037
    vertex 1068.6842312060026 -655.0023865138047 3.3839597790574766e-14
  endloop
endfacet
facet normal -0.9989734861154338 0.0452987200523086 0.0
  outer loop
    vertex 1070.1598637060024 -622.4602365138047 7.099512500000037
    vertex 1068.6842312060026 -655.0023865138047 3.3839597790574766e-14
    vertex 1068.6842312060026 -655.0023865138047 7.099512500000037
  endloop
endfacet
facet normal -0.9989734861154338 0.0452987200523086 0.0
  outer loop
    vertex 1068.6842312060026 -655.0023865138047 3.3839597790574766e-14
    vertex 1070.1598637060024 -622.4602365138047 7.099512500000037
    vertex 1070.1598637060024 -622.4602365138047 3.3839597790574766e-14
  endloop
endfacet
facet normal -0.8808043574260369 -0.47348039446138235 0.0
  outer loop
    vertex 1067.1109587060025 -619.0795115138047 7.536277500000035
    vertex 1069.8422062060024 -624.1603865138047 3.3839597790574766e-14
    vertex 1069.8422062060024 -624.1603865138047 7.536277500000035
  endloop
endfacet
facet normal -0.8808043574260369 -0.47348039446138235 0.0
  outer loop
    vertex 1069.8422062060024 -624.1603865138047 3.3839597790574766e-14
    vertex 1067.1109587060025 -619.0795115138047 7.536277500000035
    vertex 1067.1109587060025 -619.0795115138047 3.3839597790574766e-14
  endloop
endfacet
facet normal 0.7071046196431238 0.7071089427233638 0.0
  outer loop
    vertex 1071.1479462060026 -616.7487615138047 7.536277500000035
    vertex 1073.6014362060025 -619.2022365138047 3.3839597790574766e-14
    vertex 1071.1479462060026 -616.7487615138047 3.3839597790574766e-14
  endloop
endfacet
facet normal 0.7071046196431238 0.7071089427233638 0.0
  outer loop
    vertex 1073.6014362060025 -619.2022365138047 3.3839597790574766e-14
    vertex 1071.1479462060026 -616.7487615138047 7.536277500000035
    vertex 1073.6014362060025 -619.2022365138047 7.536277500000035
  endloop
endfacet
facet normal -0.9659258346249389 -0.2588190139926267 0.0
  outer loop
    vertex 1065.5883912060024 -613.3972115138047 7.536277500000035
    vertex 1067.1109587060025 -619.0795115138047 3.3839597790574766e-14
    vertex 1067.1109587060025 -619.0795115138047 7.536277500000035
  endloop
endfacet
facet normal -0.9659258346249389 -0.2588190139926267 0.0
  outer loop
    vertex 1067.1109587060025 -619.0795115138047 3.3839597790574766e-14
    vertex 1065.5883912060024 -613.3972115138047 7.536277500000035
    vertex 1065.5883912060024 -613.3972115138047 3.3839597790574766e-14
  endloop
endfacet
facet normal 0.9659261948917651 0.25881766945461077 0.0
  outer loop
    vertex 1070.2499062060026 -613.3972115138047 3.3839597790574766e-14
    vertex 1071.1479462060026 -616.7487615138047 7.536277500000035
    vertex 1071.1479462060026 -616.7487615138047 3.3839597790574766e-14
  endloop
endfacet
facet normal 0.9659261948917651 0.25881766945461077 0.0
  outer loop
    vertex 1071.1479462060026 -616.7487615138047 7.536277500000035
    vertex 1070.2499062060026 -613.3972115138047 3.3839597790574766e-14
    vertex 1070.2499062060026 -613.3972115138047 7.536277500000035
  endloop
endfacet
facet normal -0.9659255499464429 0.2588200764250373 0.0
  outer loop
    vertex 1067.1109587060025 -607.7149365138047 7.536277500000035
    vertex 1065.5883912060024 -613.3972115138047 3.3839597790574766e-14
    vertex 1065.5883912060024 -613.3972115138047 7.536277500000035
  endloop
endfacet
facet normal -0.9659255499464429 0.2588200764250373 0.0
  outer loop
    vertex 1065.5883912060024 -613.3972115138047 3.3839597790574766e-14
    vertex 1067.1109587060025 -607.7149365138047 7.536277500000035
    vertex 1067.1109587060025 -607.7149365138047 3.3839597790574766e-14
  endloop
endfacet
facet normal 0.9659257122436351 -0.25881947072549666 0.0
  outer loop
    vertex 1071.1479462060026 -610.0456865138046 3.3839597790574766e-14
    vertex 1070.2499062060026 -613.3972115138047 7.536277500000035
    vertex 1070.2499062060026 -613.3972115138047 3.3839597790574766e-14
  endloop
endfacet
facet normal 0.9659257122436351 -0.25881947072549666 0.0
  outer loop
    vertex 1070.2499062060026 -613.3972115138047 7.536277500000035
    vertex 1071.1479462060026 -610.0456865138046 3.3839597790574766e-14
    vertex 1071.1479462060026 -610.0456865138046 7.536277500000035
  endloop
endfacet
facet normal -0.7071076311312045 0.7071059312408691 0.0
  outer loop
    vertex 1071.2706737060025 -603.5552115138047 7.536277500000035
    vertex 1067.1109587060025 -607.7149365138047 3.3839597790574766e-14
    vertex 1067.1109587060025 -607.7149365138047 7.536277500000035
  endloop
endfacet
facet normal -0.7071076311312045 0.7071059312408691 0.0
  outer loop
    vertex 1067.1109587060025 -607.7149365138047 3.3839597790574766e-14
    vertex 1071.2706737060025 -603.5552115138047 7.536277500000035
    vertex 1071.2706737060025 -603.5552115138047 3.3839597790574766e-14
  endloop
endfacet
facet normal 0.7071082222044829 -0.7071053401656755 0.0
  outer loop
    vertex 1073.6014362060025 -607.5921865138047 3.3839597790574766e-14
    vertex 1071.1479462060026 -610.0456865138046 7.536277500000035
    vertex 1071.1479462060026 -610.0456865138046 3.3839597790574766e-14
  endloop
endfacet
facet normal 0.7071082222044829 -0.7071053401656755 0.0
  outer loop
    vertex 1071.1479462060026 -610.0456865138046 7.536277500000035
    vertex 1073.6014362060025 -607.5921865138047 3.3839597790574766e-14
    vertex 1073.6014362060025 -607.5921865138047 7.536277500000035
  endloop
endfacet
facet normal -0.25881981244562285 0.9659256206797772 0.0
  outer loop
    vertex 1071.2706737060025 -603.5552115138047 7.536277500000035
    vertex 1076.8569762060026 -602.0583615138047 3.3839597790574766e-14
    vertex 1071.2706737060025 -603.5552115138047 3.3839597790574766e-14
  endloop
endfacet
facet normal -0.25881981244562285 0.9659256206797772 0.0
  outer loop
    vertex 1076.8569762060026 -602.0583615138047 3.3839597790574766e-14
    vertex 1071.2706737060025 -603.5552115138047 7.536277500000035
    vertex 1076.8569762060026 -602.0583615138047 7.536277500000035
  endloop
endfacet
facet normal 0.2588136984759161 -0.9659272588974895 0.0
  outer loop
    vertex 1076.8569762060026 -606.7198865138047 7.536277500000035
    vertex 1073.6014362060025 -607.5921865138047 3.3839597790574766e-14
    vertex 1076.8569762060026 -606.7198865138047 3.3839597790574766e-14
  endloop
endfacet
facet normal 0.2588136984759161 -0.9659272588974895 0.0
  outer loop
    vertex 1073.6014362060025 -607.5921865138047 3.3839597790574766e-14
    vertex 1076.8569762060026 -606.7198865138047 7.536277500000035
    vertex 1073.6014362060025 -607.5921865138047 7.536277500000035
  endloop
endfacet
facet normal -0.08427777622833385 -0.9964422996009387 0.0
  outer loop
    vertex 1076.8569762060026 -624.7536865138047 7.536277500000035
    vertex 1069.8422062060024 -624.1603865138047 3.3839597790574766e-14
    vertex 1076.8569762060026 -624.7536865138047 3.3839597790574766e-14
  endloop
endfacet
facet normal -0.08427777622833385 -0.9964422996009387 0.0
  outer loop
    vertex 1069.8422062060024 -624.1603865138047 3.3839597790574766e-14
    vertex 1076.8569762060026 -624.7536865138047 7.536277500000035
    vertex 1069.8422062060024 -624.1603865138047 7.536277500000035
  endloop
endfacet
facet normal 0.2588206191594216 0.9659254045204183 2.207427378356141e-18
  outer loop
    vertex 1073.6014362060025 -619.2022365138047 7.536277500000035
    vertex 1076.8569762060026 -620.0745615138047 3.3839597790574766e-14
    vertex 1073.6014362060025 -619.2022365138047 3.3839597790574766e-14
  endloop
endfacet
facet normal 0.2588206191594216 0.9659254045204183 2.207427378356141e-18
  outer loop
    vertex 1076.8569762060026 -620.0745615138047 3.3839597790574766e-14
    vertex 1073.6014362060025 -619.2022365138047 7.536277500000035
    vertex 1076.8569762060026 -620.0745615138047 7.536275000000036
  endloop
endfacet
facet normal -0.19508968062353912 -0.9807854079839309 0.0
  outer loop
    vertex 1076.8569762060026 -763.5154115138048 7.099512500000037
    vertex 1066.9728662060027 -761.5493465138047 3.3839597790574766e-14
    vertex 1076.8569762060026 -763.5154115138048 3.3839597790574766e-14
  endloop
endfacet
facet normal -0.19508968062353912 -0.9807854079839309 0.0
  outer loop
    vertex 1066.9728662060027 -761.5493465138047 3.3839597790574766e-14
    vertex 1076.8569762060026 -763.5154115138048 7.099512500000037
    vertex 1066.9728662060027 -761.5493465138047 7.099512500000037
  endloop
endfacet
facet normal 0.19509028160241584 0.9807852884420168 0.0
  outer loop
    vertex 1069.5280437060026 -755.3806265138047 7.099512500000037
    vertex 1076.8569762060026 -756.8384415138047 3.3839597790574766e-14
    vertex 1069.5280437060026 -755.3806265138047 3.3839597790574766e-14
  endloop
endfacet
facet normal 0.19509028160241584 0.9807852884420168 0.0
  outer loop
    vertex 1076.8569762060026 -756.8384415138047 3.3839597790574766e-14
    vertex 1069.5280437060026 -755.3806265138047 7.099512500000037
    vertex 1076.8569762060026 -756.8384415138047 7.099512500000037
  endloop
endfacet
facet normal 0.5555709042743542 -0.8314691637840675 0.0
  outer loop
    vertex 1095.1204812060025 -755.9504140138047 7.099512500000037
    vertex 1086.7411012060024 -761.5493465138047 3.3839597790574766e-14
    vertex 1095.1204812060025 -755.9504140138047 3.3839597790574766e-14
  endloop
endfacet
facet normal 0.5555709042743542 -0.8314691637840675 0.0
  outer loop
    vertex 1086.7411012060024 -761.5493465138047 3.3839597790574766e-14
    vertex 1095.1204812060025 -755.9504140138047 7.099512500000037
    vertex 1086.7411012060024 -761.5493465138047 7.099512500000037
  endloop
endfacet
facet normal 1.9022432854058935e-15 -4.689316035150178e-09 1.0
  outer loop
    vertex 1058.5934787060025 -755.9504140138047 7.099512500000037
    vertex 1047.1687512060025 -719.2918415138047 7.099512500000037
    vertex 1047.1686762060026 -755.9158490138047 7.099512500000037
  endloop
endfacet
facet normal 1.9022432854058935e-15 -4.689316035150178e-09 1.0
  outer loop
    vertex 1047.1687512060025 -719.2918415138047 7.099512500000037
    vertex 1058.5934787060025 -755.9504140138047 7.099512500000037
    vertex 1053.5714462060025 -717.3431065138047 7.099512500000037
  endloop
endfacet
facet normal 1.9022432854058935e-15 -4.689316035150178e-09 1.0
  outer loop
    vertex 1053.5714462060025 -717.3431065138047 7.099512500000037
    vertex 1058.5934787060025 -755.9504140138047 7.099512500000037
    vertex 1057.7054487060027 -737.6868598395197 7.099512500000037
  endloop
endfacet
facet normal 1.9022432854058935e-15 -4.689316035150178e-09 1.0
  outer loop
    vertex 1057.7054487060027 -737.6868598395197 7.099512500000037
    vertex 1058.5934787060025 -755.9504140138047 7.099512500000037
    vertex 1059.1632812060027 -745.0158565138047 7.099512500000037
  endloop
endfacet
facet normal 1.9022432854058935e-15 -4.689316035150178e-09 1.0
  outer loop
    vertex 1059.1632812060027 -745.0158565138047 7.099512500000037
    vertex 1058.5934787060025 -755.9504140138047 7.099512500000037
    vertex 1066.9728662060027 -761.5493465138047 7.099512500000037
  endloop
endfacet
facet normal 1.9022432854058935e-15 -4.689316035150178e-09 1.0
  outer loop
    vertex 1059.1632812060027 -745.0158565138047 7.099512500000037
    vertex 1066.9728662060027 -761.5493465138047 7.099512500000037
    vertex 1063.3148162060024 -751.2290815138048 7.099512500000037
  endloop
endfacet
facet normal 1.9022432854058935e-15 -4.689316035150178e-09 1.0
  outer loop
    vertex 1063.3148162060024 -751.2290815138048 7.099512500000037
    vertex 1066.9728662060027 -761.5493465138047 7.099512500000037
    vertex 1069.5280437060026 -755.3806265138047 7.099512500000037
  endloop
endfacet
facet normal 1.9022432854058935e-15 -4.689316035150178e-09 1.0
  outer loop
    vertex 1069.5280437060026 -755.3806265138047 7.099512500000037
    vertex 1066.9728662060027 -761.5493465138047 7.099512500000037
    vertex 1076.8569762060026 -763.5154115138048 7.099512500000037
  endloop
endfacet
facet normal 1.9022432854058935e-15 -4.689316035150178e-09 1.0
  outer loop
    vertex 1069.5280437060026 -755.3806265138047 7.099512500000037
    vertex 1076.8569762060026 -763.5154115138048 7.099512500000037
    vertex 1076.8569762060026 -756.8384415138047 7.099512500000037
  endloop
endfacet
facet normal 1.9022432854058935e-15 -4.689316035150178e-09 1.0
  outer loop
    vertex 1076.8569762060026 -756.8384415138047 7.099512500000037
    vertex 1076.8569762060026 -763.5154115138048 7.099512500000037
    vertex 1086.7411012060024 -761.5493465138047 7.099512500000037
  endloop
endfacet
facet normal 1.9022432854058935e-15 -4.689316035150178e-09 1.0
  outer loop
    vertex 1076.8569762060026 -756.8384415138047 7.099512500000037
    vertex 1086.7411012060024 -761.5493465138047 7.099512500000037
    vertex 1084.1859262060025 -755.3806265138047 7.099512500000037
  endloop
endfacet
facet normal 1.9022432854058935e-15 -4.689316035150178e-09 1.0
  outer loop
    vertex 1084.1859262060025 -755.3806265138047 7.099512500000037
    vertex 1086.7411012060024 -761.5493465138047 7.099512500000037
    vertex 1090.3991362060026 -751.2290815138048 7.099512500000037
  endloop
endfacet
facet normal 1.9022432854058935e-15 -4.689316035150178e-09 1.0
  outer loop
    vertex 1090.3991362060026 -751.2290815138048 7.099512500000037
    vertex 1086.7411012060024 -761.5493465138047 7.099512500000037
    vertex 1095.1204812060025 -755.9504140138047 7.099512500000037
  endloop
endfacet
facet normal 1.9022432854058935e-15 -4.689316035150178e-09 1.0
  outer loop
    vertex 1090.3991362060026 -751.2290815138048 7.099512500000037
    vertex 1095.1204812060025 -755.9504140138047 7.099512500000037
    vertex 1094.5506862060024 -745.0158565138047 7.099512500000037
  endloop
endfacet
facet normal 1.9022432854058935e-15 -4.689316035150178e-09 1.0
  outer loop
    vertex 1094.5506862060024 -745.0158565138047 7.099512500000037
    vertex 1095.1204812060025 -755.9504140138047 7.099512500000037
    vertex 1096.0085112060024 -737.6868598395197 7.099512500000037
  endloop
endfacet
facet normal 1.9022432854058935e-15 -4.689316035150178e-09 1.0
  outer loop
    vertex 1096.0085112060024 -737.6868598395197 7.099512500000037
    vertex 1095.1204812060025 -755.9504140138047 7.099512500000037
    vertex 1106.5453012060025 -755.9158490138047 7.099512500000037
  endloop
endfacet
facet normal 1.9022432854058935e-15 -4.689316035150178e-09 1.0
  outer loop
    vertex 1096.0085112060024 -737.6868598395197 7.099512500000037
    vertex 1106.5453012060025 -755.9158490138047 7.099512500000037
    vertex 1100.1425287060026 -717.3431065138047 7.099512500000037
  endloop
endfacet
facet normal 1.9022432854058935e-15 -4.689316035150178e-09 1.0
  outer loop
    vertex 1100.1425287060026 -717.3431065138047 7.099512500000037
    vertex 1106.5453012060025 -755.9158490138047 7.099512500000037
    vertex 1106.5452512060026 -719.2918415138047 7.099512500000037
  endloop
endfacet
facet normal 1.9022432854058935e-15 -4.689316035150178e-09 1.0
  outer loop
    vertex 1057.7054487060027 -737.6868598395197 7.099512500000037
    vertex 1059.8179987060025 -712.5461365138048 7.099512500000037
    vertex 1053.5714462060025 -717.3431065138047 7.099512500000037
  endloop
endfacet
facet normal 1.9022432854058935e-15 -4.689316035150178e-09 1.0
  outer loop
    vertex 1059.8179987060025 -712.5461365138048 7.099512500000037
    vertex 1057.7054487060027 -737.6868598395197 7.099512500000037
    vertex 1059.1632812060027 -730.3578640138047 7.099512500000037
  endloop
endfacet
facet normal 1.9022432854058935e-15 -4.689316035150178e-09 1.0
  outer loop
    vertex 1059.8179987060025 -712.5461365138048 7.099512500000037
    vertex 1059.1632812060027 -730.3578640138047 7.099512500000037
    vertex 1063.3148162060024 -724.1446415138047 7.099512500000037
  endloop
endfacet
facet normal 1.9022432854058935e-15 -4.689316035150178e-09 1.0
  outer loop
    vertex 1059.8179987060025 -712.5461365138048 7.099512500000037
    vertex 1063.3148162060024 -724.1446415138047 7.099512500000037
    vertex 1064.8736237060025 -702.8544865138047 7.099512500000037
  endloop
endfacet
facet normal 1.9022432854058935e-15 -4.689316035150178e-09 1.0
  outer loop
    vertex 1064.8736237060025 -702.8544865138047 7.099512500000037
    vertex 1063.3148162060024 -724.1446415138047 7.099512500000037
    vertex 1069.5280437060026 -719.9930965138046 7.099512500000037
  endloop
endfacet
facet normal 1.9022432854058935e-15 -4.689316035150178e-09 1.0
  outer loop
    vertex 1064.8736237060025 -702.8544865138047 7.099512500000037
    vertex 1069.5280437060026 -719.9930965138046 7.099512500000037
    vertex 1068.6842312060026 -655.0023865138047 7.099512500000037
  endloop
endfacet
facet normal 1.9022432854058935e-15 -4.689316035150178e-09 1.0
  outer loop
    vertex 1068.6842312060026 -655.0023865138047 7.099512500000037
    vertex 1069.5280437060026 -719.9930965138046 7.099512500000037
    vertex 1070.1598637060024 -622.4602365138047 7.099512500000037
  endloop
endfacet
facet normal 1.9022432854058935e-15 -4.689316035150178e-09 1.0
  outer loop
    vertex 1070.1598637060024 -622.4602365138047 7.099512500000037
    vertex 1069.5280437060026 -719.9930965138046 7.099512500000037
    vertex 1076.8569762060026 -718.5352815138046 7.099512500000037
  endloop
endfacet
facet normal 1.9022432854058935e-15 -4.689316035150178e-09 1.0
  outer loop
    vertex 1070.1598637060024 -622.4602365138047 7.099512500000037
    vertex 1076.8569762060026 -718.5352815138046 7.099512500000037
    vertex 1076.8569762060026 -623.6660615138046 7.099515000000036
  endloop
endfacet
facet normal 1.9022432854058935e-15 -4.689316035150178e-09 1.0
  outer loop
    vertex 1076.8569762060026 -623.6660615138046 7.099515000000036
    vertex 1076.8569762060026 -718.5352815138046 7.099512500000037
    vertex 1084.1859262060025 -719.9930965138046 7.099512500000037
  endloop
endfacet
facet normal 1.9022432854058935e-15 -4.689316035150178e-09 1.0
  outer loop
    vertex 1076.8569762060026 -623.6660615138046 7.099515000000036
    vertex 1084.1859262060025 -719.9930965138046 7.099512500000037
    vertex 1083.5540887060026 -622.4602365138047 7.099512500000037
  endloop
endfacet
facet normal 1.9022432854058935e-15 -4.689316035150178e-09 1.0
  outer loop
    vertex 1083.5540887060026 -622.4602365138047 7.099512500000037
    vertex 1084.1859262060025 -719.9930965138046 7.099512500000037
    vertex 1085.0297362060026 -655.0023865138047 7.099512500000037
  endloop
endfacet
facet normal 1.9022432854058935e-15 -4.689316035150178e-09 1.0
  outer loop
    vertex 1085.0297362060026 -655.0023865138047 7.099512500000037
    vertex 1084.1859262060025 -719.9930965138046 7.099512500000037
    vertex 1090.3991362060026 -724.1446415138047 7.099512500000037
  endloop
endfacet
facet normal 1.9022432854058935e-15 -4.689316035150178e-09 1.0
  outer loop
    vertex 1085.0297362060026 -655.0023865138047 7.099512500000037
    vertex 1090.3991362060026 -724.1446415138047 7.099512500000037
    vertex 1088.8403587060025 -702.8544865138047 7.099512500000037
  endloop
endfacet
facet normal 1.9022432854058935e-15 -4.689316035150178e-09 1.0
  outer loop
    vertex 1088.8403587060025 -702.8544865138047 7.099512500000037
    vertex 1090.3991362060026 -724.1446415138047 7.099512500000037
    vertex 1093.8959612060025 -712.5461365138048 7.099512500000037
  endloop
endfacet
facet normal 1.9022432854058935e-15 -4.689316035150178e-09 1.0
  outer loop
    vertex 1093.8959612060025 -712.5461365138048 7.099512500000037
    vertex 1090.3991362060026 -724.1446415138047 7.099512500000037
    vertex 1094.5506862060024 -730.3578640138047 7.099512500000037
  endloop
endfacet
facet normal 1.9022432854058935e-15 -4.689316035150178e-09 1.0
  outer loop
    vertex 1093.8959612060025 -712.5461365138048 7.099512500000037
    vertex 1094.5506862060024 -730.3578640138047 7.099512500000037
    vertex 1100.1425287060026 -717.3431065138047 7.099512500000037
  endloop
endfacet
facet normal 1.9022432854058935e-15 -4.689316035150178e-09 1.0
  outer loop
    vertex 1100.1425287060026 -717.3431065138047 7.099512500000037
    vertex 1094.5506862060024 -730.3578640138047 7.099512500000037
    vertex 1096.0085112060024 -737.6868598395197 7.099512500000037
  endloop
endfacet
facet normal -0.5555712326768423 0.8314689443520631 0.0
  outer loop
    vertex 1084.1859262060025 -755.3806265138047 7.099512500000037
    vertex 1090.3991362060026 -751.2290815138048 3.3839597790574766e-14
    vertex 1084.1859262060025 -755.3806265138047 3.3839597790574766e-14
  endloop
endfacet
facet normal -0.5555712326768423 0.8314689443520631 0.0
  outer loop
    vertex 1090.3991362060026 -751.2290815138048 3.3839597790574766e-14
    vertex 1084.1859262060025 -755.3806265138047 7.099512500000037
    vertex 1090.3991362060026 -751.2290815138048 7.099512500000037
  endloop
endfacet
facet normal 0.0 0.0 -1.0
  outer loop
    vertex 1059.8179987060025 -712.5461365138048 3.3839597790574766e-14
    vertex 1057.7054487060027 -737.6868598395197 3.3839597790574766e-14
    vertex 1053.5714462060025 -717.3431065138047 3.3839597790574766e-14
  endloop
endfacet
facet normal 0.0 0.0 -1.0
  outer loop
    vertex 1057.7054487060027 -737.6868598395197 3.3839597790574766e-14
    vertex 1059.8179987060025 -712.5461365138048 3.3839597790574766e-14
    vertex 1059.1632812060027 -730.3578640138047 3.3839597790574766e-14
  endloop
endfacet
facet normal 0.0 0.0 -1.0
  outer loop
    vertex 1059.1632812060027 -730.3578640138047 3.3839597790574766e-14
    vertex 1059.8179987060025 -712.5461365138048 3.3839597790574766e-14
    vertex 1063.3148162060024 -724.1446415138047 3.3839597790574766e-14
  endloop
endfacet
facet normal 0.0 0.0 -1.0
  outer loop
    vertex 1063.3148162060024 -724.1446415138047 3.3839597790574766e-14
    vertex 1059.8179987060025 -712.5461365138048 3.3839597790574766e-14
    vertex 1064.8736237060025 -702.8544865138047 3.3839597790574766e-14
  endloop
endfacet
facet normal 0.0 0.0 -1.0
  outer loop
    vertex 1063.3148162060024 -724.1446415138047 3.3839597790574766e-14
    vertex 1064.8736237060025 -702.8544865138047 3.3839597790574766e-14
    vertex 1069.5280437060026 -719.9930965138046 3.3839597790574766e-14
  endloop
endfacet
facet normal 0.0 0.0 -1.0
  outer loop
    vertex 1069.5280437060026 -719.9930965138046 3.3839597790574766e-14
    vertex 1064.8736237060025 -702.8544865138047 3.3839597790574766e-14
    vertex 1068.6842312060026 -655.0023865138047 3.3839597790574766e-14
  endloop
endfacet
facet normal 0.0 0.0 -1.0
  outer loop
    vertex 1069.5280437060026 -719.9930965138046 3.3839597790574766e-14
    vertex 1068.6842312060026 -655.0023865138047 3.3839597790574766e-14
    vertex 1070.1598637060024 -622.4602365138047 3.3839597790574766e-14
  endloop
endfacet
facet normal 0.0 0.0 -1.0
  outer loop
    vertex 1069.5280437060026 -719.9930965138046 3.3839597790574766e-14
    vertex 1070.1598637060024 -622.4602365138047 3.3839597790574766e-14
    vertex 1076.8569762060026 -718.5352815138046 3.3839597790574766e-14
  endloop
endfacet
facet normal 0.0 0.0 -1.0
  outer loop
    vertex 1076.8569762060026 -718.5352815138046 3.3839597790574766e-14
    vertex 1070.1598637060024 -622.4602365138047 3.3839597790574766e-14
    vertex 1076.8569762060026 -623.6660615138046 3.3839597790574766e-14
  endloop
endfacet
facet normal 0.0 0.0 -1.0
  outer loop
    vertex 1076.8569762060026 -718.5352815138046 3.3839597790574766e-14
    vertex 1076.8569762060026 -623.6660615138046 3.3839597790574766e-14
    vertex 1083.5540887060026 -622.4602365138047 3.3839597790574766e-14
  endloop
endfacet
facet normal 0.0 0.0 -1.0
  outer loop
    vertex 1076.8569762060026 -718.5352815138046 3.3839597790574766e-14
    vertex 1083.5540887060026 -622.4602365138047 3.3839597790574766e-14
    vertex 1084.1859262060025 -719.9930965138046 3.3839597790574766e-14
  endloop
endfacet
facet normal 0.0 0.0 -1.0
  outer loop
    vertex 1084.1859262060025 -719.9930965138046 3.3839597790574766e-14
    vertex 1083.5540887060026 -622.4602365138047 3.3839597790574766e-14
    vertex 1085.0297362060026 -655.0023865138047 3.3839597790574766e-14
  endloop
endfacet
facet normal 0.0 0.0 -1.0
  outer loop
    vertex 1084.1859262060025 -719.9930965138046 3.3839597790574766e-14
    vertex 1085.0297362060026 -655.0023865138047 3.3839597790574766e-14
    vertex 1090.3991362060026 -724.1446415138047 3.3839597790574766e-14
  endloop
endfacet
facet normal 0.0 0.0 -1.0
  outer loop
    vertex 1090.3991362060026 -724.1446415138047 3.3839597790574766e-14
    vertex 1085.0297362060026 -655.0023865138047 3.3839597790574766e-14
    vertex 1088.8403587060025 -702.8544865138047 3.3839597790574766e-14
  endloop
endfacet
facet normal 0.0 0.0 -1.0
  outer loop
    vertex 1090.3991362060026 -724.1446415138047 3.3839597790574766e-14
    vertex 1088.8403587060025 -702.8544865138047 3.3839597790574766e-14
    vertex 1093.8959612060025 -712.5461365138048 3.3839597790574766e-14
  endloop
endfacet
facet normal 0.0 0.0 -1.0
  outer loop
    vertex 1090.3991362060026 -724.1446415138047 3.3839597790574766e-14
    vertex 1093.8959612060025 -712.5461365138048 3.3839597790574766e-14
    vertex 1094.5506862060024 -730.3578640138047 3.3839597790574766e-14
  endloop
endfacet
facet normal 0.0 0.0 -1.0
  outer loop
    vertex 1094.5506862060024 -730.3578640138047 3.3839597790574766e-14
    vertex 1093.8959612060025 -712.5461365138048 3.3839597790574766e-14
    vertex 1100.1425287060026 -717.3431065138047 3.3839597790574766e-14
  endloop
endfacet
facet normal 0.0 0.0 -1.0
  outer loop
    vertex 1094.5506862060024 -730.3578640138047 3.3839597790574766e-14
    vertex 1100.1425287060026 -717.3431065138047 3.3839597790574766e-14
    vertex 1096.0085112060024 -737.6868598395197 3.3839597790574766e-14
  endloop
endfacet
facet normal 0.0 0.0 -1.0
  outer loop
    vertex 1047.1687512060025 -719.2918415138047 3.3839597790574766e-14
    vertex 1058.5934787060025 -755.9504140138047 3.3839597790574766e-14
    vertex 1047.1686762060026 -755.9158490138047 3.3839597790574766e-14
  endloop
endfacet
facet normal 0.0 0.0 -1.0
  outer loop
    vertex 1058.5934787060025 -755.9504140138047 3.3839597790574766e-14
    vertex 1047.1687512060025 -719.2918415138047 3.3839597790574766e-14
    vertex 1053.5714462060025 -717.3431065138047 3.3839597790574766e-14
  endloop
endfacet
facet normal 0.0 0.0 -1.0
  outer loop
    vertex 1058.5934787060025 -755.9504140138047 3.3839597790574766e-14
    vertex 1053.5714462060025 -717.3431065138047 3.3839597790574766e-14
    vertex 1057.7054487060027 -737.6868598395197 3.3839597790574766e-14
  endloop
endfacet
facet normal 0.0 0.0 -1.0
  outer loop
    vertex 1058.5934787060025 -755.9504140138047 3.3839597790574766e-14
    vertex 1057.7054487060027 -737.6868598395197 3.3839597790574766e-14
    vertex 1059.1632812060027 -745.0158565138047 3.3839597790574766e-14
  endloop
endfacet
facet normal 0.0 0.0 -1.0
  outer loop
    vertex 1058.5934787060025 -755.9504140138047 3.3839597790574766e-14
    vertex 1059.1632812060027 -745.0158565138047 3.3839597790574766e-14
    vertex 1066.9728662060027 -761.5493465138047 3.3839597790574766e-14
  endloop
endfacet
facet normal 0.0 0.0 -1.0
  outer loop
    vertex 1066.9728662060027 -761.5493465138047 3.3839597790574766e-14
    vertex 1059.1632812060027 -745.0158565138047 3.3839597790574766e-14
    vertex 1063.3148162060024 -751.2290815138048 3.3839597790574766e-14
  endloop
endfacet
facet normal 0.0 0.0 -1.0
  outer loop
    vertex 1066.9728662060027 -761.5493465138047 3.3839597790574766e-14
    vertex 1063.3148162060024 -751.2290815138048 3.3839597790574766e-14
    vertex 1069.5280437060026 -755.3806265138047 3.3839597790574766e-14
  endloop
endfacet
facet normal 0.0 0.0 -1.0
  outer loop
    vertex 1066.9728662060027 -761.5493465138047 3.3839597790574766e-14
    vertex 1069.5280437060026 -755.3806265138047 3.3839597790574766e-14
    vertex 1076.8569762060026 -763.5154115138048 3.3839597790574766e-14
  endloop
endfacet
facet normal 0.0 0.0 -1.0
  outer loop
    vertex 1076.8569762060026 -763.5154115138048 3.3839597790574766e-14
    vertex 1069.5280437060026 -755.3806265138047 3.3839597790574766e-14
    vertex 1076.8569762060026 -756.8384415138047 3.3839597790574766e-14
  endloop
endfacet
facet normal 0.0 0.0 -1.0
  outer loop
    vertex 1076.8569762060026 -763.5154115138048 3.3839597790574766e-14
    vertex 1076.8569762060026 -756.8384415138047 3.3839597790574766e-14
    vertex 1084.1859262060025 -755.3806265138047 3.3839597790574766e-14
  endloop
endfacet
facet normal 0.0 0.0 -1.0
  outer loop
    vertex 1076.8569762060026 -763.5154115138048 3.3839597790574766e-14
    vertex 1084.1859262060025 -755.3806265138047 3.3839597790574766e-14
    vertex 1086.7411012060024 -761.5493465138047 3.3839597790574766e-14
  endloop
endfacet
facet normal 0.0 0.0 -1.0
  outer loop
    vertex 1086.7411012060024 -761.5493465138047 3.3839597790574766e-14
    vertex 1084.1859262060025 -755.3806265138047 3.3839597790574766e-14
    vertex 1090.3991362060026 -751.2290815138048 3.3839597790574766e-14
  endloop
endfacet
facet normal 0.0 0.0 -1.0
  outer loop
    vertex 1086.7411012060024 -761.5493465138047 3.3839597790574766e-14
    vertex 1090.3991362060026 -751.2290815138048 3.3839597790574766e-14
    vertex 1095.1204812060025 -755.9504140138047 3.3839597790574766e-14
  endloop
endfacet
facet normal 0.0 0.0 -1.0
  outer loop
    vertex 1095.1204812060025 -755.9504140138047 3.3839597790574766e-14
    vertex 1090.3991362060026 -751.2290815138048 3.3839597790574766e-14
    vertex 1094.5506862060024 -745.0158565138047 3.3839597790574766e-14
  endloop
endfacet
facet normal 0.0 0.0 -1.0
  outer loop
    vertex 1095.1204812060025 -755.9504140138047 3.3839597790574766e-14
    vertex 1094.5506862060024 -745.0158565138047 3.3839597790574766e-14
    vertex 1096.0085112060024 -737.6868598395197 3.3839597790574766e-14
  endloop
endfacet
facet normal 0.0 0.0 -1.0
  outer loop
    vertex 1095.1204812060025 -755.9504140138047 3.3839597790574766e-14
    vertex 1096.0085112060024 -737.6868598395197 3.3839597790574766e-14
    vertex 1106.5453012060025 -755.9158490138047 3.3839597790574766e-14
  endloop
endfacet
facet normal 0.0 0.0 -1.0
  outer loop
    vertex 1106.5453012060025 -755.9158490138047 3.3839597790574766e-14
    vertex 1096.0085112060024 -737.6868598395197 3.3839597790574766e-14
    vertex 1100.1425287060026 -717.3431065138047 3.3839597790574766e-14
  endloop
endfacet
facet normal 0.0 0.0 -1.0
  outer loop
    vertex 1106.5453012060025 -755.9158490138047 3.3839597790574766e-14
    vertex 1100.1425287060026 -717.3431065138047 3.3839597790574766e-14
    vertex 1106.5452512060026 -719.2918415138047 3.3839597790574766e-14
  endloop
endfacet
facet normal -0.8314692548455132 0.5555707679914839 0.0
  outer loop
    vertex 1094.5506862060024 -745.0158565138047 7.099512500000037
    vertex 1090.3991362060026 -751.2290815138048 3.3839597790574766e-14
    vertex 1090.3991362060026 -751.2290815138048 7.099512500000037
  endloop
endfacet
facet normal -0.8314692548455132 0.5555707679914839 0.0
  outer loop
    vertex 1090.3991362060026 -751.2290815138048 3.3839597790574766e-14
    vertex 1094.5506862060024 -745.0158565138047 7.099512500000037
    vertex 1094.5506862060024 -745.0158565138047 3.3839597790574766e-14
  endloop
endfacet
facet normal 0.9999999999990682 1.3652247094724481e-06 0.0
  outer loop
    vertex 1106.5452512060026 -719.2918415138047 3.3839597790574766e-14
    vertex 1106.5453012060025 -755.9158490138047 7.099512500000037
    vertex 1106.5453012060025 -755.9158490138047 3.3839597790574766e-14
  endloop
endfacet
facet normal 0.9999999999990682 1.3652247094724481e-06 0.0
  outer loop
    vertex 1106.5453012060025 -755.9158490138047 7.099512500000037
    vertex 1106.5452512060026 -719.2918415138047 3.3839597790574766e-14
    vertex 1106.5452512060026 -719.2918415138047 7.099512500000037
  endloop
endfacet
facet normal -0.9807853592435392 0.19508992565871242 0.0
  outer loop
    vertex 1096.0085112060024 -737.6868598395197 7.099512500000037
    vertex 1094.5506862060024 -745.0158565138047 3.3839597790574766e-14
    vertex 1094.5506862060024 -745.0158565138047 7.099512500000037
  endloop
endfacet
facet normal -0.9807853592435392 0.19508992565871242 0.0
  outer loop
    vertex 1094.5506862060024 -745.0158565138047 3.3839597790574766e-14
    vertex 1096.0085112060024 -737.6868598395197 7.099512500000037
    vertex 1096.0085112060024 -737.6868598395197 3.3839597790574766e-14
  endloop
endfacet
facet normal -0.9807853549215181 -0.19508994738702445 0.0
  outer loop
    vertex 1094.5506862060024 -730.3578640138047 7.099512500000037
    vertex 1096.0085112060024 -737.6868598395197 3.3839597790574766e-14
    vertex 1096.0085112060024 -737.6868598395197 7.099512500000037
  endloop
endfacet
facet normal -0.9807853549215181 -0.19508994738702445 0.0
  outer loop
    vertex 1096.0085112060024 -737.6868598395197 3.3839597790574766e-14
    vertex 1094.5506862060024 -730.3578640138047 7.099512500000037
    vertex 1094.5506862060024 -730.3578640138047 3.3839597790574766e-14
  endloop
endfacet
facet normal 0.2911726003108288 0.9566705372426971 0.0
  outer loop
    vertex 1100.1425287060026 -717.3431065138047 7.099512500000037
    vertex 1106.5452512060026 -719.2918415138047 3.3839597790574766e-14
    vertex 1100.1425287060026 -717.3431065138047 3.3839597790574766e-14
  endloop
endfacet
facet normal 0.2911726003108288 0.9566705372426971 0.0
  outer loop
    vertex 1106.5452512060026 -719.2918415138047 3.3839597790574766e-14
    vertex 1100.1425287060026 -717.3431065138047 7.099512500000037
    vertex 1106.5452512060026 -719.2918415138047 7.099512500000037
  endloop
endfacet
facet normal -0.8314691515817192 -0.5555709225364267 0.0
  outer loop
    vertex 1090.3991362060026 -724.1446415138047 7.099512500000037
    vertex 1094.5506862060024 -730.3578640138047 3.3839597790574766e-14
    vertex 1094.5506862060024 -730.3578640138047 7.099512500000037
  endloop
endfacet
facet normal -0.8314691515817192 -0.5555709225364267 0.0
  outer loop
    vertex 1094.5506862060024 -730.3578640138047 3.3839597790574766e-14
    vertex 1090.3991362060026 -724.1446415138047 7.099512500000037
    vertex 1090.3991362060026 -724.1446415138047 3.3839597790574766e-14
  endloop
endfacet
facet normal 0.6090658759006709 0.7931196371376446 0.0
  outer loop
    vertex 1093.8959612060025 -712.5461365138048 7.099512500000037
    vertex 1100.1425287060026 -717.3431065138047 3.3839597790574766e-14
    vertex 1093.8959612060025 -712.5461365138048 3.3839597790574766e-14
  endloop
endfacet
facet normal 0.6090658759006709 0.7931196371376446 0.0
  outer loop
    vertex 1100.1425287060026 -717.3431065138047 3.3839597790574766e-14
    vertex 1093.8959612060025 -712.5461365138048 7.099512500000037
    vertex 1100.1425287060026 -717.3431065138047 7.099512500000037
  endloop
endfacet
facet normal -0.5555712326768423 -0.8314689443520631 0.0
  outer loop
    vertex 1090.3991362060026 -724.1446415138047 7.099512500000037
    vertex 1084.1859262060025 -719.9930965138046 3.3839597790574766e-14
    vertex 1090.3991362060026 -724.1446415138047 3.3839597790574766e-14
  endloop
endfacet
facet normal -0.5555712326768423 -0.8314689443520631 0.0
  outer loop
    vertex 1084.1859262060025 -719.9930965138046 3.3839597790574766e-14
    vertex 1090.3991362060026 -724.1446415138047 7.099512500000037
    vertex 1084.1859262060025 -719.9930965138046 7.099512500000037
  endloop
endfacet
facet normal 0.886619005018693 0.4625005296641972 0.0
  outer loop
    vertex 1088.8403587060025 -702.8544865138047 3.3839597790574766e-14
    vertex 1093.8959612060025 -712.5461365138048 7.099512500000037
    vertex 1093.8959612060025 -712.5461365138048 3.3839597790574766e-14
  endloop
endfacet
facet normal 0.886619005018693 0.4625005296641972 0.0
  outer loop
    vertex 1093.8959612060025 -712.5461365138048 7.099512500000037
    vertex 1088.8403587060025 -702.8544865138047 3.3839597790574766e-14
    vertex 1088.8403587060025 -702.8544865138047 7.099512500000037
  endloop
endfacet
facet normal -0.19508983349733267 -0.9807853775755342 0.0
  outer loop
    vertex 1084.1859262060025 -719.9930965138046 7.099512500000037
    vertex 1076.8569762060026 -718.5352815138046 3.3839597790574766e-14
    vertex 1084.1859262060025 -719.9930965138046 3.3839597790574766e-14
  endloop
endfacet
facet normal -0.19508983349733267 -0.9807853775755342 0.0
  outer loop
    vertex 1076.8569762060026 -718.5352815138046 3.3839597790574766e-14
    vertex 1084.1859262060025 -719.9930965138046 7.099512500000037
    vertex 1076.8569762060026 -718.5352815138046 7.099512500000037
  endloop
endfacet
facet normal 0.003025416751457106 -0.9999954234162675 0.0
  outer loop
    vertex 1106.5453012060025 -755.9158490138047 7.099512500000037
    vertex 1095.1204812060025 -755.9504140138047 3.3839597790574766e-14
    vertex 1106.5453012060025 -755.9158490138047 3.3839597790574766e-14
  endloop
endfacet
facet normal 0.003025416751457106 -0.9999954234162675 0.0
  outer loop
    vertex 1095.1204812060025 -755.9504140138047 3.3839597790574766e-14
    vertex 1106.5453012060025 -755.9158490138047 7.099512500000037
    vertex 1095.1204812060025 -755.9504140138047 7.099512500000037
  endloop
endfacet
facet normal 0.9968442667429539 0.0793820373995436 0.0
  outer loop
    vertex 1085.0297362060026 -655.0023865138047 3.3839597790574766e-14
    vertex 1088.8403587060025 -702.8544865138047 7.099512500000037
    vertex 1088.8403587060025 -702.8544865138047 3.3839597790574766e-14
  endloop
endfacet
facet normal 0.9968442667429539 0.0793820373995436 0.0
  outer loop
    vertex 1088.8403587060025 -702.8544865138047 7.099512500000037
    vertex 1085.0297362060026 -655.0023865138047 3.3839597790574766e-14
    vertex 1085.0297362060026 -655.0023865138047 7.099512500000037
  endloop
endfacet
facet normal 0.9989734652781519 0.04529917957492183 0.0
  outer loop
    vertex 1083.5540887060026 -622.4602365138047 3.3839597790574766e-14
    vertex 1085.0297362060026 -655.0023865138047 7.099512500000037
    vertex 1085.0297362060026 -655.0023865138047 3.3839597790574766e-14
  endloop
endfacet
facet normal 0.9989734652781519 0.04529917957492183 0.0
  outer loop
    vertex 1085.0297362060026 -655.0023865138047 7.099512500000037
    vertex 1083.5540887060026 -622.4602365138047 3.3839597790574766e-14
    vertex 1083.5540887060026 -622.4602365138047 7.099512500000037
  endloop
endfacet
facet normal 0.8808043574260369 -0.47348039446138235 0.0
  outer loop
    vertex 1086.6030087060026 -619.0795115138047 3.3839597790574766e-14
    vertex 1083.8717612060025 -624.1603865138047 7.536277500000035
    vertex 1083.8717612060025 -624.1603865138047 3.3839597790574766e-14
  endloop
endfacet
facet normal 0.8808043574260369 -0.47348039446138235 0.0
  outer loop
    vertex 1083.8717612060025 -624.1603865138047 7.536277500000035
    vertex 1086.6030087060026 -619.0795115138047 3.3839597790574766e-14
    vertex 1086.6030087060026 -619.0795115138047 7.536277500000035
  endloop
endfacet
facet normal 1.6985724793455888e-10 -1.4972445412099088e-08 0.9999999999999999
  outer loop
    vertex 1069.8422062060024 -624.1603865138047 7.536277500000035
    vertex 1071.1479462060026 -616.7487615138047 7.536277500000035
    vertex 1070.2499062060026 -613.3972115138047 7.536277500000035
  endloop
endfacet
facet normal 1.6985724793455888e-10 -1.4972445412099088e-08 0.9999999999999999
  outer loop
    vertex 1071.1479462060026 -616.7487615138047 7.536277500000035
    vertex 1069.8422062060024 -624.1603865138047 7.536277500000035
    vertex 1076.8569762060026 -624.7536865138047 7.536277500000035
  endloop
endfacet
facet normal 1.6985724793455888e-10 -1.4972445412099088e-08 0.9999999999999999
  outer loop
    vertex 1071.1479462060026 -616.7487615138047 7.536277500000035
    vertex 1076.8569762060026 -624.7536865138047 7.536277500000035
    vertex 1073.6014362060025 -619.2022365138047 7.536277500000035
  endloop
endfacet
facet normal 1.6985724793455888e-10 -1.4972445412099088e-08 0.9999999999999999
  outer loop
    vertex 1073.6014362060025 -619.2022365138047 7.536277500000035
    vertex 1076.8569762060026 -624.7536865138047 7.536277500000035
    vertex 1076.8569762060026 -620.0745615138047 7.536275000000036
  endloop
endfacet
facet normal 1.6985724793455888e-10 -1.4972445412099088e-08 0.9999999999999999
  outer loop
    vertex 1076.8569762060026 -620.0745615138047 7.536275000000036
    vertex 1076.8569762060026 -624.7536865138047 7.536277500000035
    vertex 1083.8717612060025 -624.1603865138047 7.536277500000035
  endloop
endfacet
facet normal 1.6985724793455888e-10 -1.4972445412099088e-08 0.9999999999999999
  outer loop
    vertex 1076.8569762060026 -620.0745615138047 7.536275000000036
    vertex 1083.8717612060025 -624.1603865138047 7.536277500000035
    vertex 1080.1125312060024 -619.2022365138047 7.536277500000035
  endloop
endfacet
facet normal 1.6985724793455888e-10 -1.4972445412099088e-08 0.9999999999999999
  outer loop
    vertex 1080.1125312060024 -619.2022365138047 7.536277500000035
    vertex 1083.8717612060025 -624.1603865138047 7.536277500000035
    vertex 1082.5660212060025 -616.7487615138047 7.536277500000035
  endloop
endfacet
facet normal 1.6985724793455888e-10 -1.4972445412099088e-08 0.9999999999999999
  outer loop
    vertex 1082.5660212060025 -616.7487615138047 7.536277500000035
    vertex 1083.8717612060025 -624.1603865138047 7.536277500000035
    vertex 1083.4640612060025 -613.3972115138047 7.536277500000035
  endloop
endfacet
facet normal 1.6985724793455888e-10 -1.4972445412099088e-08 0.9999999999999999
  outer loop
    vertex 1067.1109587060025 -619.0795115138047 7.536277500000035
    vertex 1067.1109587060025 -607.7149365138047 7.536277500000035
    vertex 1065.5883912060024 -613.3972115138047 7.536277500000035
  endloop
endfacet
facet normal 1.6985724793455888e-10 -1.4972445412099088e-08 0.9999999999999999
  outer loop
    vertex 1067.1109587060025 -607.7149365138047 7.536277500000035
    vertex 1067.1109587060025 -619.0795115138047 7.536277500000035
    vertex 1069.8422062060024 -624.1603865138047 7.536277500000035
  endloop
endfacet
facet normal 1.6985724793455888e-10 -1.4972445412099088e-08 0.9999999999999999
  outer loop
    vertex 1067.1109587060025 -607.7149365138047 7.536277500000035
    vertex 1069.8422062060024 -624.1603865138047 7.536277500000035
    vertex 1070.2499062060026 -613.3972115138047 7.536277500000035
  endloop
endfacet
facet normal 1.6985724793455888e-10 -1.4972445412099088e-08 0.9999999999999999
  outer loop
    vertex 1067.1109587060025 -607.7149365138047 7.536277500000035
    vertex 1070.2499062060026 -613.3972115138047 7.536277500000035
    vertex 1071.2706737060025 -603.5552115138047 7.536277500000035
  endloop
endfacet
facet normal 1.6985724793455888e-10 -1.4972445412099088e-08 0.9999999999999999
  outer loop
    vertex 1071.2706737060025 -603.5552115138047 7.536277500000035
    vertex 1070.2499062060026 -613.3972115138047 7.536277500000035
    vertex 1071.1479462060026 -610.0456865138046 7.536277500000035
  endloop
endfacet
facet normal 1.6985724793455888e-10 -1.4972445412099088e-08 0.9999999999999999
  outer loop
    vertex 1071.2706737060025 -603.5552115138047 7.536277500000035
    vertex 1071.1479462060026 -610.0456865138046 7.536277500000035
    vertex 1073.6014362060025 -607.5921865138047 7.536277500000035
  endloop
endfacet
facet normal 1.6985724793455888e-10 -1.4972445412099088e-08 0.9999999999999999
  outer loop
    vertex 1071.2706737060025 -603.5552115138047 7.536277500000035
    vertex 1073.6014362060025 -607.5921865138047 7.536277500000035
    vertex 1076.8569762060026 -602.0583615138047 7.536277500000035
  endloop
endfacet
facet normal 1.6985724793455888e-10 -1.4972445412099088e-08 0.9999999999999999
  outer loop
    vertex 1076.8569762060026 -602.0583615138047 7.536277500000035
    vertex 1073.6014362060025 -607.5921865138047 7.536277500000035
    vertex 1076.8569762060026 -606.7198865138047 7.536277500000035
  endloop
endfacet
facet normal 1.6985724793455888e-10 -1.4972445412099088e-08 0.9999999999999999
  outer loop
    vertex 1076.8569762060026 -602.0583615138047 7.536277500000035
    vertex 1076.8569762060026 -606.7198865138047 7.536277500000035
    vertex 1080.1125312060024 -607.5921865138047 7.536277500000035
  endloop
endfacet
facet normal 1.6985724793455888e-10 -1.4972445412099088e-08 0.9999999999999999
  outer loop
    vertex 1076.8569762060026 -602.0583615138047 7.536277500000035
    vertex 1080.1125312060024 -607.5921865138047 7.536277500000035
    vertex 1082.4432962060025 -603.5552115138047 7.536277500000035
  endloop
endfacet
facet normal 1.6985724793455888e-10 -1.4972445412099088e-08 0.9999999999999999
  outer loop
    vertex 1082.4432962060025 -603.5552115138047 7.536277500000035
    vertex 1080.1125312060024 -607.5921865138047 7.536277500000035
    vertex 1082.5660212060025 -610.0456865138046 7.536277500000035
  endloop
endfacet
facet normal 1.6985724793455888e-10 -1.4972445412099088e-08 0.9999999999999999
  outer loop
    vertex 1082.4432962060025 -603.5552115138047 7.536277500000035
    vertex 1082.5660212060025 -610.0456865138046 7.536277500000035
    vertex 1086.6030087060026 -607.7149365138047 7.536277500000035
  endloop
endfacet
facet normal 1.6985724793455888e-10 -1.4972445412099088e-08 0.9999999999999999
  outer loop
    vertex 1086.6030087060026 -607.7149365138047 7.536277500000035
    vertex 1082.5660212060025 -610.0456865138046 7.536277500000035
    vertex 1083.4640612060025 -613.3972115138047 7.536277500000035
  endloop
endfacet
facet normal 1.6985724793455888e-10 -1.4972445412099088e-08 0.9999999999999999
  outer loop
    vertex 1086.6030087060026 -607.7149365138047 7.536277500000035
    vertex 1083.4640612060025 -613.3972115138047 7.536277500000035
    vertex 1083.8717612060025 -624.1603865138047 7.536277500000035
  endloop
endfacet
facet normal 1.6985724793455888e-10 -1.4972445412099088e-08 0.9999999999999999
  outer loop
    vertex 1086.6030087060026 -607.7149365138047 7.536277500000035
    vertex 1083.8717612060025 -624.1603865138047 7.536277500000035
    vertex 1086.6030087060026 -619.0795115138047 7.536277500000035
  endloop
endfacet
facet normal 1.6985724793455888e-10 -1.4972445412099088e-08 0.9999999999999999
  outer loop
    vertex 1086.6030087060026 -607.7149365138047 7.536277500000035
    vertex 1086.6030087060026 -619.0795115138047 7.536277500000035
    vertex 1088.1255762060025 -613.3972115138047 7.536277500000035
  endloop
endfacet
facet normal -0.7071046196431238 0.7071089427233637 0.0
  outer loop
    vertex 1080.1125312060024 -619.2022365138047 7.536277500000035
    vertex 1082.5660212060025 -616.7487615138047 3.3839597790574766e-14
    vertex 1080.1125312060024 -619.2022365138047 3.3839597790574766e-14
  endloop
endfacet
facet normal -0.7071046196431238 0.7071089427233637 0.0
  outer loop
    vertex 1082.5660212060025 -616.7487615138047 3.3839597790574766e-14
    vertex 1080.1125312060024 -619.2022365138047 7.536277500000035
    vertex 1082.5660212060025 -616.7487615138047 7.536277500000035
  endloop
endfacet
facet normal 0.0 0.0 -1.0
  outer loop
    vertex 1067.1109587060025 -607.7149365138047 3.3839597790574766e-14
    vertex 1067.1109587060025 -619.0795115138047 3.3839597790574766e-14
    vertex 1065.5883912060024 -613.3972115138047 3.3839597790574766e-14
  endloop
endfacet
facet normal 0.0 0.0 -1.0
  outer loop
    vertex 1067.1109587060025 -619.0795115138047 3.3839597790574766e-14
    vertex 1067.1109587060025 -607.7149365138047 3.3839597790574766e-14
    vertex 1071.2706737060025 -603.5552115138047 3.3839597790574766e-14
  endloop
endfacet
facet normal 0.0 0.0 -1.0
  outer loop
    vertex 1067.1109587060025 -619.0795115138047 3.3839597790574766e-14
    vertex 1071.2706737060025 -603.5552115138047 3.3839597790574766e-14
    vertex 1070.2499062060026 -613.3972115138047 3.3839597790574766e-14
  endloop
endfacet
facet normal 0.0 0.0 -1.0
  outer loop
    vertex 1067.1109587060025 -619.0795115138047 3.3839597790574766e-14
    vertex 1070.2499062060026 -613.3972115138047 3.3839597790574766e-14
    vertex 1069.8422062060024 -624.1603865138047 3.3839597790574766e-14
  endloop
endfacet
facet normal 0.0 0.0 -1.0
  outer loop
    vertex 1070.2499062060026 -613.3972115138047 3.3839597790574766e-14
    vertex 1071.2706737060025 -603.5552115138047 3.3839597790574766e-14
    vertex 1071.1479462060026 -610.0456865138046 3.3839597790574766e-14
  endloop
endfacet
facet normal 0.0 0.0 -1.0
  outer loop
    vertex 1071.1479462060026 -610.0456865138046 3.3839597790574766e-14
    vertex 1071.2706737060025 -603.5552115138047 3.3839597790574766e-14
    vertex 1073.6014362060025 -607.5921865138047 3.3839597790574766e-14
  endloop
endfacet
facet normal 0.0 0.0 -1.0
  outer loop
    vertex 1073.6014362060025 -607.5921865138047 3.3839597790574766e-14
    vertex 1071.2706737060025 -603.5552115138047 3.3839597790574766e-14
    vertex 1076.8569762060026 -602.0583615138047 3.3839597790574766e-14
  endloop
endfacet
facet normal 0.0 0.0 -1.0
  outer loop
    vertex 1073.6014362060025 -607.5921865138047 3.3839597790574766e-14
    vertex 1076.8569762060026 -602.0583615138047 3.3839597790574766e-14
    vertex 1076.8569762060026 -606.7198865138047 3.3839597790574766e-14
  endloop
endfacet
facet normal 0.0 0.0 -1.0
  outer loop
    vertex 1076.8569762060026 -606.7198865138047 3.3839597790574766e-14
    vertex 1076.8569762060026 -602.0583615138047 3.3839597790574766e-14
    vertex 1082.4432962060025 -603.5552115138047 3.3839597790574766e-14
  endloop
endfacet
facet normal 0.0 0.0 -1.0
  outer loop
    vertex 1076.8569762060026 -606.7198865138047 3.3839597790574766e-14
    vertex 1082.4432962060025 -603.5552115138047 3.3839597790574766e-14
    vertex 1080.1125312060024 -607.5921865138047 3.3839597790574766e-14
  endloop
endfacet
facet normal 0.0 0.0 -1.0
  outer loop
    vertex 1080.1125312060024 -607.5921865138047 3.3839597790574766e-14
    vertex 1082.4432962060025 -603.5552115138047 3.3839597790574766e-14
    vertex 1082.5660212060025 -610.0456865138046 3.3839597790574766e-14
  endloop
endfacet
facet normal 0.0 0.0 -1.0
  outer loop
    vertex 1082.5660212060025 -610.0456865138046 3.3839597790574766e-14
    vertex 1082.4432962060025 -603.5552115138047 3.3839597790574766e-14
    vertex 1086.6030087060026 -607.7149365138047 3.3839597790574766e-14
  endloop
endfacet
facet normal 0.0 0.0 -1.0
  outer loop
    vertex 1082.5660212060025 -610.0456865138046 3.3839597790574766e-14
    vertex 1086.6030087060026 -607.7149365138047 3.3839597790574766e-14
    vertex 1083.4640612060025 -613.3972115138047 3.3839597790574766e-14
  endloop
endfacet
facet normal 0.0 0.0 -1.0
  outer loop
    vertex 1083.4640612060025 -613.3972115138047 3.3839597790574766e-14
    vertex 1086.6030087060026 -607.7149365138047 3.3839597790574766e-14
    vertex 1083.8717612060025 -624.1603865138047 3.3839597790574766e-14
  endloop
endfacet
facet normal 0.0 0.0 -1.0
  outer loop
    vertex 1083.8717612060025 -624.1603865138047 3.3839597790574766e-14
    vertex 1086.6030087060026 -607.7149365138047 3.3839597790574766e-14
    vertex 1086.6030087060026 -619.0795115138047 3.3839597790574766e-14
  endloop
endfacet
facet normal 0.0 0.0 -1.0
  outer loop
    vertex 1086.6030087060026 -619.0795115138047 3.3839597790574766e-14
    vertex 1086.6030087060026 -607.7149365138047 3.3839597790574766e-14
    vertex 1088.1255762060025 -613.3972115138047 3.3839597790574766e-14
  endloop
endfacet
facet normal 0.0 0.0 -1.0
  outer loop
    vertex 1069.8422062060024 -624.1603865138047 3.3839597790574766e-14
    vertex 1071.1479462060026 -616.7487615138047 3.3839597790574766e-14
    vertex 1076.8569762060026 -624.7536865138047 3.3839597790574766e-14
  endloop
endfacet
facet normal 0.0 0.0 -1.0
  outer loop
    vertex 1071.1479462060026 -616.7487615138047 3.3839597790574766e-14
    vertex 1069.8422062060024 -624.1603865138047 3.3839597790574766e-14
    vertex 1070.2499062060026 -613.3972115138047 3.3839597790574766e-14
  endloop
endfacet
facet normal 0.0 0.0 -1.0
  outer loop
    vertex 1076.8569762060026 -624.7536865138047 3.3839597790574766e-14
    vertex 1071.1479462060026 -616.7487615138047 3.3839597790574766e-14
    vertex 1073.6014362060025 -619.2022365138047 3.3839597790574766e-14
  endloop
endfacet
facet normal 0.0 0.0 -1.0
  outer loop
    vertex 1076.8569762060026 -624.7536865138047 3.3839597790574766e-14
    vertex 1073.6014362060025 -619.2022365138047 3.3839597790574766e-14
    vertex 1076.8569762060026 -620.0745615138047 3.3839597790574766e-14
  endloop
endfacet
facet normal 0.0 0.0 -1.0
  outer loop
    vertex 1076.8569762060026 -624.7536865138047 3.3839597790574766e-14
    vertex 1076.8569762060026 -620.0745615138047 3.3839597790574766e-14
    vertex 1080.1125312060024 -619.2022365138047 3.3839597790574766e-14
  endloop
endfacet
facet normal 0.0 0.0 -1.0
  outer loop
    vertex 1076.8569762060026 -624.7536865138047 3.3839597790574766e-14
    vertex 1080.1125312060024 -619.2022365138047 3.3839597790574766e-14
    vertex 1083.8717612060025 -624.1603865138047 3.3839597790574766e-14
  endloop
endfacet
facet normal 0.0 0.0 -1.0
  outer loop
    vertex 1083.8717612060025 -624.1603865138047 3.3839597790574766e-14
    vertex 1080.1125312060024 -619.2022365138047 3.3839597790574766e-14
    vertex 1082.5660212060025 -616.7487615138047 3.3839597790574766e-14
  endloop
endfacet
facet normal 0.0 0.0 -1.0
  outer loop
    vertex 1083.8717612060025 -624.1603865138047 3.3839597790574766e-14
    vertex 1082.5660212060025 -616.7487615138047 3.3839597790574766e-14
    vertex 1083.4640612060025 -613.3972115138047 3.3839597790574766e-14
  endloop
endfacet
facet normal 0.9659258346249389 -0.2588190139926269 0.0
  outer loop
    vertex 1088.1255762060025 -613.3972115138047 3.3839597790574766e-14
    vertex 1086.6030087060026 -619.0795115138047 7.536277500000035
    vertex 1086.6030087060026 -619.0795115138047 3.3839597790574766e-14
  endloop
endfacet
facet normal 0.9659258346249389 -0.2588190139926269 0.0
  outer loop
    vertex 1086.6030087060026 -619.0795115138047 7.536277500000035
    vertex 1088.1255762060025 -613.3972115138047 3.3839597790574766e-14
    vertex 1088.1255762060025 -613.3972115138047 7.536277500000035
  endloop
endfacet
facet normal -0.965926194891765 0.2588176694546109 0.0
  outer loop
    vertex 1083.4640612060025 -613.3972115138047 7.536277500000035
    vertex 1082.5660212060025 -616.7487615138047 3.3839597790574766e-14
    vertex 1082.5660212060025 -616.7487615138047 7.536277500000035
  endloop
endfacet
facet normal -0.965926194891765 0.2588176694546109 0.0
  outer loop
    vertex 1082.5660212060025 -616.7487615138047 3.3839597790574766e-14
    vertex 1083.4640612060025 -613.3972115138047 7.536277500000035
    vertex 1083.4640612060025 -613.3972115138047 3.3839597790574766e-14
  endloop
endfacet
facet normal 0.9659255499464429 0.25882007642503757 0.0
  outer loop
    vertex 1086.6030087060026 -607.7149365138047 3.3839597790574766e-14
    vertex 1088.1255762060025 -613.3972115138047 7.536277500000035
    vertex 1088.1255762060025 -613.3972115138047 3.3839597790574766e-14
  endloop
endfacet
facet normal 0.9659255499464429 0.25882007642503757 0.0
  outer loop
    vertex 1088.1255762060025 -613.3972115138047 7.536277500000035
    vertex 1086.6030087060026 -607.7149365138047 3.3839597790574766e-14
    vertex 1086.6030087060026 -607.7149365138047 7.536277500000035
  endloop
endfacet
facet normal -0.9659257122436351 -0.2588194707254968 0.0
  outer loop
    vertex 1082.5660212060025 -610.0456865138046 7.536277500000035
    vertex 1083.4640612060025 -613.3972115138047 3.3839597790574766e-14
    vertex 1083.4640612060025 -613.3972115138047 7.536277500000035
  endloop
endfacet
facet normal -0.9659257122436351 -0.2588194707254968 0.0
  outer loop
    vertex 1083.4640612060025 -613.3972115138047 3.3839597790574766e-14
    vertex 1082.5660212060025 -610.0456865138046 7.536277500000035
    vertex 1082.5660212060025 -610.0456865138046 3.3839597790574766e-14
  endloop
endfacet
facet normal 0.7071078436175279 0.707105718753971 0.0
  outer loop
    vertex 1082.4432962060025 -603.5552115138047 3.3839597790574766e-14
    vertex 1086.6030087060026 -607.7149365138047 7.536277500000035
    vertex 1086.6030087060026 -607.7149365138047 3.3839597790574766e-14
  endloop
endfacet
facet normal 0.7071078436175279 0.707105718753971 0.0
  outer loop
    vertex 1086.6030087060026 -607.7149365138047 7.536277500000035
    vertex 1082.4432962060025 -603.5552115138047 3.3839597790574766e-14
    vertex 1082.4432962060025 -603.5552115138047 7.536277500000035
  endloop
endfacet
facet normal -0.707108222204483 -0.7071053401656755 0.0
  outer loop
    vertex 1080.1125312060024 -607.5921865138047 7.536277500000035
    vertex 1082.5660212060025 -610.0456865138046 3.3839597790574766e-14
    vertex 1082.5660212060025 -610.0456865138046 7.536277500000035
  endloop
endfacet
facet normal -0.707108222204483 -0.7071053401656755 0.0
  outer loop
    vertex 1082.5660212060025 -610.0456865138046 3.3839597790574766e-14
    vertex 1080.1125312060024 -607.5921865138047 7.536277500000035
    vertex 1080.1125312060024 -607.5921865138047 3.3839597790574766e-14
  endloop
endfacet
facet normal 0.25881905596594573 0.9659258233782223 0.0
  outer loop
    vertex 1076.8569762060026 -602.0583615138047 7.536277500000035
    vertex 1082.4432962060025 -603.5552115138047 3.3839597790574766e-14
    vertex 1076.8569762060026 -602.0583615138047 3.3839597790574766e-14
  endloop
endfacet
facet normal 0.25881905596594573 0.9659258233782223 0.0
  outer loop
    vertex 1082.4432962060025 -603.5552115138047 3.3839597790574766e-14
    vertex 1076.8569762060026 -602.0583615138047 7.536277500000035
    vertex 1082.4432962060025 -603.5552115138047 7.536277500000035
  endloop
endfacet
facet normal -0.2588125858670236 -0.9659275570128563 0.0
  outer loop
    vertex 1080.1125312060024 -607.5921865138047 7.536277500000035
    vertex 1076.8569762060026 -606.7198865138047 3.3839597790574766e-14
    vertex 1080.1125312060024 -607.5921865138047 3.3839597790574766e-14
  endloop
endfacet
facet normal -0.2588125858670236 -0.9659275570128563 0.0
  outer loop
    vertex 1076.8569762060026 -606.7198865138047 3.3839597790574766e-14
    vertex 1080.1125312060024 -607.5921865138047 7.536277500000035
    vertex 1076.8569762060026 -606.7198865138047 7.536277500000035
  endloop
endfacet
facet normal 0.08427759729375203 -0.9964423147349736 0.0
  outer loop
    vertex 1083.8717612060025 -624.1603865138047 7.536277500000035
    vertex 1076.8569762060026 -624.7536865138047 3.3839597790574766e-14
    vertex 1083.8717612060025 -624.1603865138047 3.3839597790574766e-14
  endloop
endfacet
facet normal 0.08427759729375203 -0.9964423147349736 0.0
  outer loop
    vertex 1076.8569762060026 -624.7536865138047 3.3839597790574766e-14
    vertex 1083.8717612060025 -624.1603865138047 7.536277500000035
    vertex 1076.8569762060026 -624.7536865138047 7.536277500000035
  endloop
endfacet
facet normal -0.2588195065250499 0.9659257026511561 4.4360124758847555e-20
  outer loop
    vertex 1076.8569762060026 -620.0745615138047 7.536275000000036
    vertex 1080.1125312060024 -619.2022365138047 3.3839597790574766e-14
    vertex 1076.8569762060026 -620.0745615138047 3.3839597790574766e-14
  endloop
endfacet
facet normal -0.2588195065250499 0.9659257026511561 4.4360124758847555e-20
  outer loop
    vertex 1080.1125312060024 -619.2022365138047 3.3839597790574766e-14
    vertex 1076.8569762060026 -620.0745615138047 7.536275000000036
    vertex 1080.1125312060024 -619.2022365138047 7.536277500000035
  endloop
endfacet
facet normal 0.19508939582657395 -0.9807854646333327 0.0
  outer loop
    vertex 1086.7411012060024 -761.5493465138047 7.099512500000037
    vertex 1076.8569762060026 -763.5154115138048 3.3839597790574766e-14
    vertex 1086.7411012060024 -761.5493465138047 3.3839597790574766e-14
  endloop
endfacet
facet normal 0.19508939582657395 -0.9807854646333327 0.0
  outer loop
    vertex 1076.8569762060026 -763.5154115138048 3.3839597790574766e-14
    vertex 1086.7411012060024 -761.5493465138047 7.099512500000037
    vertex 1076.8569762060026 -763.5154115138048 7.099512500000037
  endloop
endfacet
facet normal -0.19508983349733264 0.9807853775755342 0.0
  outer loop
    vertex 1076.8569762060026 -756.8384415138047 7.099512500000037
    vertex 1084.1859262060025 -755.3806265138047 3.3839597790574766e-14
    vertex 1076.8569762060026 -756.8384415138047 3.3839597790574766e-14
  endloop
endfacet
facet normal -0.19508983349733264 0.9807853775755342 0.0
  outer loop
    vertex 1084.1859262060025 -755.3806265138047 3.3839597790574766e-14
    vertex 1076.8569762060026 -756.8384415138047 7.099512500000037
    vertex 1084.1859262060025 -755.3806265138047 7.099512500000037
  endloop
endfacet
endsolid Untitled-58c1b0de
